<?xml version="1.0" encoding="UTF-8" standalone="no"?>
<!DOCTYPE svg PUBLIC "-//W3C//DTD SVG 1.1//EN" "http://www.w3.org/Graphics/SVG/1.1/DTD/svg11.dtd">
<!-- Created with Vectornator (http://vectornator.io/) -->
<svg height="100%" stroke-miterlimit="10" style="fill-rule:nonzero;clip-rule:evenodd;stroke-linecap:round;stroke-linejoin:round;" version="1.1" viewBox="0 0 1024 1024" width="100%" xml:space="preserve" xmlns="http://www.w3.org/2000/svg" xmlns:vectornator="http://vectornator.io" xmlns:xlink="http://www.w3.org/1999/xlink">
<defs/>
<g id="レイヤー-1" vectornator:layerName="レイヤー 1">
<path d="M232.679 126.81C232.679 230.237 223.086 333.791 225.435 437.12C227.533 529.425 235.739 621.315 238.716 713.622C239.54 739.156 236.297 765.493 238.716 790.898C239.952 803.87 243.115 816.342 242.339 829.536C241.504 843.735 232.636 891.028 238.716 903.19" fill="none" opacity="1" stroke="#000000" stroke-linecap="round" stroke-linejoin="round" stroke-width="57.6278"/>
<path d="M791.721 132.847C796.519 123.252 793.089 148.314 792.929 150.958C792.269 161.835 791.319 172.692 790.514 183.559C789.709 194.426 788.968 205.298 788.099 216.16C783.075 278.96 779.665 342.713 780.854 405.727C782.096 471.56 780.53 537.998 783.269 603.746C785.738 662.997 790.194 722.114 794.136 781.239C797.139 826.284 792.929 872.586 792.929 917.679" fill="none" opacity="1" stroke="#000000" stroke-linecap="round" stroke-linejoin="round" stroke-width="57.6278"/>
<path d="M259.939 906.413C339.335 906.413 419.497 898.095 498.838 900.5C582.335 903.03 665.149 912.161 748.381 917.057C764.16 917.985 778.989 914.692 794.505 914.692" fill="none" opacity="1" stroke="#000000" stroke-linecap="round" stroke-linejoin="round" stroke-width="57.6278"/>
<path d="M244.564 131.766C252.087 129.258 259.381 132.485 267.035 132.948C277.274 133.569 287.536 133.713 297.784 134.131C324.66 135.228 351.314 136.496 378.206 136.496C475.143 136.496 572.214 141.227 669.142 141.227C696.872 141.227 724.385 144.775 751.929 144.775C763.45 144.775 784.23 140.82 794.505 145.958" fill="none" opacity="1" stroke="#000000" stroke-linecap="round" stroke-linejoin="round" stroke-width="57.6278"/>
<path d="M308.942 225.634C305.85 234.912 308.429 253.393 308.429 263.101C308.429 279.919 306.376 296.681 306.376 313.4" fill="none" opacity="1" stroke="#000000" stroke-linecap="round" stroke-linejoin="round" stroke-width="57.6278"/>
<path d="M312.022 227.687C323.086 227.687 333.82 230.253 344.87 230.253C357.011 230.253 369.076 228.277 381.31 228.714C397.643 229.297 414.639 232.475 431.095 233.846C445.232 235.024 459.838 229.885 474.208 230.253C547.318 232.128 620.245 235.386 693.365 235.386" fill="none" opacity="1" stroke="#000000" stroke-linecap="round" stroke-linejoin="round" stroke-width="57.6278"/>
<path d="M693.365 237.439C690.054 239.095 692.034 259.872 691.826 263.101C690.561 282.696 692.388 305.554 686.18 324.178" fill="none" opacity="1" stroke="#000000" stroke-linecap="round" stroke-linejoin="round" stroke-width="57.6278"/>
<path d="M315.101 319.559C331.306 319.559 347.963 322.683 364.373 323.151C422.605 324.815 480.52 327.771 538.878 327.771C557.178 327.771 576.068 324.979 594.308 326.744C606.475 327.922 617.901 329.272 630.236 328.797C645.894 328.195 663.068 324.431 678.481 328.284" fill="none" opacity="1" stroke="#000000" stroke-linecap="round" stroke-linejoin="round" stroke-width="57.6278"/>
<path d="M308.064 406.035C304.352 406.035 306.357 413.31 306.233 417.02C305.819 429.459 306.691 442.083 306.691 454.55C306.691 506.877 308.522 559.256 308.522 611.539" fill="none" opacity="1" stroke="#000000" stroke-linecap="round" stroke-linejoin="round" stroke-width="57.6278"/>
<path d="M314.929 412.443C314.929 407.084 328.442 409.535 330.949 409.697C347.371 410.756 364.286 408.781 380.837 408.781C407.574 408.781 434.166 407.866 460.933 407.866C464.871 407.866 488.966 407.922 490.683 408.781" fill="none" opacity="1" stroke="#000000" stroke-linecap="round" stroke-linejoin="round" stroke-width="57.6278"/>
<path d="M495.26 418.85C491.058 418.85 495.487 432.793 495.718 434.87C497.087 447.193 494.803 459.99 494.803 472.4C494.803 519.971 494.345 567.765 494.345 615.201" fill="none" opacity="1" stroke="#000000" stroke-linecap="round" stroke-linejoin="round" stroke-width="57.6278"/>
<path d="M317.676 621.151C316.739 620.917 313.111 618.127 316.302 617.489C321.254 616.499 331.284 618.756 335.526 618.862C347.211 619.154 359.099 619.182 370.768 618.405C387.162 617.312 403.271 621.151 419.741 621.151C439.892 621.151 460.26 617.489 480.614 617.489" fill="none" opacity="1" stroke="#000000" stroke-linecap="round" stroke-linejoin="round" stroke-width="57.6278"/>
<path d="M581.764 418.393C590.893 415.35 600.979 417.249 610.599 417.02C638.399 416.358 665.812 419.788 693.441 416.104" fill="none" opacity="1" stroke="#000000" stroke-linecap="round" stroke-linejoin="round" stroke-width="57.6278"/>
<path d="M578.561 507.643C618.336 507.643 658.19 506.27 698.018 506.27" fill="none" opacity="1" stroke="#000000" stroke-linecap="round" stroke-linejoin="round" stroke-width="57.6278"/>
<path d="M577.086 598.226C589.186 604.276 609.818 599.995 622.613 599.195C646.879 597.678 671.411 599.679 695.747 599.679" fill="none" opacity="1" stroke="#000000" stroke-linecap="round" stroke-linejoin="round" stroke-width="57.6278"/>
<path d="M325.236 696.061C335.691 696.061 346.985 698.802 357.686 698.967C396.271 699.56 434.89 700.881 473.44 701.388C547.212 702.359 621.095 702.841 694.778 702.841" fill="none" opacity="1" stroke="#000000" stroke-linecap="round" stroke-linejoin="round" stroke-width="57.6278"/>
<path d="M336.947 792.725C396.371 792.725 455.944 791.464 515.374 792.246C562.337 792.864 608.04 793.354 654.95 790.327C672.481 789.196 692.445 793.764 709.63 790.327" fill="none" opacity="1" stroke="#000000" stroke-linecap="round" stroke-linejoin="round" stroke-width="57.6278"/>
</g>
</svg>
