<?xml version="1.0" encoding="UTF-8" standalone="no"?>
<!DOCTYPE svg PUBLIC "-//W3C//DTD SVG 1.1//EN" "http://www.w3.org/Graphics/SVG/1.1/DTD/svg11.dtd">
<!-- Created with Vectornator (http://vectornator.io/) -->
<svg height="100%" stroke-miterlimit="10" style="fill-rule:nonzero;clip-rule:evenodd;stroke-linecap:round;stroke-linejoin:round;" version="1.1" viewBox="0 0 1024 1024" width="100%" xml:space="preserve" xmlns="http://www.w3.org/2000/svg" xmlns:vectornator="http://vectornator.io" xmlns:xlink="http://www.w3.org/1999/xlink">
<defs/>
<g id="レイヤー-1" vectornator:layerName="レイヤー 1">
<path d="M164.089 218.821C164.089 278.719 160.831 338.759 163.327 398.657C166.516 475.213 169.64 551.605 172.471 628.024C173.687 660.876 169.39 692.894 167.137 725.562C164.953 757.231 165.613 789.081 165.613 820.814" fill="none" opacity="1" stroke="#000000" stroke-linecap="round" stroke-linejoin="round" stroke-width="57.6278"/>
<path d="M336.304 214.249C346.802 229.996 341.638 258.92 341.638 275.973C341.638 310.135 344.031 343.989 344.686 378.083C347.542 526.548 340.876 675.594 340.876 823.862" fill="none" opacity="1" stroke="#000000" stroke-linecap="round" stroke-linejoin="round" stroke-width="57.6278"/>
<path d="M169.423 214.249C165.952 207.309 176.376 200.741 180.853 197.485C192.819 188.782 216.366 181.776 231.146 180.721C247.04 179.585 268.782 176.032 284.487 179.959C291.521 181.717 295.256 187.267 302.776 188.341C306.889 188.929 311.002 187.403 314.968 189.103C326.016 193.838 325.662 207.396 337.066 209.677" fill="none" opacity="1" stroke="#000000" stroke-linecap="round" stroke-linejoin="round" stroke-width="57.6278"/>
<path d="M167.899 834.531C167.899 824.444 179.247 842.909 183.139 845.199C191.488 850.11 206.051 846.723 215.144 846.723C227.878 846.723 239.813 851.39 252.482 852.057C282.199 853.621 305.191 842.87 332.494 833.769" fill="none" opacity="1" stroke="#000000" stroke-linecap="round" stroke-linejoin="round" stroke-width="57.6278"/>
<path d="M346.21 229.49C371.447 179.017 417.314 176.911 467.371 176.911C482.588 176.911 503.387 175.284 516.902 183.007C530.507 190.781 536.547 207.224 547.383 218.059" fill="none" opacity="1" stroke="#000000" stroke-linecap="round" stroke-linejoin="round" stroke-width="57.6278"/>
<path d="M539.763 235.586C547.393 250.847 542.811 278.767 542.811 295.023C542.811 324.747 540.261 354.424 541.287 384.179C541.979 404.262 545.782 424.371 547.383 444.378C549.961 476.609 546.372 509.586 547.383 541.916C550.327 636.137 556.527 730.309 556.527 824.624" fill="none" opacity="1" stroke="#000000" stroke-linecap="round" stroke-linejoin="round" stroke-width="57.6278"/>
<path d="M346.972 827.672C356.668 842.215 368.89 847.081 385.835 854.343C396.922 859.094 415.24 856.629 426.984 856.629C462.313 856.629 502.112 860.553 532.142 839.103" fill="none" opacity="1" stroke="#000000" stroke-linecap="round" stroke-linejoin="round" stroke-width="57.6278"/>
<path d="M564.147 307.977C563.938 307.349 563.256 304.167 561.861 304.167C559.691 304.167 563.417 308.22 564.147 310.263C565.768 314.802 567.258 319.387 568.719 323.98C572.861 336.998 576.005 349.734 579.387 362.843C583.77 379.824 592.142 395.422 598.438 411.612C607.787 435.652 616.766 461.652 624.346 486.289C651.025 572.995 677.405 660.622 709.692 745.375C718.056 767.33 725.335 789.838 731.791 812.432C734.137 820.644 736.149 830.507 742.459 836.817" fill="none" opacity="1" stroke="#000000" stroke-linecap="round" stroke-linejoin="round" stroke-width="57.6278"/>
<path d="M565.671 285.879C565.671 270.296 582.816 259.828 593.104 250.826C606.363 239.224 618.788 232.17 635.015 225.68C672.12 210.837 691.277 198.933 729.505 221.87" fill="none" opacity="1" stroke="#000000" stroke-linecap="round" stroke-linejoin="round" stroke-width="57.6278"/>
<path d="M730.747 237.872C737.645 241.321 747.138 276.508 749.035 282.831C756.349 307.211 764.569 332.253 775.706 355.222C817.615 441.661 844.603 534.89 879.34 624.214C889.824 651.174 898.282 679.21 909.82 705.75C915.164 718.041 925.883 729.732 928.109 743.089" fill="none" opacity="1" stroke="#000000" stroke-linecap="round" stroke-linejoin="round" stroke-width="57.6278"/>
<path d="M761.558 840.535C762.455 844.995 796.434 835.87 803.187 834.511C809.347 833.27 814.692 834.033 821.251 832.444C834.153 829.32 841.047 825.281 852.557 821.038C884.031 809.433 901.415 799.187 917.779 781.991" fill="none" opacity="1" stroke="#000000" stroke-linecap="round" stroke-linejoin="round" stroke-width="57.6278"/>
<path d="M929.153 772.807C929.976 782.86 930.677 756.044 930.677 752.233C930.677 750.963 930.677 748.423 930.677 748.423C930.677 748.423 930.677 750.963 930.677 752.233C930.677 759.012 928.599 766.04 929.153 772.807Z" fill="none" opacity="1" stroke="#000000" stroke-linecap="round" stroke-linejoin="round" stroke-width="57.6278"/>
<path d="M228.78 312.887C228.333 311.425 227.397 309.503 228.365 308.321C228.365 308.32 233.015 308.321 234.177 308.321C235.74 308.321 272.82 306.73 274.03 309.151C274.741 310.572 273.2 318.555 273.2 320.775C273.2 338.943 263.859 328.774 249.122 329.908C246.528 330.107 236.76 332.46 234.177 330.738C231.607 329.025 235.327 326.017 235.007 324.096C234.601 321.656 229.16 314.129 228.78 312.887Z" fill="none" opacity="1" stroke="#000000" stroke-linecap="round" stroke-linejoin="round" stroke-width="57.6278"/>
<path d="M230.026 409.444C241.878 414.289 262.071 411.48 275.691 411.48" fill="none" opacity="1" stroke="#000000" stroke-linecap="round" stroke-linejoin="round" stroke-width="57.6278"/>
<path d="M418.918 303.514C418.918 309.498 418.073 330.111 421.124 329.177C434.82 324.983 454.368 332.517 468.913 329.177C470.922 328.715 470.867 310.264 465.972 306.891C463.17 304.961 449.504 306.891 446.121 306.891" fill="none" opacity="1" stroke="#000000" stroke-linecap="round" stroke-linejoin="round" stroke-width="57.6278"/>
<path d="M423.447 408.582C431.419 404.596 445.585 408.991 454.167 408.582C459.032 408.35 463.479 406.091 468.282 406.091" fill="none" opacity="1" stroke="#000000" stroke-linecap="round" stroke-linejoin="round" stroke-width="57.6278"/>
<path d="M669.78 374.015C665.05 367.114 663.777 363.103 662.495 353.827C662.29 352.341 661.256 349.502 661.256 349.502C661.256 349.502 665.622 351.182 667.906 351.152C676.342 351.043 682.578 344.629 689.986 343.606C690.455 343.541 691.065 343.671 691.333 344.062C701.533 358.941 702.753 364.322 685.47 366.709" fill="none" opacity="1" stroke="#000000" stroke-linecap="round" stroke-linejoin="round" stroke-width="57.6278"/>
<path d="M697.747 455.573C696.696 455.718 693.594 456.357 694.596 456.009C707.98 451.354 721.553 446.283 735.06 442.069" fill="none" opacity="1" stroke="#000000" stroke-linecap="round" stroke-linejoin="round" stroke-width="57.6278"/>
<path d="M168.174 861.237C169.702 864.293 176.206 865.549 178.938 867.067C191.853 874.242 198.708 874.753 213.473 876.037C244.058 878.697 299.527 885.978 321.114 858.994" fill="none" opacity="1" stroke="#000000" stroke-linecap="round" stroke-linejoin="round" stroke-width="57.6278"/>
<path d="M330.533 857.2C335.842 867.818 375.876 877.915 388.39 881.419C403.864 885.752 418.335 884.498 434.138 885.456C479.557 888.208 533.614 886.445 568.241 851.818" fill="none" opacity="1" stroke="#000000" stroke-linecap="round" stroke-linejoin="round" stroke-width="57.6278"/>
<path d="M576.631 438.618C576.631 451.731 579.347 464.811 580.005 477.983C581.109 500.06 578.706 522.232 579.443 544.341C580.323 570.733 581.865 597.173 581.13 623.632C580.095 660.892 575.76 698.843 577.193 736.103C578.628 773.413 586.191 809.893 586.191 847.449" fill="none" opacity="1" stroke="#000000" stroke-linecap="round" stroke-linejoin="round" stroke-width="57.6278"/>
<path d="M207.625 877.491C226.237 877.491 245.23 878.86 263.811 879.282C285.213 879.768 306.898 879.512 328.365 880.097C334.09 880.253 338.607 881.074 344.503 881.074C396.529 881.074 448.897 879.608 501.106 879.608C557.516 879.608 613.929 880.013 670.26 879.282C708.196 878.79 745.921 879.529 783.827 878.631C825.552 877.642 867.558 878.363 909.348 877.328C923.751 876.971 939.984 877.287 951.189 874.234" fill="none" opacity="1" stroke="#000000" stroke-linecap="round" stroke-linejoin="round" stroke-width="57.6278"/>
</g>
</svg>
