<?xml version="1.0" encoding="UTF-8" standalone="no"?>
<!DOCTYPE svg PUBLIC "-//W3C//DTD SVG 1.1//EN" "http://www.w3.org/Graphics/SVG/1.1/DTD/svg11.dtd">
<!-- Created with Vectornator (http://vectornator.io/) -->
<svg height="100%" stroke-miterlimit="10" style="fill-rule:nonzero;clip-rule:evenodd;stroke-linecap:round;stroke-linejoin:round;" version="1.1" viewBox="0 0 1024 1024" width="100%" xml:space="preserve" xmlns="http://www.w3.org/2000/svg" xmlns:vectornator="http://vectornator.io" xmlns:xlink="http://www.w3.org/1999/xlink">
<defs/>
<g id="レイヤー-1" vectornator:layerName="レイヤー 1">
<path d="M68.8816 259.443C68.8816 375.101 76.3964 490.154 82.7006 605.73C86.2729 671.223 83.5135 737.652 83.5135 803.261" fill="none" opacity="1" stroke="#000000" stroke-linecap="round" stroke-linejoin="round" stroke-width="57.6278"/>
<path d="M85.9521 245.624C85.9521 233.959 102.762 221.538 109.526 215.547C127.454 199.668 149.405 186.789 171.305 177.342C217.742 157.31 269.687 140.711 320.875 144.014C331.746 144.715 337.436 149.465 347.7 152.143C376.232 159.586 400.598 168.203 426.55 183.032C452.231 197.707 467.979 221.374 485.89 243.998C490.227 249.476 507.135 263.286 502.96 271.636" fill="none" opacity="1" stroke="#000000" stroke-linecap="round" stroke-linejoin="round" stroke-width="57.6278"/>
<path d="M507.838 274.888C507.838 262.338 527.235 248.958 533.85 243.185C557.003 222.979 581.853 203.86 608.635 188.722C707.541 132.819 801.699 132.668 889.079 206.606C902.367 217.849 911.332 231.008 916.717 248.063C919.476 256.799 919.313 275.13 931.349 278.139" fill="none" opacity="1" stroke="#000000" stroke-linecap="round" stroke-linejoin="round" stroke-width="57.6278"/>
<path d="M503.773 281.391C504.734 280.91 502.203 308.177 502.148 309.842C501.786 320.677 501.995 331.535 501.335 342.357C499.626 370.384 496.207 397.905 497.27 426.084C499.408 482.732 502.075 539.294 498.083 595.976C496 625.562 491.888 654.884 490.767 684.58C489.561 716.548 492.447 748.584 490.767 780.5C490.269 789.974 489.954 799.463 489.954 808.951C489.954 809.764 489.954 807.325 489.954 806.512" fill="none" opacity="1" stroke="#000000" stroke-linecap="round" stroke-linejoin="round" stroke-width="57.6278"/>
<path d="M97.3325 810.577C97.3325 803.538 105.586 796.55 109.526 791.88C114.493 785.994 119.041 779.754 124.158 773.997C142.673 753.167 160.644 743.996 186.749 735.792C225.863 723.499 268.542 710.048 310.307 713.031C331.452 714.541 351.303 725.736 371.274 731.727C380.845 734.598 390.994 735.268 400.537 738.23C409.289 740.946 415.61 749.062 423.298 753.675C435.572 761.039 472.855 791.765 476.135 804.887" fill="none" opacity="1" stroke="#000000" stroke-linecap="round" stroke-linejoin="round" stroke-width="57.6278"/>
<path d="M505.399 818.705C497.469 816.062 506.805 806.805 509.463 803.261C513.528 797.842 517.346 792.228 521.657 787.003C541.846 762.531 570.949 754.818 598.068 739.856C636.023 718.915 679.95 717.908 722.438 717.908C733.006 717.908 743.674 716.454 754.141 717.908C773.251 720.562 792.421 727.752 811.043 732.54C821.877 735.326 823.662 734.598 834.616 739.856C853.687 749.01 868.821 769.442 880.138 786.19C891.92 803.628 918.484 825.316 914.279 846.343" fill="none" opacity="1" stroke="#000000" stroke-linecap="round" stroke-linejoin="round" stroke-width="57.6278"/>
<path d="M928.098 284.642C931.711 291.87 928.91 302.529 928.91 310.654C928.91 320.951 929.033 331.248 928.91 341.544C928.411 383.455 928.071 425 924.033 466.728C919.524 513.327 920.782 559.022 920.782 605.73C920.782 679.897 921.594 753.623 921.594 827.647" fill="none" opacity="1" stroke="#000000" stroke-linecap="round" stroke-linejoin="round" stroke-width="57.6278"/>
<path d="M151.875 313.201C181.066 284.01 216.887 271.6 256.596 267.188C273.99 265.255 293.79 261.048 311.336 264.808C318.282 266.296 324.469 269.977 331.169 271.948C354.009 278.665 361.938 278.916 379.563 296.541" fill="none" opacity="1" stroke="#000000" stroke-linecap="round" stroke-linejoin="round" stroke-width="57.6278"/>
<path d="M159.808 439.342C153.778 439.342 168.628 430.795 174.089 428.235C188.114 421.661 203.557 415.655 218.515 411.575C261.625 399.818 301.132 400.147 342.276 419.508C350.779 423.51 360.767 423.719 367.663 430.615" fill="none" opacity="1" stroke="#000000" stroke-linecap="round" stroke-linejoin="round" stroke-width="57.6278"/>
<path d="M167.742 586.109C167.742 578.538 209.336 559.845 217.722 556.756C250.396 544.718 283.299 551.277 316.096 555.962C334.533 558.596 356.108 562.793 367.663 578.969" fill="none" opacity="1" stroke="#000000" stroke-linecap="round" stroke-linejoin="round" stroke-width="57.6278"/>
<path d="M623.911 299.715C632.542 282.451 666.141 268.885 684.204 265.601C733.653 256.61 756.098 253.144 796.858 284.641C800.422 287.395 804.47 289.765 807.172 293.368" fill="none" opacity="1" stroke="#000000" stroke-linecap="round" stroke-linejoin="round" stroke-width="57.6278"/>
<path d="M608.837 448.862C608.837 426.413 658.228 417.44 673.891 415.542C704.831 411.791 739.097 407.511 769.091 419.508C774.473 421.661 776.233 428.124 779.405 432.202C786.33 441.106 795.238 448.828 803.205 456.795" fill="none" opacity="1" stroke="#000000" stroke-linecap="round" stroke-linejoin="round" stroke-width="57.6278"/>
<path d="M591.384 581.349C596.41 571.297 618.872 564.417 627.877 560.722C658.277 548.251 695.634 546.594 727.044 556.756C742.232 561.669 756.94 576.589 773.058 576.589" fill="none" opacity="1" stroke="#000000" stroke-linecap="round" stroke-linejoin="round" stroke-width="57.6278"/>
<path d="M82.0614 829.664C82.0614 828.711 81.0088 849.772 83.6481 855.051" fill="none" opacity="1" stroke="#000000" stroke-linecap="round" stroke-linejoin="round" stroke-width="57.6278"/>
<path d="M102.688 854.257C109.475 847.471 112.751 834.713 118.555 826.49C128.123 812.935 153.824 791.116 168.535 782.064C215.078 753.422 297.929 743.314 349.416 766.197C368.311 774.595 386.372 785.468 404.95 794.757C423.105 803.834 467.713 829.843 477.143 848.704" fill="none" opacity="1" stroke="#000000" stroke-linecap="round" stroke-linejoin="round" stroke-width="57.6278"/>
<path d="M476.35 851.084C486.078 851.084 495.451 851.877 504.91 851.877" fill="none" opacity="1" stroke="#000000" stroke-linecap="round" stroke-linejoin="round" stroke-width="57.6278"/>
<path d="M521.57 843.944C521.57 835.031 534.948 823.985 539.817 817.764C558.639 793.713 584.136 778.63 610.424 764.61C661.288 737.483 712.288 745.157 765.918 755.883C790.376 760.775 818.269 765.907 839.698 779.684C849.909 786.247 877.947 805.323 884.125 814.59C892.069 826.506 899.6 837.558 908.719 848.704C915.598 857.112 915.048 865.294 917.445 874.884C918.399 878.698 921.412 885.991 921.412 885.991C921.412 885.991 922.477 873.827 922.999 867.744C923.514 861.736 926.638 846.462 922.999 839.184" fill="none" opacity="1" stroke="#000000" stroke-linecap="round" stroke-linejoin="round" stroke-width="57.6278"/>
<path d="M941.246 274.328C946.645 285.127 951.201 295.031 956.319 305.268C958.287 309.205 955.526 333.776 955.526 340.968C955.526 373.689 954.687 406.65 952.352 439.342C949.849 474.389 952.982 511.436 954.732 546.442C958.168 615.159 958.773 684.782 956.319 753.503C955.12 787.064 953.146 820.719 953.146 854.257C953.146 863.585 954.564 886.159 947.592 893.131" fill="none" opacity="1" stroke="#000000" stroke-linecap="round" stroke-linejoin="round" stroke-width="57.6278"/>
</g>
</svg>
