<?xml version="1.0" encoding="UTF-8" standalone="no"?>
<!DOCTYPE svg PUBLIC "-//W3C//DTD SVG 1.1//EN" "http://www.w3.org/Graphics/SVG/1.1/DTD/svg11.dtd">
<!-- Created with Vectornator (http://vectornator.io/) -->
<svg height="100%" stroke-miterlimit="10" style="fill-rule:nonzero;clip-rule:evenodd;stroke-linecap:round;stroke-linejoin:round;" version="1.1" viewBox="0 0 1024 1024" width="100%" xml:space="preserve" xmlns="http://www.w3.org/2000/svg" xmlns:vectornator="http://vectornator.io" xmlns:xlink="http://www.w3.org/1999/xlink">
<defs/>
<g id="レイヤー-1" vectornator:layerName="レイヤー 1">
<path d="M822.762 599.575C754.44 599.575 761.501 497.369 823.582 488.903C838.338 486.891 856.221 493.126 867.851 502.02C874.138 506.827 875.544 515.844 878.508 522.514C887.594 542.958 894.406 574.219 871.13 589.737C849.149 604.391 835.783 600.068 817.024 585.638C797.291 570.459 795.558 557.955 812.105 537.271C816.23 532.114 822.219 530.464 828.501 529.892C860.937 526.944 864.354 588.011 831.78 574.981" fill="none" opacity="1" stroke="#000000" stroke-linecap="round" stroke-linejoin="round" stroke-width="57.2444"/>
<path d="M756.359 778.289C752.995 768.195 754.736 756.76 755.54 746.317C756.052 739.658 755.743 732.283 757.179 725.822C758.294 720.804 762.977 717.725 765.377 713.525C768.422 708.196 769.34 701.433 772.755 696.31C783.934 679.542 805.957 667.566 825.222 665.158C847.762 662.34 876.406 664.746 889.985 686.472C904.106 709.066 905.059 735.373 907.201 761.073C907.794 768.197 908.84 775.193 908.84 782.388C908.84 782.934 909.387 784.027 908.84 784.027C907.892 784.027 901.586 780.163 899.003 779.928C889.799 779.092 880.267 780.806 871.13 781.568C855.099 782.904 838.692 780.757 822.762 783.207C811.527 784.936 800.263 784.24 789.151 782.388C782.494 781.278 787.351 781.641 779.313 780.748C778.77 780.688 777.287 781.134 777.674 780.748C778.538 779.884 779.86 779.655 780.953 779.108" fill="none" opacity="1" stroke="#000000" stroke-linecap="round" stroke-linejoin="round" stroke-width="57.2444"/>
<path d="M821.123 697.13C803.714 708.735 794.094 737.277 786.692 752.875C785.32 755.765 782.96 758.727 783.412 761.893C783.66 763.625 786.359 759.931 787.511 758.614C792.12 753.346 796.299 747.717 800.628 742.218C810.755 729.354 823.474 711.465 835.879 700.409C841.879 695.061 848.709 690.684 855.554 686.472C856.074 686.152 857.478 686.751 857.193 687.292C851.257 698.572 843.219 708.682 837.518 720.084C832.653 729.814 827.92 739.619 823.582 749.596C822.445 752.212 820.839 754.955 821.123 757.794C821.231 758.882 823.48 758.381 824.402 757.794C826.684 756.342 828.53 754.229 830.14 752.055C834.02 746.818 837.25 741.128 840.798 735.66C847.685 725.041 852.237 715.515 863.752 708.607C864.923 707.904 866.398 710.532 866.211 711.886C865.242 718.914 862.58 725.606 860.473 732.38C857.572 741.705 849.54 750.678 851.455 760.253C851.834 762.148 855.521 762.041 857.193 761.073C861.207 758.75 863.81 754.572 867.031 751.236C871.462 746.646 875.637 741.81 880.148 737.299C887.427 730.02 877.826 749.183 876.868 752.055" fill="none" opacity="1" stroke="#000000" stroke-linecap="round" stroke-linejoin="round" stroke-width="57.2444"/>
<path d="M774.888 694.912C769.533 694.912 765.41 700.482 761.404 703.153C749.779 710.902 737.471 717.113 725.447 724.127C723.38 725.333 714.345 736.69 711.963 733.117C698.32 712.651 677.603 691.748 658.777 674.687C649.745 666.502 650.245 669.132 643.795 659.705C641.957 657.018 641.26 649.659 638.551 651.465C637.695 652.036 638.052 653.462 637.802 654.461" fill="none" opacity="1" stroke="#000000" stroke-linecap="round" stroke-linejoin="round" stroke-width="57.2444"/>
<path d="M168.549 264.228C163.422 274.482 167.122 290.977 166.735 301.424C165.68 329.897 164.925 434.452 165.827 458.373C167.281 496.884 164.595 535.238 162.199 573.59C160.215 605.33 166.658 639.291 160.384 670.662" fill="none" opacity="1" stroke="#000000" stroke-linecap="round" stroke-linejoin="round" stroke-width="57.2444"/>
<path d="M176.714 264.228C184.613 256.329 269.811 260.638 285.58 259.692C308.245 258.332 551.606 262.414 650.282 262.414C694.376 262.414 738.643 264.228 782.736 264.228" fill="none" opacity="1" stroke="#000000" stroke-linecap="round" stroke-linejoin="round" stroke-width="57.2444"/>
<path d="M790.901 267.857C787.761 269.427 789.337 309.93 789.087 315.94C788.103 339.544 787.272 364.103 787.272 387.61C787.272 399.276 788.341 399.556 787.272 422.991" fill="none" opacity="1" stroke="#000000" stroke-linecap="round" stroke-linejoin="round" stroke-width="57.2444"/>
<path d="M160.072 666.164C156.145 670.124 288.606 672.379 315.519 673.075C338.685 673.674 361.355 675.647 384.467 676.277C420.18 677.251 455.795 677.087 491.519 677.65C510.92 677.956 532.187 677.639 551.395 679.022C559.848 679.631 567.132 680.584 575.89 679.48" fill="none" opacity="1" stroke="#000000" stroke-linecap="round" stroke-linejoin="round" stroke-width="57.2444"/>
</g>
</svg>
