<?xml version="1.0" encoding="UTF-8" standalone="no"?>
<!DOCTYPE svg PUBLIC "-//W3C//DTD SVG 1.1//EN" "http://www.w3.org/Graphics/SVG/1.1/DTD/svg11.dtd">
<!-- Created with Vectornator (http://vectornator.io/) -->
<svg height="100%" stroke-miterlimit="10" style="fill-rule:nonzero;clip-rule:evenodd;stroke-linecap:round;stroke-linejoin:round;" version="1.1" viewBox="0 0 1024 1024" width="100%" xml:space="preserve" xmlns="http://www.w3.org/2000/svg" xmlns:vectornator="http://vectornator.io" xmlns:xlink="http://www.w3.org/1999/xlink">
<defs/>
<g id="レイヤー-1" vectornator:layerName="レイヤー 1">
<path d="M160.477 254.888C160.477 345.664 157.186 436.782 159.403 527.706C160.331 565.729 164.848 603.567 165.848 641.56C166.883 680.886 165.848 720.368 165.848 759.709" fill="none" opacity="1" stroke="#000000" stroke-linecap="round" stroke-linejoin="round" stroke-width="57.753"/>
<path d="M865.51 388.054C868.961 466.78 854.598 697.121 854.598 778.162" fill="none" opacity="1" stroke="#000000" stroke-linecap="round" stroke-linejoin="round" stroke-width="57.753"/>
<path d="M167.492 762.07C157.149 782.756 203.687 801.164 218.239 802.134C291.962 807.049 366.087 810.756 439.928 806.141C446.621 805.722 453.25 807.476 459.96 807.476C501.088 807.476 541.192 812.447 582.155 814.154C636.219 816.406 690.36 816.371 744.415 818.828C778.139 820.361 820.249 822.824 844.575 795.457C848.981 790.5 852.684 787.441 854.591 780.767" fill="none" opacity="1" stroke="#000000" stroke-linecap="round" stroke-linejoin="round" stroke-width="57.753"/>
<path d="M161.909 243.765C161.909 234.629 158.671 213.901 169.405 208.534C187.535 199.469 215.199 202.418 234.621 204.036C265.878 206.641 298.816 202.606 329.82 207.035C336.574 208 345.934 208.233 352.308 210.783C362.317 214.786 370.191 225.424 377.795 232.521C390.544 244.42 402.293 256.705 416.025 267.003C423.581 272.67 428.28 281.95 437.763 285.743C443.78 288.15 493.145 285.986 508.226 287.242C563.224 291.825 618.916 291.24 673.888 296.238C681.479 296.928 799.123 301.562 808.945 301.801C862.47 303.103 864.431 369.689 862.881 374.338" fill="none" opacity="1" stroke="#000000" stroke-linecap="round" stroke-linejoin="round" stroke-width="57.753"/>
<path d="M865.51 388.054C868.961 466.78 854.598 697.121 854.598 778.162" fill="none" opacity="1" stroke="#000000" stroke-linecap="round" stroke-linejoin="round" stroke-width="57.753"/>
<path d="M167.492 762.07C157.149 782.756 203.687 801.164 218.239 802.134C291.962 807.049 366.087 810.756 439.928 806.141C446.621 805.722 453.25 807.476 459.96 807.476C501.088 807.476 541.192 812.447 582.155 814.154C636.219 816.406 690.36 816.371 744.415 818.828C778.139 820.361 820.249 822.824 844.575 795.457C848.981 790.5 852.684 787.441 854.591 780.767" fill="none" opacity="1" stroke="#000000" stroke-linecap="round" stroke-linejoin="round" stroke-width="57.753"/>
<path d="M865.51 388.054C868.961 466.78 854.598 697.121 854.598 778.162" fill="none" opacity="1" stroke="#000000" stroke-linecap="round" stroke-linejoin="round" stroke-width="57.753"/>
<path d="M167.492 762.07C157.149 782.756 203.687 801.164 218.239 802.134C291.962 807.049 366.087 810.756 439.928 806.141C446.621 805.722 453.25 807.476 459.96 807.476C501.088 807.476 541.192 812.447 582.155 814.154C636.219 816.406 690.36 816.371 744.415 818.828C778.139 820.361 820.249 822.824 844.575 795.457C848.981 790.5 852.684 787.441 854.591 780.767" fill="none" opacity="1" stroke="#000000" stroke-linecap="round" stroke-linejoin="round" stroke-width="57.753"/>
<path d="M883.344 337.087C886.853 432.825 872.248 712.937 872.248 811.489" fill="none" opacity="1" stroke="#000000" stroke-linecap="round" stroke-linejoin="round" stroke-width="57.753"/>
<path d="M166.803 768.575C168.445 814.808 217.496 824.684 231.984 825.846C305.378 831.732 379.174 836.171 452.685 830.644C459.349 830.143 465.948 832.243 472.628 832.243C513.574 832.243 553.499 838.196 594.28 840.24C648.103 842.938 702.003 842.895 755.818 845.838C789.392 847.674 831.315 850.624 855.533 817.849C859.919 811.912 863.606 808.249 865.504 800.256" fill="none" opacity="1" stroke="#000000" stroke-linecap="round" stroke-linejoin="round" stroke-width="57.753"/>
<path d="M882.92 351.657C890.058 294.164 840.611 303.508 811.28 302.21" fill="none" opacity="1" stroke="#000000" stroke-linecap="round" stroke-linejoin="round" stroke-width="57.753"/>
<path d="M834.228 306.496C848.101 304.032 877.086 322.007 879.505 335.622" fill="none" opacity="1" stroke="#000000" stroke-linecap="round" stroke-linejoin="round" stroke-width="57.753"/>
<path d="M868.712 794.508C871.39 799.324 878.357 806.66 863.626 827.19C857.449 835.797 808.08 846.058 793.392 843.58" fill="none" opacity="1" stroke="#000000" stroke-linecap="round" stroke-linejoin="round" stroke-width="57.753"/>
<path d="M858.856 425.612C847.263 422.714 834.329 424.355 822.4 424.355C804.8 424.355 787.2 424.355 769.6 424.355C740.801 424.355 711.529 421.036 682.859 422.469C648.208 424.202 613.206 424.984 578.517 424.984C524.619 424.984 470.773 418.245 416.976 415.555C334.071 411.41 251.164 406.755 168.065 406.755" fill="none" opacity="1" stroke="#000000" stroke-linecap="round" stroke-linejoin="round" stroke-width="57.2444"/>
</g>
</svg>
