<?xml version="1.0" encoding="UTF-8" standalone="no"?>
<!DOCTYPE svg PUBLIC "-//W3C//DTD SVG 1.1//EN" "http://www.w3.org/Graphics/SVG/1.1/DTD/svg11.dtd">
<!-- Created with Vectornator (http://vectornator.io/) -->
<svg height="100%" stroke-miterlimit="10" style="fill-rule:nonzero;clip-rule:evenodd;stroke-linecap:round;stroke-linejoin:round;" version="1.1" viewBox="0 0 1024 1024" width="100%" xml:space="preserve" xmlns="http://www.w3.org/2000/svg" xmlns:vectornator="http://vectornator.io" xmlns:xlink="http://www.w3.org/1999/xlink">
<defs/>
<g id="レイヤー-1" vectornator:layerName="レイヤー 1">
<path d="M303.507 248.41C294.742 284.372 302.504 328.821 303.507 364.837C304.381 396.212 304.284 427.555 304.284 458.936" fill="none" opacity="1" stroke="#000000" stroke-linecap="round" stroke-linejoin="round" stroke-width="57.753"/>
<path d="M298.065 251.6C301.879 247.688 308.844 247.121 313.613 244.422C326.418 237.176 339.199 229.869 351.706 222.094C383.624 202.25 413.958 179.003 448.104 163.083C465.732 154.863 494.953 150.91 509.518 135.969" fill="none" opacity="1" stroke="#000000" stroke-linecap="round" stroke-linejoin="round" stroke-width="57.753"/>
<path d="M307.748 458.707C308.622 461.047 311.61 461.011 313.667 461.996C318.816 464.463 323.85 467.178 329.017 469.603C335.122 472.467 341.514 474.697 347.477 477.859C381.577 495.946 414.841 515.712 449.243 533.335C459.892 538.79 471.549 545.832 483.053 549.198" fill="none" opacity="1" stroke="#000000" stroke-linecap="round" stroke-linejoin="round" stroke-width="57.753"/>
<path d="M304.574 249.808C321.817 255.036 336.885 267.64 353.178 275.539C375.414 286.32 398.621 295.283 420.629 306.536C445.89 319.451 469.996 334.344 495.529 346.746" fill="none" opacity="1" stroke="#000000" stroke-linecap="round" stroke-linejoin="round" stroke-width="57.753"/>
<path d="M513.118 136.082C524.997 147.241 544.902 151.041 558.8 159.312C607.077 188.043 660.809 202.756 709.756 229.957" fill="none" opacity="1" stroke="#000000" stroke-linecap="round" stroke-linejoin="round" stroke-width="57.753"/>
<path d="M501.309 347.934C501.309 392.044 499.671 437.345 501.877 481.461C503.166 507.254 508.097 531.322 505.288 557.263" fill="none" opacity="1" stroke="#000000" stroke-linecap="round" stroke-linejoin="round" stroke-width="57.753"/>
<path d="M503.582 350.266C503.398 350.266 517.099 341.206 518.361 340.354C522.489 337.568 526.642 334.819 530.867 332.191C542.648 324.861 554.313 317.336 566.11 310.033C590.172 295.139 616.711 285.537 640.574 270.383C661.134 257.327 683.186 239.661 706.512 232.483" fill="none" opacity="1" stroke="#000000" stroke-linecap="round" stroke-linejoin="round" stroke-width="57.753"/>
<path d="M709.922 230.733C708.657 233.33 710.302 236.569 710.491 239.48C711.009 247.452 711.812 255.406 712.196 263.386C712.57 271.154 712.764 278.933 712.764 286.71C712.764 321.223 713.436 356.565 715.038 391.083C716.208 416.273 723.993 440.779 719.017 466.301" fill="none" opacity="1" stroke="#000000" stroke-linecap="round" stroke-linejoin="round" stroke-width="57.753"/>
<path d="M508.13 558.429C506.051 554.165 516.247 551.661 517.793 550.849C533.644 542.521 549.627 534.521 565.541 526.359C583.37 517.215 600.448 504.806 618.974 497.205C655.115 482.375 691.467 467.693 727.544 452.89" fill="none" opacity="1" stroke="#000000" stroke-linecap="round" stroke-linejoin="round" stroke-width="57.753"/>
<path d="M298.411 464.782C244.683 505.797 184.213 535.405 130.363 576.513" fill="none" opacity="1" stroke="#000000" stroke-linecap="round" stroke-linejoin="round" stroke-width="57.753"/>
<path d="M500.15 564.519C457.81 585.099 414.574 604.558 374.899 627.358C364.625 633.262 340.095 650.192 327.625 651.641" fill="none" opacity="1" stroke="#000000" stroke-linecap="round" stroke-linejoin="round" stroke-width="57.753"/>
<path d="M138.771 577.447C141.543 574.31 151.064 580.254 151.886 580.608C157.294 582.938 162.578 585.368 168.151 587.568C182.12 593.08 197.098 597.726 211.064 603.24C250.31 618.735 290.131 634.702 332.896 647.028" fill="none" opacity="1" stroke="#000000" stroke-linecap="round" stroke-linejoin="round" stroke-width="57.753"/>
<path d="M135.109 581.219C135.109 598.963 138.781 616.332 139.404 634.054C141.215 685.568 143.671 736.199 147.995 787.467" fill="none" opacity="1" stroke="#000000" stroke-linecap="round" stroke-linejoin="round" stroke-width="57.753"/>
<path d="M330.196 640.551C330.196 709.011 343.905 777.457 340.984 846.377" fill="none" opacity="1" stroke="#000000" stroke-linecap="round" stroke-linejoin="round" stroke-width="57.753"/>
<path d="M147.425 781.865C155.462 790.402 208.63 802.9 224.634 807.606C265.976 819.762 303.973 833.403 338.804 850.363" fill="none" opacity="1" stroke="#000000" stroke-linecap="round" stroke-linejoin="round" stroke-width="57.753"/>
<path d="M344.463 843.888C379.064 826.405 416.285 812.239 452.743 796.571C473.228 787.767 489.649 775.559 509.81 766.505" fill="none" opacity="1" stroke="#000000" stroke-linecap="round" stroke-linejoin="round" stroke-width="57.753"/>
<path d="M508.604 566.464C506.744 574.098 508.604 583.605 508.604 591.547C508.604 611.958 508.604 632.368 508.604 652.779C508.604 688.582 512.705 730.122 505.008 765.651" fill="none" opacity="1" stroke="#000000" stroke-linecap="round" stroke-linejoin="round" stroke-width="57.753"/>
<path d="M505.592 773.716C526.103 786.1 557.624 791.808 580.514 800.464C628.671 818.676 677.562 833.954 726.606 850.241" fill="none" opacity="1" stroke="#000000" stroke-linecap="round" stroke-linejoin="round" stroke-width="57.753"/>
<path d="M524.941 564.347C554.966 579.714 588.219 589.697 619.134 603.37C652.883 618.296 685.367 634.463 720.802 645.49" fill="none" opacity="1" stroke="#000000" stroke-linecap="round" stroke-linejoin="round" stroke-width="57.753"/>
<path d="M730.607 458.17C743.606 465.338 758.218 468.337 771.794 473.117C812.724 487.527 857.4 504.756 892.347 535.896" fill="none" opacity="1" stroke="#000000" stroke-linecap="round" stroke-linejoin="round" stroke-width="57.753"/>
<path d="M717.362 633.872C715.877 638.972 717.298 647.292 717.68 652.692C718.481 664.041 719.508 675.367 720.085 686.741C722.71 738.461 722.316 789.933 725.965 841.595" fill="none" opacity="1" stroke="#000000" stroke-linecap="round" stroke-linejoin="round" stroke-width="57.753"/>
<path d="M721.209 637.016C715.081 639.459 725.779 631.608 726.867 630.841C732.318 627 737.634 622.964 743.456 619.597C755.489 612.636 767.87 606.167 780.36 599.897C816.656 581.677 862.721 568.527 895.688 546.617" fill="none" opacity="1" stroke="#000000" stroke-linecap="round" stroke-linejoin="round" stroke-width="57.753"/>
<path d="M896.991 548.652C894.225 547.523 895.157 555.286 895.182 556.865C895.383 569.337 895.708 581.806 895.98 594.276C896.256 606.923 896.676 619.568 896.825 632.218C897.246 667.733 889.452 703.382 892.603 738.679" fill="none" opacity="1" stroke="#000000" stroke-linecap="round" stroke-linejoin="round" stroke-width="57.753"/>
<path d="M720.14 857.282C722.408 846.526 735.88 843.459 744.528 837.857C752.48 832.706 760.637 827.947 768.628 822.871C809.322 797.027 849.149 770.062 887.844 740.727" fill="none" opacity="1" stroke="#000000" stroke-linecap="round" stroke-linejoin="round" stroke-width="57.753"/>
</g>
</svg>
