<?xml version="1.0" encoding="UTF-8" standalone="no"?>
<!DOCTYPE svg PUBLIC "-//W3C//DTD SVG 1.1//EN" "http://www.w3.org/Graphics/SVG/1.1/DTD/svg11.dtd">
<!-- Created with Vectornator (http://vectornator.io/) -->
<svg height="100%" stroke-miterlimit="10" style="fill-rule:nonzero;clip-rule:evenodd;stroke-linecap:round;stroke-linejoin:round;" version="1.1" viewBox="0 0 1024 1024" width="100%" xml:space="preserve" xmlns="http://www.w3.org/2000/svg" xmlns:vectornator="http://vectornator.io" xmlns:xlink="http://www.w3.org/1999/xlink">
<defs/>
<g id="レイヤー-1" vectornator:layerName="レイヤー 1">
<path d="M172.489 271.443C176.21 282.605 172.657 304.885 172.489 314.481C171.903 347.847 172.139 381.231 171.553 414.593C170.24 489.43 178.03 564.872 168.746 639.143" fill="none" opacity="1" stroke="#000000" stroke-linecap="round" stroke-linejoin="round" stroke-width="57.6278"/>
<path d="M179.038 274.416C192.912 274.416 201.957 284.93 213.59 290.267C227.498 296.647 243.468 298.595 257.738 304.356C278.129 312.588 293.657 328.908 312.445 339.579C365.677 369.814 420.627 398.727 474.644 427.637C492.659 437.279 513.724 445.283 530.31 456.696" fill="none" opacity="1" stroke="#000000" stroke-linecap="round" stroke-linejoin="round" stroke-width="57.6278"/>
<path d="M512.576 112.727C502.32 112.727 479.007 124.283 472.576 126.727C453.776 133.87 432.148 141.443 413.576 148.727C375.329 163.725 339.89 184.895 301.576 199.727C261.195 215.358 213.005 227.949 178.576 254.727" fill="none" opacity="1" stroke="#000000" stroke-linecap="round" stroke-linejoin="round" stroke-width="57.6278"/>
<path d="M525.576 119.727C540.063 119.727 552.478 130.535 565.576 136.727C584.73 145.782 604.165 154.234 623.576 162.727C677.752 186.429 729.747 214.312 782.576 240.727C805.784 252.331 851.784 265.935 869.576 283.727" fill="none" opacity="1" stroke="#000000" stroke-linecap="round" stroke-linejoin="round" stroke-width="57.6278"/>
<path d="M540.576 450.727C550.778 450.727 567.254 438.528 572.576 435.727C603.044 419.691 611.658 415.652 642.576 400.727C680.456 382.439 719.439 365.456 756.576 345.727C788.391 328.825 817.634 305.455 851.576 292.727" fill="none" opacity="1" stroke="#000000" stroke-linecap="round" stroke-linejoin="round" stroke-width="57.6278"/>
<path d="M190.576 658.727C225.788 691.197 266.164 717.169 304.3 746.474C349.056 780.867 394.275 814.682 438.911 849.203C456.015 862.432 476.448 872.047 492.292 886.657" fill="none" opacity="1" stroke="#000000" stroke-linecap="round" stroke-linejoin="round" stroke-width="57.6278"/>
<path d="M539.576 462.727C533.207 462.727 537.816 475.363 537.576 481.727C536.539 509.198 534.597 534.235 532.576 561.727C525.026 664.396 507.576 767.707 507.576 870.727" fill="none" opacity="1" stroke="#000000" stroke-linecap="round" stroke-linejoin="round" stroke-width="57.6278"/>
<path d="M871.576 301.727C867.653 293.882 870.454 307.595 869.576 316.727C868.42 328.745 866.792 340.714 865.576 352.727C861.961 388.422 859.229 423.894 857.576 459.727C854.958 516.446 851.196 573.006 849.576 629.727C848.728 659.379 855.721 695.219 847.576 723.727" fill="none" opacity="1" stroke="#000000" stroke-linecap="round" stroke-linejoin="round" stroke-width="57.6278"/>
<path d="M847.449 723.125C813.879 740.167 777.665 752.733 744.29 770.635C700.095 794.34 659.247 824.604 614.544 847.297C582.29 863.671 544.544 873.442 514.576 893.727" fill="none" opacity="1" stroke="#000000" stroke-linecap="round" stroke-linejoin="round" stroke-width="57.6278"/>
</g>
</svg>
