<?xml version="1.0" encoding="UTF-8" standalone="no"?>
<!DOCTYPE svg PUBLIC "-//W3C//DTD SVG 1.1//EN" "http://www.w3.org/Graphics/SVG/1.1/DTD/svg11.dtd">
<!-- Created with Vectornator (http://vectornator.io/) -->
<svg height="100%" stroke-miterlimit="10" style="fill-rule:nonzero;clip-rule:evenodd;stroke-linecap:round;stroke-linejoin:round;" version="1.1" viewBox="0 0 1024 1024" width="100%" xml:space="preserve" xmlns="http://www.w3.org/2000/svg" xmlns:vectornator="http://vectornator.io" xmlns:xlink="http://www.w3.org/1999/xlink">
<defs/>
<g id="レイヤー-1" vectornator:layerName="レイヤー 1">
<path d="M479.761 826.925C444.803 833.916 407.764 819.815 376.474 805.66C323.269 781.591 274.163 737.674 244.329 687.184C232.203 666.664 224.977 632.281 220.026 611.239C190.264 484.749 236.928 326.699 362.804 269.482C393.676 255.45 430.862 248.741 464.572 246.698C557.314 241.078 657.439 287.64 700.004 372.769C724.71 422.181 722.788 478.686 722.788 532.255C722.788 581.486 713.494 627.741 687.853 670.476C645.095 741.739 536.069 814.774 450.901 814.774C420.95 814.774 379.966 815.9 364.323 782.876C343.325 738.547 351 663.483 408.372 655.287C415.184 654.314 420.954 650.817 428.118 652.249C465.046 659.635 491.287 702.874 517.734 726.676C572.834 776.267 644.786 808.919 719.75 805.66C736.493 804.932 752.154 803.128 765.317 796.547" fill="none" opacity="1" stroke="#000000" stroke-linecap="round" stroke-linejoin="round" stroke-width="121.457"/>
</g>
</svg>
