<?xml version="1.0" encoding="UTF-8" standalone="no"?>
<!DOCTYPE svg PUBLIC "-//W3C//DTD SVG 1.1//EN" "http://www.w3.org/Graphics/SVG/1.1/DTD/svg11.dtd">
<!-- Created with Vectornator (http://vectornator.io/) -->
<svg height="100%" stroke-miterlimit="10" style="fill-rule:nonzero;clip-rule:evenodd;stroke-linecap:round;stroke-linejoin:round;" version="1.1" viewBox="0 0 1024 1024" width="100%" xml:space="preserve" xmlns="http://www.w3.org/2000/svg" xmlns:vectornator="http://vectornator.io" xmlns:xlink="http://www.w3.org/1999/xlink">
<defs/>
<g id="レイヤー-1" vectornator:layerName="レイヤー 1">
<path d="M479.746 633.237C463.786 627.565 448.956 619.04 436.778 606.187C410.395 578.344 392.599 522.215 397.579 483.671C400.057 464.496 416.301 451.201 427.732 437.528C439.568 423.372 450.768 406.935 466.931 397.75C492.67 383.123 540.343 377.801 567.944 388.204C642.773 416.408 656.275 513.567 617.696 577.547C607.111 595.102 593.912 615.556 575.482 625.281C539.125 644.466 518.405 646.976 479.746 633.237Z" fill="none" opacity="1" stroke="#000000" stroke-linecap="round" stroke-linejoin="round" stroke-width="57.2444"/>
<path d="M404.99 272.993C406.15 279.951 410.123 288.895 414.383 294.37" fill="none" opacity="1" stroke="#000000" stroke-linecap="round" stroke-linejoin="round" stroke-width="57.2444"/>
<path d="M421.25 144.09C413.854 153.804 412.932 174.447 411.24 185.634C408.138 206.155 406.392 228.41 405.759 249.206C405.454 259.25 407.626 269.024 407.223 279.046" fill="none" opacity="1" stroke="#000000" stroke-linecap="round" stroke-linejoin="round" stroke-width="57.2444"/>
<path d="M618.241 245.043C612.911 249.876 609.904 258.906 607.527 265.635" fill="none" opacity="1" stroke="#000000" stroke-linecap="round" stroke-linejoin="round" stroke-width="57.2444"/>
<path d="M575.616 138.011C578.953 147.24 587.798 153.221 591.9 162.688C601.558 184.975 609.934 212.424 611.786 236.693" fill="none" opacity="1" stroke="#000000" stroke-linecap="round" stroke-linejoin="round" stroke-width="57.2444"/>
<path d="M720.563 203.619C723.017 201.116 714.621 204.287 713.997 204.461C705.973 206.688 697.898 208.769 689.994 211.377C666.185 219.231 632.858 228.884 613.882 246.561" fill="none" opacity="1" stroke="#000000" stroke-linecap="round" stroke-linejoin="round" stroke-width="57.2444"/>
<path d="M762.582 412.499C757.189 409.845 736.36 419.933 731.398 421.813" fill="none" opacity="1" stroke="#000000" stroke-linecap="round" stroke-linejoin="round" stroke-width="57.2444"/>
<path d="M908.43 448.768C897.645 446.405 885.97 440.625 875.932 437.34C851.788 429.437 827.271 423.446 802.458 418.008C787.818 414.8 774.675 411.498 760.082 416.257" fill="none" opacity="1" stroke="#000000" stroke-linecap="round" stroke-linejoin="round" stroke-width="57.2444"/>
<path d="M827.798 299.757C820.031 310.126 814.504 323.354 807.701 334.298C792.337 359.012 773.155 386.843 750.188 405.517" fill="none" opacity="1" stroke="#000000" stroke-linecap="round" stroke-linejoin="round" stroke-width="57.2444"/>
<path d="M751.871 617.081C747.46 611.121 731.177 605.167 724.896 602.252" fill="none" opacity="1" stroke="#000000" stroke-linecap="round" stroke-linejoin="round" stroke-width="57.2444"/>
<path d="M908.277 593.42C854.874 612.438 786.889 610.424 730.386 601.4" fill="none" opacity="1" stroke="#000000" stroke-linecap="round" stroke-linejoin="round" stroke-width="57.2444"/>
<path d="M820.44 737.185C822.322 733.626 817.936 724.433 817.366 723.142C812.578 712.305 807.588 701.512 801.624 691.253C784.726 662.187 762.146 628.805 734.909 607.353" fill="none" opacity="1" stroke="#000000" stroke-linecap="round" stroke-linejoin="round" stroke-width="57.2444"/>
<path d="M605.867 773.44C603.329 765.39 597.95 757.978 594.448 750.372" fill="none" opacity="1" stroke="#000000" stroke-linecap="round" stroke-linejoin="round" stroke-width="57.2444"/>
<path d="M699.33 825.525C697.42 827.831 684.23 822.205 680.115 820.452C674.1 817.888 668.076 815.277 662.397 812.058C639.387 799.016 619.851 781.055 601.38 762.543" fill="none" opacity="1" stroke="#000000" stroke-linecap="round" stroke-linejoin="round" stroke-width="57.2444"/>
<path d="M597.844 762.932C600.516 764.316 600.689 766.162 601.241 768.927C602.186 773.662 603.366 778.356 604.117 783.125C605.215 790.1 606.618 797.079 606.785 804.135C607.425 831.1 601.933 853.96 591.29 878.373" fill="none" opacity="1" stroke="#000000" stroke-linecap="round" stroke-linejoin="round" stroke-width="57.2444"/>
<path d="M402.989 772.761C407.94 766.537 412.103 753.357 415.672 746.226" fill="none" opacity="1" stroke="#000000" stroke-linecap="round" stroke-linejoin="round" stroke-width="57.2444"/>
<path d="M429.873 895.308C427.919 893.976 426.156 886.63 425.29 884.255C422.853 877.577 419.784 871.087 418.012 864.21C411.022 837.08 410.627 807.962 412.131 780.158C412.432 774.599 414.154 769.102 413.85 763.543" fill="none" opacity="1" stroke="#000000" stroke-linecap="round" stroke-linejoin="round" stroke-width="57.2444"/>
<path d="M404.638 766.539C401.261 775.875 389.234 784.121 382.243 789.543C374.752 795.353 367.375 801.373 359.298 806.371C332.979 822.658 312.784 828.06 282.939 831.037" fill="none" opacity="1" stroke="#000000" stroke-linecap="round" stroke-linejoin="round" stroke-width="57.2444"/>
<path d="M266.025 624.524C276.783 621.082 287.523 618.391 298.131 614.489" fill="none" opacity="1" stroke="#000000" stroke-linecap="round" stroke-linejoin="round" stroke-width="57.2444"/>
<path d="M192.542 729.199C206.25 684.181 251.623 647.369 288.376 620.686" fill="none" opacity="1" stroke="#000000" stroke-linecap="round" stroke-linejoin="round" stroke-width="57.2444"/>
<path d="M280.697 620.067C274.933 624.251 261.015 626.354 256.294 627.164C245.961 628.939 235.588 631.336 225.098 631.229C209.367 631.07 193.305 630.555 178.162 626.37C162.128 621.939 148.776 610.908 134.69 602.181" fill="none" opacity="1" stroke="#000000" stroke-linecap="round" stroke-linejoin="round" stroke-width="57.2444"/>
<path d="M256.223 423.686C266.518 428.822 278.923 431.926 289.629 435.714" fill="none" opacity="1" stroke="#000000" stroke-linecap="round" stroke-linejoin="round" stroke-width="57.2444"/>
<path d="M130.292 444.122C148.819 433.198 172.778 434.04 193.421 432.4C216.307 430.582 218.812 428.959 241.796 429.712C254.134 430.117 265.01 432.201 277.376 430.878" fill="none" opacity="1" stroke="#000000" stroke-linecap="round" stroke-linejoin="round" stroke-width="57.2444"/>
<path d="M266.755 428.977C254.627 424.562 249.283 415.609 240.025 406.152C222.696 388.45 210.603 369.248 196.041 349.548C186.797 337.042 178.351 333.314 179.676 318.712" fill="none" opacity="1" stroke="#000000" stroke-linecap="round" stroke-linejoin="round" stroke-width="57.2444"/>
<path d="M291.067 216.579C296.51 220.43 303.945 220.531 310.057 223.213C324.777 229.673 337.996 239.079 351.986 246.829C369.201 256.365 386.049 263.734 400.418 277.311" fill="none" opacity="1" stroke="#000000" stroke-linecap="round" stroke-linejoin="round" stroke-width="57.2444"/>
<path d="M283.33 216.515C243.865 233.274 217.551 273.721 195.818 307.981" fill="none" opacity="1" stroke="#000000" stroke-linecap="round" stroke-linejoin="round" stroke-width="57.2444"/>
<path d="M430.43 147.976C432.813 138.213 459.322 136.425 466.329 135.092C505.509 127.638 543.756 128.462 581.148 142.997" fill="none" opacity="1" stroke="#000000" stroke-linecap="round" stroke-linejoin="round" stroke-width="57.2444"/>
<path d="M821.021 302.864C825.66 303.955 814.917 293.696 809.706 288.107C800.136 277.843 790.001 268.101 780.034 258.21C760.552 238.877 739.262 215.9 714.166 203.884" fill="none" opacity="1" stroke="#000000" stroke-linecap="round" stroke-linejoin="round" stroke-width="57.2444"/>
<path d="M903.72 456.961C906.903 455.609 909.834 476.513 910.045 477.548C911.649 485.428 913.382 493.289 914.641 501.229C919.686 533.034 916.471 556.921 907.694 586.814" fill="none" opacity="1" stroke="#000000" stroke-linecap="round" stroke-linejoin="round" stroke-width="57.2444"/>
<path d="M701.082 831.391C710.913 830.554 722.419 820.206 730.589 814.139C739.008 807.886 747.317 801.483 755.409 794.829C769.699 783.08 807.592 755.855 814.513 738.7" fill="none" opacity="1" stroke="#000000" stroke-linecap="round" stroke-linejoin="round" stroke-width="57.2444"/>
<path d="M586.946 876.488C577.548 882.714 565.788 884.799 554.848 887.083C512.044 896.018 472.69 887.747 430.072 885.431" fill="none" opacity="1" stroke="#000000" stroke-linecap="round" stroke-linejoin="round" stroke-width="57.2444"/>
<path d="M196.254 728.825C196.166 728.807 191.967 726.903 192.872 728.718C194.66 732.303 196.87 735.695 199.308 738.89C206.1 747.787 213.408 756.294 220.523 764.945C242.635 791.828 264.387 812.547 288.718 836.475" fill="none" opacity="1" stroke="#000000" stroke-linecap="round" stroke-linejoin="round" stroke-width="57.2444"/>
<path d="M138.477 595.692C132.87 598.226 124.673 556.552 123.409 551.492C111.244 502.806 114.547 476.314 141.49 433.782" fill="none" opacity="1" stroke="#000000" stroke-linecap="round" stroke-linejoin="round" stroke-width="57.2444"/>
<path d="M924.337 615.054C877.401 637.223 817.649 634.876 767.988 624.356" fill="none" opacity="1" stroke="#000000" stroke-linecap="round" stroke-linejoin="round" stroke-width="57.2444"/>
<path d="M838.36 756.807C840.17 752.959 835.952 743.018 835.403 741.622C830.797 729.904 825.997 718.233 820.26 707.139C804.006 675.71 782.286 639.614 756.087 616.417" fill="none" opacity="1" stroke="#000000" stroke-linecap="round" stroke-linejoin="round" stroke-width="57.2444"/>
<path d="M632.977 810.865C630.439 802.816 625.061 795.404 621.559 787.798" fill="none" opacity="1" stroke="#000000" stroke-linecap="round" stroke-linejoin="round" stroke-width="57.2444"/>
<path d="M714.592 857.074C712.682 859.379 699.492 853.754 695.377 852.001C689.362 849.437 683.338 846.826 677.658 843.607C654.648 830.564 635.113 812.604 616.641 794.092" fill="none" opacity="1" stroke="#000000" stroke-linecap="round" stroke-linejoin="round" stroke-width="57.2444"/>
<path d="M617.587 789.922C620.26 791.305 620.433 793.152 620.985 795.917C621.93 800.652 623.109 805.346 623.86 810.114C624.958 817.089 626.361 824.069 626.529 831.124C627.168 858.089 621.677 880.949 611.034 905.362" fill="none" opacity="1" stroke="#000000" stroke-linecap="round" stroke-linejoin="round" stroke-width="57.2444"/>
<path d="M918.753 463.758C921.594 462.215 924.21 486.073 924.398 487.254C925.829 496.248 927.376 505.22 928.5 514.282C933.001 550.582 930.133 577.844 922.3 611.962" fill="none" opacity="1" stroke="#000000" stroke-linecap="round" stroke-linejoin="round" stroke-width="57.2444"/>
<path d="M720.826 858.381C730.657 857.543 742.163 847.196 750.333 841.128C758.751 834.876 767.06 828.473 775.153 821.819C789.443 810.069 827.335 782.844 834.257 765.689" fill="none" opacity="1" stroke="#000000" stroke-linecap="round" stroke-linejoin="round" stroke-width="57.2444"/>
<path d="M606.69 903.476C596.312 909.7 583.327 911.785 571.247 914.067C523.983 923 480.529 914.732 433.47 912.416" fill="none" opacity="1" stroke="#000000" stroke-linecap="round" stroke-linejoin="round" stroke-width="57.2444"/>
</g>
</svg>
