<?xml version="1.0" encoding="UTF-8" standalone="no"?>
<!DOCTYPE svg PUBLIC "-//W3C//DTD SVG 1.1//EN" "http://www.w3.org/Graphics/SVG/1.1/DTD/svg11.dtd">
<!-- Created with Vectornator (http://vectornator.io/) -->
<svg height="100%" stroke-miterlimit="10" style="fill-rule:nonzero;clip-rule:evenodd;stroke-linecap:round;stroke-linejoin:round;" version="1.1" viewBox="0 0 1024 1024" width="100%" xml:space="preserve" xmlns="http://www.w3.org/2000/svg" xmlns:vectornator="http://vectornator.io" xmlns:xlink="http://www.w3.org/1999/xlink">
<defs/>
<g id="レイヤー-1" vectornator:layerName="レイヤー 1">
<path d="M181.691 565.504C181.691 557.946 186.985 550.268 190.488 543.511C196.126 532.639 202.879 522.342 208.083 511.255C227.912 469.01 238.639 422.61 265.264 383.696C268.024 379.662 271.042 375.809 274.061 371.966C276.013 369.483 300.642 338.026 304.852 339.71C310.266 341.876 312.459 355.001 313.649 360.237C315.646 369.025 317.772 377.787 319.514 386.628C326.72 423.214 333.027 459.97 340.04 496.593C345.214 523.614 353.236 552.495 353.236 580.166" fill="none" opacity="1" stroke="#000000" stroke-linecap="round" stroke-linejoin="round" stroke-width="57.2444"/>
<path d="M237.407 481.931C236.429 481.931 234.474 481.931 234.474 481.931C234.474 481.931 236.429 481.931 237.407 481.931C247.181 481.931 256.964 481.541 266.73 481.931C269.221 482.031 271.575 483.237 274.061 483.397C286.751 484.216 299.476 484.375 312.183 484.864" fill="none" opacity="1" stroke="#000000" stroke-linecap="round" stroke-linejoin="round" stroke-width="57.2444"/>
<path d="M451.471 459.938C479.818 459.938 508.164 459.938 536.511 459.938" fill="none" opacity="1" stroke="#000000" stroke-linecap="round" stroke-linejoin="round" stroke-width="57.2444"/>
<path d="M625.949 327.981C635.037 323.436 648.277 326.183 658.205 326.514C671.402 326.954 684.597 327.473 697.792 327.981C710.011 328.451 722.224 329.116 734.447 329.447C743.277 329.685 777.656 327.203 784.298 333.845C785.843 335.391 779.979 335.232 778.433 336.778C776.705 338.506 775.39 340.609 774.034 342.643C770.125 348.507 766.215 354.372 762.305 360.237C746.747 383.573 729.041 405.064 712.454 427.682C689.678 458.74 666.897 490.309 646.475 522.985C638.845 535.193 631.062 549.961 624.482 562.572C621.449 568.385 620.322 575.53 615.685 580.166C614.994 580.858 615.248 578.108 615.685 577.234C616.904 574.796 621.24 572.849 623.016 571.369C624.609 570.042 625.637 568.037 627.415 566.971C632.879 563.692 644.909 565.504 650.874 565.504C677.075 565.504 703.849 566 730.049 566.971C757.78 567.998 780.107 572.731 806.291 559.64" fill="none" opacity="1" stroke="#000000" stroke-linecap="round" stroke-linejoin="round" stroke-width="57.2444"/>
<path d="M316.703 755.746C266.674 755.746 219.063 757.324 173.343 732.706C116.517 702.107 81.7319 638.205 63.2633 579.106C58.6253 564.264 51.5847 548.725 50.4633 533.026C47.6249 493.289 49.0987 456.903 58.5196 419.219C68.1848 380.559 79.8637 253.802 231.94 200.442C350.547 158.826 483.098 132.734 605.983 143.906C632.929 146.355 658.392 150.702 685.343 154.146C776.215 165.758 853.459 200.32 887.583 238.626C929.626 285.819 948.302 307.163 956.703 415.266C959.601 452.549 922.507 568.46 909.616 601.978C874.345 693.682 834.186 713.192 746.783 760.866C719.65 775.666 608.13 795.409 520.086 784.737C511.742 783.726 465.541 786.813 453.385 780.735" fill="none" opacity="1" stroke="#000000" stroke-linecap="round" stroke-linejoin="round" stroke-width="57.2444"/>
<path d="M311.992 768.333C312.436 766.555 313.865 761.245 313.326 762.997C311.009 770.528 309.057 778.171 306.656 785.675C305.498 789.294 303.809 792.728 302.654 796.347C291.367 831.714 279.274 866.828 266.636 901.734C263.763 909.667 261.088 917.675 258.632 925.746C257.716 928.754 254.153 935.084 257.298 935.084C259.813 935.084 260.477 931.042 262.634 929.748C271.294 924.552 278.354 916.898 286.646 911.072C298.452 902.776 405.863 835.316 436.054 787.009" fill="none" opacity="1" stroke="#000000" stroke-linecap="round" stroke-linejoin="round" stroke-width="57.2444"/>
</g>
</svg>
