<?xml version="1.0" encoding="UTF-8" standalone="no"?>
<!DOCTYPE svg PUBLIC "-//W3C//DTD SVG 1.1//EN" "http://www.w3.org/Graphics/SVG/1.1/DTD/svg11.dtd">
<!-- Created with Vectornator (http://vectornator.io/) -->
<svg height="100%" stroke-miterlimit="10" style="fill-rule:nonzero;clip-rule:evenodd;stroke-linecap:round;stroke-linejoin:round;" version="1.1" viewBox="0 0 1024 1024" width="100%" xml:space="preserve" xmlns="http://www.w3.org/2000/svg" xmlns:vectornator="http://vectornator.io" xmlns:xlink="http://www.w3.org/1999/xlink">
<defs/>
<g id="レイヤー-1" vectornator:layerName="レイヤー 1">
<path d="M120.522 236.618C115.651 270.708 121.611 306.315 120.522 340.618C119.769 364.338 116.219 387.918 115.522 411.618C114.174 457.439 117.286 502.906 118.522 548.618C120.522 622.618 115.522 696.686 115.522 770.618" fill="none" opacity="1" stroke="#000000" stroke-linecap="round" stroke-linejoin="round" stroke-width="57.2444"/>
<path d="M123.522 240.618C122.188 239.951 119.522 240.108 119.522 238.618C119.522 236.689 130.937 237.618 138.522 237.618C145.522 237.618 152.522 237.618 159.522 237.618C178.703 237.618 197.37 241.618 216.522 241.618C268.537 241.618 320.493 237.618 372.522 237.618C546.909 237.618 721.231 243.618 895.522 243.618" fill="none" opacity="1" stroke="#000000" stroke-linecap="round" stroke-linejoin="round" stroke-width="57.2444"/>
<path d="M901.522 246.618C901.522 257.214 903.855 266.95 904.522 277.618C906.101 302.882 905.061 329.284 904.522 354.618C903.852 386.107 898.83 417.217 897.522 448.618C895.142 505.722 898.328 563.578 900.522 620.618C902.576 674.042 899.522 728.035 899.522 781.618" fill="none" opacity="1" stroke="#000000" stroke-linecap="round" stroke-linejoin="round" stroke-width="57.2444"/>
<path d="M128.522 774.618C160.372 774.618 191.743 778.265 223.522 779.618C263.118 781.302 302.92 778.033 342.522 779.618C375.834 780.95 409.168 782.937 442.522 783.618C535.756 785.52 629.229 779.618 722.522 779.618C784.009 779.618 846.184 787.707 907.522 783.618" fill="none" opacity="1" stroke="#000000" stroke-linecap="round" stroke-linejoin="round" stroke-width="57.2444"/>
<path d="M243.46 257.133C243.46 335.2 243.432 413.03 241.262 491.149C239.633 549.819 242.506 608.387 240.164 666.936C239.03 695.291 242.361 723.364 242.361 751.534" fill="none" opacity="1" stroke="#000000" stroke-linecap="round" stroke-linejoin="round" stroke-width="57.2444"/>
<path d="M794.991 269.219C794.991 312.126 796.106 356.22 791.695 398.861C788.168 432.952 784.58 466.705 782.905 501.037C780.297 554.521 785.044 607.972 782.905 661.443C781.45 697.825 779.609 733.702 779.609 770.211" fill="none" opacity="1" stroke="#000000" stroke-linecap="round" stroke-linejoin="round" stroke-width="57.2444"/>
<path d="M436.94 397.762C436.94 434.206 441.305 471.291 442.295 507.929C443.162 540.01 440 572.162 440 604.325" fill="none" opacity="1" stroke="#000000" stroke-linecap="round" stroke-linejoin="round" stroke-width="57.2444"/>
<path d="M441.53 614.271C439.544 615.264 440.57 615.036 438.47 615.036" fill="none" opacity="1" stroke="#000000" stroke-linecap="round" stroke-linejoin="round" stroke-width="57.2444"/>
<path d="M629.732 489.568C630.965 489.157 634.139 487.64 633.557 488.803C631.463 492.99 625.294 493.219 621.316 495.688C616.447 498.71 611.568 501.719 606.78 504.869C594.124 513.195 582.208 522.597 570.058 531.645C548.69 547.558 527.507 564.411 504.264 577.548C478.64 592.031 456.52 603.106 435.41 624.216" fill="none" opacity="1" stroke="#000000" stroke-linecap="round" stroke-linejoin="round" stroke-width="57.2444"/>
<path d="M439.163 395.493C449.827 395.871 460.925 404.382 470.183 409.461C481.11 415.456 491.943 421.702 502.948 427.485C534.363 443.994 566.984 455.806 598.534 471.698C607.444 476.186 623.533 480.728 630.562 489.696" fill="none" opacity="1" stroke="#000000" stroke-linecap="round" stroke-linejoin="round" stroke-width="57.2444"/>
<path d="M138.469 498.067C164.511 498.067 191.953 495.275 217.662 498.947" fill="none" opacity="1" stroke="#000000" stroke-linecap="round" stroke-linejoin="round" stroke-width="57.2444"/>
<path d="M141.109 367.839C167.8 367.839 194.491 367.839 221.182 367.839" fill="none" opacity="1" stroke="#000000" stroke-linecap="round" stroke-linejoin="round" stroke-width="57.2444"/>
<path d="M138.469 628.296C140.977 623.281 152.515 626.536 157.827 626.536C182.773 626.536 207.682 625.657 232.621 625.657" fill="none" opacity="1" stroke="#000000" stroke-linecap="round" stroke-linejoin="round" stroke-width="57.2444"/>
<path d="M801.932 513.026C805.607 505.676 818.471 512.51 826.57 513.906C837.885 515.857 849.416 516.546 860.887 516.546" fill="none" opacity="1" stroke="#000000" stroke-linecap="round" stroke-linejoin="round" stroke-width="57.2444"/>
<path d="M813.371 373.118C833.249 373.118 852.424 372.841 872.326 372.238" fill="none" opacity="1" stroke="#000000" stroke-linecap="round" stroke-linejoin="round" stroke-width="57.2444"/>
<path d="M805.452 643.255C816.781 637.59 830.627 640.113 843.288 639.735C857.364 639.315 871.492 640.025 885.525 638.855" fill="none" opacity="1" stroke="#000000" stroke-linecap="round" stroke-linejoin="round" stroke-width="57.2444"/>
</g>
</svg>
