<?xml version="1.0" encoding="UTF-8" standalone="no"?>
<!DOCTYPE svg PUBLIC "-//W3C//DTD SVG 1.1//EN" "http://www.w3.org/Graphics/SVG/1.1/DTD/svg11.dtd">
<!-- Created with Vectornator (http://vectornator.io/) -->
<svg height="100%" stroke-miterlimit="10" style="fill-rule:nonzero;clip-rule:evenodd;stroke-linecap:round;stroke-linejoin:round;" version="1.1" viewBox="0 0 1024 1024" width="100%" xml:space="preserve" xmlns="http://www.w3.org/2000/svg" xmlns:vectornator="http://vectornator.io" xmlns:xlink="http://www.w3.org/1999/xlink">
<defs/>
<g id="レイヤー-1" vectornator:layerName="レイヤー 1">
<path d="M175.002 130.983C175.002 146.212 172.435 161.348 173.447 176.68C174.768 196.69 179.374 216.764 182 236.658C185.558 263.614 185.15 290.96 185.887 318.057C188.688 420.937 180.445 523.706 180.445 626.514C180.445 680.113 178.112 733.625 178.112 787.169C178.112 803.518 179.048 820.107 178.112 836.437C178.053 837.472 175.78 867.026 175.78 854.288" fill="none" opacity="1" stroke="#000000" stroke-linecap="round" stroke-linejoin="round" stroke-width="57.2444"/>
<path d="M181.222 860C177.745 861.596 189.005 860.23 192.885 860C198.316 859.678 203.772 859.872 209.212 860C227.093 860.421 244.989 861.566 262.86 862.142C321.931 864.045 381.007 866.461 440.131 867.14C501.021 867.839 561.971 867.036 622.845 868.568C674.992 869.88 726.95 873.139 779.123 874.28C801.672 874.773 824.219 875.215 846.766 875.708C869.592 876.207 894.292 878.72 916.741 873.566" fill="none" opacity="1" stroke="#000000" stroke-linecap="round" stroke-linejoin="round" stroke-width="57.2444"/>
<path d="M367.376 537.724C366.462 536.491 363.032 534.951 364.371 534.256C365.993 533.413 372.09 534.644 373.052 535.643C375.797 538.494 369.68 540.833 367.376 537.724Z" fill="none" opacity="1" stroke="#000000" stroke-linecap="round" stroke-linejoin="round" stroke-width="57.2444"/>
<path d="M550.677 352.176C549.4 351.058 550.677 348.707 550.677 346.973C550.677 338.998 554.844 355.823 550.677 352.176Z" fill="none" opacity="1" stroke="#000000" stroke-linecap="round" stroke-linejoin="round" stroke-width="57.2444"/>
<path d="M710.272 593.909L709.604 595.296L707.601 594.602L706.933 591.828L708.936 589.747L710.272 590.44L710.272 590.44" fill="none" opacity="1" stroke="#000000" stroke-linecap="round" stroke-linejoin="round" stroke-width="57.2444"/>
<path d="M804.78 780.029C802.574 778.003 809.89 783.46 811.778 785.741C814.953 789.578 817.665 793.729 820.331 797.88C825.48 805.899 829.923 814.484 836.658 821.442C846.874 831.997 857.249 843.976 868.536 853.573C878.538 862.079 891.462 867.1 901.968 874.994C905.811 877.881 909.611 880.666 914.409 882.134C914.741 882.236 919.851 883.021 919.851 884.276C919.851 885.942 916.198 884.003 914.409 884.276C911.55 884.714 909.083 886.426 906.633 887.847C898.657 892.473 891.573 898.284 884.086 903.555C857.814 922.052 827.977 945.992 794.673 952.109" fill="none" opacity="1" stroke="#000000" stroke-linecap="round" stroke-linejoin="round" stroke-width="57.2444"/>
<path d="M100.362 228.09C103.476 222.37 108.536 217.946 112.024 212.381C119.548 200.381 126.63 188.151 133.795 175.966C139.524 166.222 145.074 156.388 150.9 146.691C159.82 131.843 168.545 115.059 182.777 138.123C185.979 143.312 188.977 148.605 192.107 153.832C194.679 158.126 197.301 162.395 199.882 166.684C206.722 178.05 212.219 190.056 218.542 201.671C226.526 216.335 237.866 229.409 244.978 244.512C247.711 250.317 249.262 256.55 251.975 262.363" fill="none" opacity="1" stroke="#000000" stroke-linecap="round" stroke-linejoin="round" stroke-width="57.2444"/>
</g>
</svg>
