<?xml version="1.0" encoding="UTF-8" standalone="no"?>
<!DOCTYPE svg PUBLIC "-//W3C//DTD SVG 1.1//EN" "http://www.w3.org/Graphics/SVG/1.1/DTD/svg11.dtd">
<!-- Created with Vectornator (http://vectornator.io/) -->
<svg stroke-miterlimit="10" style="fill-rule:nonzero;clip-rule:evenodd;stroke-linecap:round;stroke-linejoin:round;" version="1.1" viewBox="0 0 1024 1024" xml:space="preserve" xmlns="http://www.w3.org/2000/svg" xmlns:xlink="http://www.w3.org/1999/xlink">
<defs/>
<g id="レイヤー-1">
<path d="M79.1217 530.402C158.092 530.402 237.225 529.013 316.204 528.267C366.095 527.796 416.029 529.877 465.892 528.979C517.386 528.051 568.681 524.162 620.228 524.709C706.988 525.632 793.889 527.833 880.554 526.133C914.486 525.467 947.968 527.755 981.895 526.133" fill="none" opacity="1" stroke="#000000" stroke-linecap="round" stroke-linejoin="round" stroke-width="57.6278"/>
<path d="M488.116 114.628C488.116 128.408 491.235 142.644 491.609 156.679C492.587 193.266 490.37 229.905 490.736 266.479C491.131 305.966 492.557 345.386 492.92 384.846C493.143 409.162 491.642 433.016 491.173 457.268C490.169 509.157 490.641 561.195 491.609 613.013C493.56 717.337 499.908 821.631 499.908 926.062" fill="none" opacity="1" stroke="#000000" stroke-linecap="round" stroke-linejoin="round" stroke-width="57.6278"/>
<path d="M477.246 70.7466C458.971 109.488 430.149 128.4 414.305 193.069" fill="none" opacity="1" stroke="#000000" stroke-linecap="round" stroke-linejoin="round" stroke-width="57.6278"/>
<path d="M490.104 61.9845C493.405 54.9861 507.182 85.1583 511.984 91.8768C536.258 125.842 536.579 134.04 556.958 191.663" fill="none" opacity="1" stroke="#000000" stroke-linecap="round" stroke-linejoin="round" stroke-width="57.6278"/>
<path d="M885.693 447.711C885.693 452.201 903.097 464.053 905.935 467.075C930.479 493.21 954.911 506.505 992.976 519.747" fill="none" opacity="1" stroke="#000000" stroke-linecap="round" stroke-linejoin="round" stroke-width="57.6278"/>
<path d="M985.892 531.366C955.405 546.92 926.656 570.809 898.85 588.685C882.759 599.029 865.969 609.006 852.293 621.217" fill="none" opacity="1" stroke="#000000" stroke-linecap="round" stroke-linejoin="round" stroke-width="57.6278"/>
<path d="M75.5108 379.396C107.948 396.49 131.192 436.945 163.434 483.293C192.901 525.653 216.716 571.03 241.436 605.567C267.916 642.563 313.459 682.351 346.141 677.947C413.582 668.86 436.452 617.146 466.922 577.002C506.917 524.31 533.794 464.879 587.733 418.366C664.761 351.942 732.74 386.11 775.367 448.767C801.107 486.602 835.159 556.321 863.77 593.036" fill="none" opacity="1" stroke="#000000" stroke-linecap="round" stroke-linejoin="round" stroke-width="57.6278"/>
</g>
</svg>
