<?xml version="1.0" encoding="UTF-8" standalone="no"?>
<!DOCTYPE svg PUBLIC "-//W3C//DTD SVG 1.1//EN" "http://www.w3.org/Graphics/SVG/1.1/DTD/svg11.dtd">
<!-- Created with Vectornator (http://vectornator.io/) -->
<svg stroke-miterlimit="10" style="fill-rule:nonzero;clip-rule:evenodd;stroke-linecap:round;stroke-linejoin:round;" version="1.1" viewBox="0 0 1024 1024" xml:space="preserve" xmlns="http://www.w3.org/2000/svg" xmlns:xlink="http://www.w3.org/1999/xlink">
<defs/>
<g id="レイヤー-1">
<path d="M424.846 950.571C397.4 942.617 369.282 944.978 341.921 935.11C311.254 924.05 281.938 903.359 255.717 884.512C179.627 829.823 135.412 754.789 105.797 667.128C64.266 544.197 66.7225 418.199 134.844 305.446C156.158 270.168 187.779 243.03 220.111 218.305C284.391 169.15 356.237 141.039 436.558 130.227C494.113 122.479 545.608 128.01 601.47 143.345C674.693 163.445 746.603 209.598 797.303 266.092C820.637 292.093 838.538 322.424 856.334 352.296C867.758 371.471 882.308 392.626 889.129 414.138C917.205 502.685 920.646 599.54 896.625 689.616C886.937 725.948 874.301 771.525 851.649 802.056C812.257 855.15 760.002 901.294 699.855 929.488C680.417 938.6 658.502 940.663 638.013 946.354C563.231 967.127 501.724 972.85 424.846 950.571Z" fill="none" opacity="1" stroke="#000000" stroke-linecap="round" stroke-linejoin="round" stroke-width="57.6278"/>
<path d="M154.521 688.679C183.06 688.679 211.219 689.012 239.788 687.742C270.913 686.359 301.335 679.91 332.551 679.309C424.989 677.532 517.489 676.218 609.903 674.624C672.071 673.552 733.542 676.341 795.429 669.939C815.487 667.864 840.078 669.736 859.145 663.38" fill="none" opacity="1" stroke="#000000" stroke-linecap="round" stroke-linejoin="round" stroke-width="57.6278"/>
<path d="M631.454 165.833C633.354 162.033 624.231 170.407 621.147 173.329C617.299 176.974 613.651 180.825 609.903 184.573C596.198 198.278 582.863 212.592 568.675 225.801C532.128 259.828 497.156 294.509 461.857 329.808C414.096 377.569 367.061 426.13 313.811 467.547C302.872 476.055 294.577 488.655 284.764 498.468C259.562 523.67 233.012 547.289 209.804 574.365C201.464 584.095 194.809 595.732 186.379 605.286C170.55 623.226 151.911 636.843 138.592 656.821" fill="none" opacity="1" stroke="#000000" stroke-linecap="round" stroke-linejoin="round" stroke-width="57.6278"/>
<path d="M633.328 180.825C630.651 186.18 644.201 200.321 646.446 204.25C649.427 209.466 652.081 214.863 654.879 220.179C671.169 251.13 688.797 281.279 705.477 312.005C768.684 428.439 828.701 545.99 892.877 661.506" fill="none" opacity="1" stroke="#000000" stroke-linecap="round" stroke-linejoin="round" stroke-width="57.6278"/>
<path d="M502.148 531.263C489.572 539.524 489.869 515.314 499.337 517.208C509.453 519.231 510.625 540.459 498.4 541.57C485.807 542.715 490.569 515.67 495.589 510.649C508.479 497.759 514.511 523.142 502.148 531.263Z" fill="none" opacity="1" stroke="#000000" stroke-linecap="round" stroke-linejoin="round" stroke-width="57.6278"/>
</g>
</svg>
