<?xml version="1.0" encoding="UTF-8" standalone="no"?>
<!DOCTYPE svg PUBLIC "-//W3C//DTD SVG 1.1//EN" "http://www.w3.org/Graphics/SVG/1.1/DTD/svg11.dtd">
<!-- Created with Vectornator (http://vectornator.io/) -->
<svg stroke-miterlimit="10" style="fill-rule:nonzero;clip-rule:evenodd;stroke-linecap:round;stroke-linejoin:round;" version="1.1" viewBox="0 0 1024 1024" xml:space="preserve" xmlns="http://www.w3.org/2000/svg" xmlns:xlink="http://www.w3.org/1999/xlink">
<defs/>
<g id="レイヤー-1">
<path d="M152.578 713.806C159.366 707.018 171.428 703.657 179.068 698.795C190.502 691.519 201.372 683.393 212.623 675.837C243.204 655.297 273.238 634.049 303.572 613.143C336.823 590.227 370.09 567.541 402.469 543.386C456.051 503.412 507.522 457.749 564.942 423.297C625.571 386.92 687.244 352.993 747.725 316.453C772.648 301.395 797.95 286.017 820.132 267.004" fill="none" opacity="1" stroke="#000000" stroke-linecap="round" stroke-linejoin="round" stroke-width="57.6278"/>
<path d="M833.377 269.653C829.901 280.081 833.908 297.951 834.26 307.623C835.285 335.818 833.159 363.383 836.909 391.508C838.923 406.618 843.535 421.356 844.856 436.542C847.127 462.661 842.221 491.961 840.441 517.778C838.679 543.316 840.475 569.104 837.792 594.6C836.324 608.547 832.614 622.048 831.611 636.101C829.412 666.883 835.685 697.337 836.909 727.934C837.292 737.511 835.143 746.009 835.143 755.307" fill="none" opacity="1" stroke="#000000" stroke-linecap="round" stroke-linejoin="round" stroke-width="57.6278"/>
<path d="M154.344 718.221C163.541 713.622 197.501 726.327 211.74 725.285C262.234 721.59 310.442 720.742 360.968 721.753C440.718 723.348 520.518 725.719 600.263 727.934C632.561 728.831 666.145 727.789 698.277 730.583C727.799 733.15 758.099 732.358 787.46 735.881C796.365 736.95 804.818 739.413 813.95 739.413" fill="none" opacity="1" stroke="#000000" stroke-linecap="round" stroke-linejoin="round" stroke-width="57.6278"/>
<path d="M722.118 727.051C719.806 728.207 723.791 714.638 723.884 712.04C724.052 707.324 723.139 702.628 723.001 697.912C722.461 679.556 724.722 663.699 728.299 645.814C729.269 640.962 734.017 622.856 726.533 622.856" fill="none" opacity="1" stroke="#000000" stroke-linecap="round" stroke-linejoin="round" stroke-width="57.6278"/>
<path d="M730.065 614.909C758.652 614.909 787.447 611.377 815.716 611.377" fill="none" opacity="1" stroke="#000000" stroke-linecap="round" stroke-linejoin="round" stroke-width="57.6278"/>
<path d="M343.308 603.43C342.905 603.229 338.36 601.047 338.893 600.781C349.142 595.656 379.942 627.44 384.809 633.452C385.889 634.786 387.219 636.168 387.458 637.867C389.595 653.094 392.924 668.444 391.873 683.784C391.295 692.229 381.238 704.809 375.979 712.04" fill="none" opacity="1" stroke="#000000" stroke-linecap="round" stroke-linejoin="round" stroke-width="57.6278"/>
</g>
</svg>
