<?xml version="1.0" encoding="UTF-8" standalone="no"?>
<!DOCTYPE svg PUBLIC "-//W3C//DTD SVG 1.1//EN" "http://www.w3.org/Graphics/SVG/1.1/DTD/svg11.dtd">
<!-- Created with Vectornator (http://vectornator.io/) -->
<svg stroke-miterlimit="10" style="fill-rule:nonzero;clip-rule:evenodd;stroke-linecap:round;stroke-linejoin:round;" version="1.1" viewBox="0 0 1024 1024" xml:space="preserve" xmlns="http://www.w3.org/2000/svg" xmlns:xlink="http://www.w3.org/1999/xlink">
<defs/>
<g id="レイヤー-1">
<path d="M93.6099 679.476C90.2571 672.771 138.167 677.134 143.009 677.281C152.884 677.58 162.77 677.091 172.648 677.281C181.802 677.457 190.94 678.131 200.092 678.379C265.587 680.149 330.829 672.003 396.591 675.085C509.926 680.398 625.548 686.712 739.09 680.574C779.086 678.412 831.7 669.457 870.821 677.281C886.079 680.332 907.276 676.846 921.318 683.867" fill="none" opacity="1" stroke="#000000" stroke-linecap="round" stroke-linejoin="round" stroke-width="57.6278"/>
<path d="M264.86 94.3724C264.86 149.167 263.093 204.275 264.86 259.036C265.633 283.016 270.674 306.436 271.446 330.39C272.994 378.364 267.478 426.322 269.251 474.196C271.538 535.95 274.639 597.131 280.228 658.619C284.272 703.103 276.506 749.257 282.424 793.643C284.67 810.486 289.999 827.239 291.206 844.14C293.772 880.06 283.979 922.354 295.597 957.209" fill="none" opacity="1" stroke="#000000" stroke-linecap="round" stroke-linejoin="round" stroke-width="57.6278"/>
<path d="M414.704 771.139C415.902 769.686 418.674 770.01 419.643 768.395C421.563 765.195 412.375 770.178 408.666 770.59C404.665 771.035 400.609 770.354 396.591 770.59C387.188 771.143 377.277 772.009 368.049 769.492C338.689 761.485 312.621 746.554 286.815 731.071C220.395 691.219 195.306 603.304 193.506 531.279C192.759 501.403 198.807 475.389 209.972 447.85C233.239 390.458 277.916 340.854 338.409 322.706C358.621 316.642 379.218 316.9 399.884 315.021C448.769 310.577 490.613 308.365 539.299 317.217C607.118 329.548 651.292 394.968 667.736 456.632C672.389 474.079 678.894 492.78 682.007 510.422C684.275 523.274 682.334 536.839 683.105 549.941C687.525 625.089 669.678 706.357 602.969 750.831C560.684 779.021 502.962 785.713 453.674 780.47C445.595 779.61 437.589 778.154 429.523 777.177C423.66 776.466 408.383 778.804 414.704 771.139Z" fill="none" opacity="1" stroke="#000000" stroke-linecap="round" stroke-linejoin="round" stroke-width="57.6278"/>
<path d="M341.703 96.5679C353.196 108.062 360.871 128.535 370.244 141.576C400.411 183.547 427.841 226.615 455.869 270.013C542.765 404.562 627.298 540.273 717.135 672.89C729.654 691.369 739.235 711.933 752.264 729.973C761.759 743.121 773.719 754.258 781.903 768.395C798.607 797.247 811.958 822.601 835.693 846.335" fill="none" opacity="1" stroke="#000000" stroke-linecap="round" stroke-linejoin="round" stroke-width="57.6278"/>
<path d="M867.528 609.22C882.395 616.654 889.679 639.055 901.558 650.935C909.712 659.089 914.014 662.482 920.22 671.792C926.891 681.799 932.767 701.431 947.664 701.431C950.791 701.431 941.383 702.849 938.882 704.725C932.402 709.585 924.839 711.246 916.927 713.507C897.261 719.126 872.382 727.526 859.844 744.244" fill="none" opacity="1" stroke="#000000" stroke-linecap="round" stroke-linejoin="round" stroke-width="57.6278"/>
<path d="M204.483 194.268C204.483 182.851 221.557 166.098 226.438 155.847C234.432 139.06 245.875 123.559 253.882 107.545C254.744 105.821 257.473 91.0791 260.469 91.0791C261.287 91.0791 261.263 92.5149 261.567 93.2746C266.748 106.228 281.055 113.348 287.913 126.207C306.878 161.768 325.249 194.317 335.116 233.787" fill="none" opacity="1" stroke="#000000" stroke-linecap="round" stroke-linejoin="round" stroke-width="57.6278"/>
</g>
</svg>
