<?xml version="1.0" encoding="UTF-8" standalone="no"?>
<!DOCTYPE svg PUBLIC "-//W3C//DTD SVG 1.1//EN" "http://www.w3.org/Graphics/SVG/1.1/DTD/svg11.dtd">
<!-- Created with Vectornator (http://vectornator.io/) -->
<svg stroke-miterlimit="10" style="fill-rule:nonzero;clip-rule:evenodd;stroke-linecap:round;stroke-linejoin:round;" version="1.1" viewBox="0 0 1024 1024" xml:space="preserve" xmlns="http://www.w3.org/2000/svg" xmlns:xlink="http://www.w3.org/1999/xlink">
<defs/>
<g id="レイヤー-1">
<path d="M413.068 284.275C410.017 280.822 402.62 288.166 401.564 288.869C396.806 292.036 392.108 295.643 387.352 298.824C379.136 304.322 370.836 309.172 362.651 314.905C345.325 327.042 322.174 344.597 306.82 365.446C299.23 375.752 289.171 379.828 281.104 388.419C259.042 411.915 237.281 437.241 215.46 461.933" fill="none" opacity="1" stroke="#000000" stroke-linecap="round" stroke-linejoin="round" stroke-width="57.6278"/>
<path d="M387.014 716.167C387.212 717.066 388.873 721.001 387.352 718.465C385.409 715.224 383.535 711.776 381.6 708.51C376.429 699.779 371.33 690.815 366.035 682.474C355.112 665.267 343.67 649.641 331.859 635.762C292.431 589.43 255.065 534.045 216.475 484.14" fill="none" opacity="1" stroke="#000000" stroke-linecap="round" stroke-linejoin="round" stroke-width="57.6278"/>
<path d="M762.115 123.01C756.116 123.01 746.604 128.009 740.673 129.902C719.755 136.578 698.66 142.716 677.881 149.812C630.984 165.825 588.015 191.299 543.871 213.37C518.876 225.868 493.578 234.798 469.592 249.361C457.033 256.987 429.91 263.636 422.88 277.695" fill="none" opacity="1" stroke="#000000" stroke-linecap="round" stroke-linejoin="round" stroke-width="57.6278"/>
<path d="M791.98 348.145C792.767 348.539 796.497 350.598 795.809 351.974C794.532 354.527 790.2 350.912 787.385 350.443C780.667 349.323 774.13 347.3 767.475 345.848C759.356 344.077 751.144 342.759 742.971 341.253C731.744 339.185 720.504 337.192 709.277 335.127C635.364 321.534 563.658 308.006 488.736 301.434C483.02 300.932 442.79 293.96 442.79 300.668" fill="none" opacity="1" stroke="#000000" stroke-linecap="round" stroke-linejoin="round" stroke-width="57.6278"/>
<path d="M757.52 586.299C761.604 586.299 757.52 586.299 757.52 586.299C749.845 587.738 742.171 589.199 734.547 590.893C716.898 594.816 699.203 598.577 681.709 603.146C664.985 607.514 648.483 612.7 631.935 617.695C586.82 631.315 544.615 650.785 500.988 668.236C470.232 680.538 437.091 689.754 407.565 704.993C397.998 709.931 389.573 716.286 379.997 721.074" fill="none" opacity="1" stroke="#000000" stroke-linecap="round" stroke-linejoin="round" stroke-width="57.6278"/>
<path d="M760.583 744.813C736.675 744.813 712.03 740.775 688.601 739.452C619.399 735.546 549.614 737.314 480.313 735.623C451.541 734.922 418.116 727.001 389.952 736.389" fill="none" opacity="1" stroke="#000000" stroke-linecap="round" stroke-linejoin="round" stroke-width="57.6278"/>
<path d="M768.241 913.281C768.898 913.281 773.601 912.99 773.601 914.047C773.601 915.052 761.042 910.322 757.52 908.687C744.965 902.857 731.99 897.977 719.232 892.606C691.527 880.94 663.4 869.938 635.763 858.146C611.829 847.934 586.787 840.316 563.016 829.813C550.902 824.46 539.83 816.952 527.79 811.434C511.359 803.903 493.445 799.224 476.484 793.056C452.066 784.177 429.789 770.279 404.502 763.957" fill="none" opacity="1" stroke="#000000" stroke-linecap="round" stroke-linejoin="round" stroke-width="57.6278"/>
</g>
</svg>
