<?xml version="1.0" encoding="UTF-8" standalone="no"?>
<!DOCTYPE svg PUBLIC "-//W3C//DTD SVG 1.1//EN" "http://www.w3.org/Graphics/SVG/1.1/DTD/svg11.dtd">
<!-- Created with Vectornator (http://vectornator.io/) -->
<svg stroke-miterlimit="10" style="fill-rule:nonzero;clip-rule:evenodd;stroke-linecap:round;stroke-linejoin:round;" version="1.1" viewBox="0 0 1024 1024" xml:space="preserve" xmlns="http://www.w3.org/2000/svg" xmlns:xlink="http://www.w3.org/1999/xlink">
<defs/>
<g id="レイヤー-1">
<path d="M132.363 280.892C121.503 302.612 129.58 329.39 129.104 353.669C128.756 371.411 128.211 389.149 128.018 406.894C127.222 480.138 131.528 552.227 133.449 625.224C134.338 658.989 130.848 692.435 133.449 726.243C135.652 754.885 138.88 784.431 138.88 813.14C138.88 817.067 136.058 840.296 145.397 840.296" fill="none" opacity="1" stroke="#000000" stroke-linecap="round" stroke-linejoin="round" stroke-width="57.6278"/>
<path d="M653.285 262.87C601.02 262.87 548.965 252.483 496.86 249.463C418.512 244.921 339.48 248.35 261.106 246.111C231.152 245.255 198.087 242.982 168.368 247.228C155.165 249.114 145.16 255.547 131.496 252.815" fill="none" opacity="1" stroke="#000000" stroke-linecap="round" stroke-linejoin="round" stroke-width="57.6278"/>
<path d="M678.983 849.463C646.135 849.463 613.657 845.64 580.659 846.111C435.933 848.179 291.888 862.871 147.139 862.871" fill="none" opacity="1" stroke="#000000" stroke-linecap="round" stroke-linejoin="round" stroke-width="57.6278"/>
<path d="M672.279 266.222C668.268 266.222 679.576 262.787 683.452 261.753C689.94 260.023 696.865 260.189 703.564 260.636C712.398 261.225 724.905 264.398 733.732 267.34" fill="none" opacity="1" stroke="#000000" stroke-linecap="round" stroke-linejoin="round" stroke-width="57.6278"/>
<path d="M730.38 268.457C721.921 302.29 732.145 341.008 732.614 375.72C733.175 417.245 733.532 458.264 734.849 499.742C736.987 567.105 731.557 634.578 733.732 701.977C734.782 734.527 743.152 768.832 739.318 801.418C737.898 813.494 734.849 824.778 734.849 837.173" fill="none" opacity="1" stroke="#000000" stroke-linecap="round" stroke-linejoin="round" stroke-width="57.6278"/>
<path d="M138.2 237.172C173.872 213.391 206.551 183.994 242.111 160.077C284.788 131.374 341.492 118.208 387.363 95.2725" fill="none" opacity="1" stroke="#000000" stroke-linecap="round" stroke-linejoin="round" stroke-width="57.6278"/>
<path d="M419.765 82.982C429.953 77.8878 446.72 81.2105 455.519 80.7474C496.549 78.5879 536.139 78.9323 577.307 79.6301C614.031 80.2525 651.496 74.7733 687.922 79.6301C709.787 82.5455 730.768 90.5981 752.726 93.0379C783.829 96.4938 814.211 87.456 845.464 91.9206" fill="none" opacity="1" stroke="#000000" stroke-linecap="round" stroke-linejoin="round" stroke-width="57.6278"/>
<path d="M845.464 96.3899C836.567 96.3899 833.449 115.053 827.586 122.088C821.144 129.819 815.377 138.121 808.592 145.552C770.553 187.214 732.058 225.251 697.977 270.692" fill="none" opacity="1" stroke="#000000" stroke-linecap="round" stroke-linejoin="round" stroke-width="57.6278"/>
<path d="M854.402 109.798C857.494 103.615 857.652 130.66 857.754 132.144C858.242 139.213 858.564 146.294 858.871 153.373C859.601 170.154 861.087 186.894 862.223 203.653C864.828 242.071 868.407 280.26 870.045 318.736C873.123 391.085 876.898 464.515 883.452 536.614C888.249 589.371 899.095 642.159 899.095 695.273" fill="none" opacity="1" stroke="#000000" stroke-linecap="round" stroke-linejoin="round" stroke-width="57.6278"/>
<path d="M891.274 676.279C891.274 670.273 885.559 686.855 882.335 691.921C871.732 708.583 857.256 724.218 844.346 738.849C813.45 773.864 775.029 810.014 735.966 836.055" fill="none" opacity="1" stroke="#000000" stroke-linecap="round" stroke-linejoin="round" stroke-width="57.6278"/>
<path d="M430.938 603.653C410.376 613.934 368.368 594.278 368.368 570.133C368.368 558.954 367.867 547.675 369.486 536.614C373.238 510.974 409.484 483.131 435.407 487.452C469.097 493.067 492.056 550.282 462.223 573.485C458.178 576.632 442.913 593.844 435.407 592.48C404.192 586.804 398.674 547.876 425.351 531.027C439.252 522.248 471.988 587.973 439.877 570.133" fill="none" opacity="1" stroke="#000000" stroke-linecap="round" stroke-linejoin="round" stroke-width="57.6278"/>
<path d="M359.43 175.72C378.488 166.19 402.772 176.542 422 170.133" fill="none" opacity="1" stroke="#000000" stroke-linecap="round" stroke-linejoin="round" stroke-width="57.6278"/>
<path d="M595.184 156.725C621.579 156.725 647.485 149.871 673.396 145.552" fill="none" opacity="1" stroke="#000000" stroke-linecap="round" stroke-linejoin="round" stroke-width="57.6278"/>
<path d="M813.061 255.049C804.672 271.828 806.344 291.711 807.475 309.798" fill="none" opacity="1" stroke="#000000" stroke-linecap="round" stroke-linejoin="round" stroke-width="57.6278"/>
<path d="M803.005 407.005C800.469 422.224 801.888 440.142 801.888 455.049" fill="none" opacity="1" stroke="#000000" stroke-linecap="round" stroke-linejoin="round" stroke-width="57.6278"/>
<path d="M798.536 573.485C794.46 581.637 796.906 592.653 796.302 601.418C794.652 625.34 792.647 649.313 788.48 672.927" fill="none" opacity="1" stroke="#000000" stroke-linecap="round" stroke-linejoin="round" stroke-width="57.6278"/>
</g>
</svg>
