<?xml version="1.0" encoding="UTF-8" standalone="no"?>
<!DOCTYPE svg PUBLIC "-//W3C//DTD SVG 1.1//EN" "http://www.w3.org/Graphics/SVG/1.1/DTD/svg11.dtd">
<!-- Created with Vectornator (http://vectornator.io/) -->
<svg stroke-miterlimit="10" style="fill-rule:nonzero;clip-rule:evenodd;stroke-linecap:round;stroke-linejoin:round;" version="1.1" viewBox="0 0 1024 1024" xml:space="preserve" xmlns="http://www.w3.org/2000/svg" xmlns:xlink="http://www.w3.org/1999/xlink">
<defs/>
<g id="レイヤー-1">
<path d="M191.874 721.021C181.287 740.137 231.508 763.294 241.874 771.984C249.452 778.336 249.769 789.565 256.39 796.737C257.809 798.274 257.522 792.866 258.003 790.913C259.706 783.993 260.477 779.451 261.229 771.984C262.449 759.861 262.695 747.651 264.454 735.582C268.657 706.75 276.934 678.665 280.583 649.674C291.998 558.99 300.098 466.918 308.002 375.933C311.226 338.823 314.321 307.209 298.325 272.552C297.839 271.5 288.568 244.959 283.809 249.255C282.616 250.332 284.661 254.565 285.422 255.08C295.34 261.795 316.274 261.714 327.357 262.36C374.079 265.081 420.937 262.334 467.678 260.904C548.831 258.42 630.029 256.158 711.224 255.08C743.144 254.656 775.246 255.332 806.385 262.36" fill="none" opacity="1" stroke="#000000" stroke-linecap="round" stroke-linejoin="round" stroke-width="57.6278"/>
<path d="M669.112 472.818C675.447 453.815 682.852 434.902 679.155 414.106C669.513 359.867 588.549 372.561 554.005 387.84C455.442 431.435 418.211 573.828 414.95 670.586C414.209 692.559 409.758 728.347 424.22 747.839C448.542 780.621 488.589 738.373 504.563 721.573C553.384 670.227 588.932 609.188 623.533 547.754C636.415 524.882 650.544 499.959 657.524 474.363C659.154 468.389 660.242 457.889 660.614 451.187C660.7 449.645 661.707 445.46 660.614 446.552C657.941 449.226 653.387 468.776 652.889 470.501C650.739 477.943 648.691 485.415 646.709 492.904C644.056 502.927 641.286 512.924 638.984 523.033C628.896 567.33 619.792 612.677 618.125 658.226C617.411 677.752 617.834 689.12 625.85 706.895C633.794 724.509 661.367 751.57 676.838 763.29C680.422 766.006 684.702 768.816 689.198 768.698C710.764 768.13 725.026 745.23 738.64 731.616" fill="none" opacity="1" stroke="#000000" stroke-linecap="round" stroke-linejoin="round" stroke-width="57.6278"/>
</g>
</svg>
