<?xml version="1.0" encoding="UTF-8" standalone="no"?>
<!DOCTYPE svg PUBLIC "-//W3C//DTD SVG 1.1//EN" "http://www.w3.org/Graphics/SVG/1.1/DTD/svg11.dtd">
<!-- Created with Vectornator (http://vectornator.io/) -->
<svg stroke-miterlimit="10" style="fill-rule:nonzero;clip-rule:evenodd;stroke-linecap:round;stroke-linejoin:round;" version="1.1" viewBox="0 0 1024 1024" xml:space="preserve" xmlns="http://www.w3.org/2000/svg" xmlns:xlink="http://www.w3.org/1999/xlink">
<defs/>
<g id="レイヤー-1">
<path d="M154.008 795.846C147.555 795.846 174.659 791.724 176.186 791.581C186.119 790.649 200.778 788.766 210.307 787.315C249.79 781.307 289.074 771.373 328.024 762.578C372.144 752.615 416.463 742.72 461.095 735.281C518.136 725.774 577.389 721.136 633.405 707.132" fill="none" opacity="1" stroke="#000000" stroke-linecap="round" stroke-linejoin="round" stroke-width="57.6278"/>
<path d="M553.221 659.363C546.423 652.565 569.941 669.367 570.281 669.599C574.655 672.573 578.591 676.179 583.077 678.982C600.612 689.942 620.207 697.974 638.523 707.132" fill="none" opacity="1" stroke="#000000" stroke-linecap="round" stroke-linejoin="round" stroke-width="57.6278"/>
<path d="M638.523 710.544C634.602 712.504 632.599 717.142 629.14 719.927C619.037 728.058 608.893 736.149 598.431 743.811C576.852 759.616 555.15 773.542 535.307 791.581" fill="none" opacity="1" stroke="#000000" stroke-linecap="round" stroke-linejoin="round" stroke-width="57.6278"/>
<path d="M148.037 782.197C141.674 775.834 156.191 763.363 159.979 758.313C169.637 745.435 178.617 732.061 188.129 719.074C209.841 689.428 232.604 660.793 255.517 632.066C387.918 466.071 521.413 298.782 671.791 148.404" fill="none" opacity="1" stroke="#000000" stroke-linecap="round" stroke-linejoin="round" stroke-width="57.6278"/>
<path d="M581.37 168.024C575.277 168.024 570.347 171.436 579.664 171.436C588.118 171.436 595.873 166.448 603.549 162.905C611.523 159.225 619.001 154.547 626.58 150.11C639.969 142.273 652.156 133.327 664.966 124.52C667.699 122.641 671.152 117.057 673.497 119.402C675.547 121.452 672.359 125.088 671.791 127.932C669.831 137.728 668.4 147.853 666.672 157.787C658.68 203.743 647.151 248.8 636.817 294.27" fill="none" opacity="1" stroke="#000000" stroke-linecap="round" stroke-linejoin="round" stroke-width="57.6278"/>
</g>
</svg>
