<?xml version="1.0" encoding="UTF-8" standalone="no"?>
<!DOCTYPE svg PUBLIC "-//W3C//DTD SVG 1.1//EN" "http://www.w3.org/Graphics/SVG/1.1/DTD/svg11.dtd">
<!-- Created with Vectornator (http://vectornator.io/) -->
<svg stroke-miterlimit="10" style="fill-rule:nonzero;clip-rule:evenodd;stroke-linecap:round;stroke-linejoin:round;" version="1.1" viewBox="0 0 1024 1024" xml:space="preserve" xmlns="http://www.w3.org/2000/svg" xmlns:xlink="http://www.w3.org/1999/xlink">
<defs/>
<g id="レイヤー-1">
<path d="M50.4372 196.725C86.366 196.725 122.036 193.714 157.988 195.829C193.409 197.912 229.254 205.117 264.642 205.688C309.303 206.408 353.511 199.339 398.185 200.31C417.323 200.726 435.511 206.232 454.649 207.48C488.883 209.713 522.663 209.273 556.822 209.273" fill="none" opacity="1" stroke="#000000" stroke-linecap="round" stroke-linejoin="round" stroke-width="57.6278"/>
<path d="M59.3997 332.06C59.3997 336.363 83.0217 340.713 94.3537 341.918C114.026 344.011 133.883 342.321 153.507 345.503C170.549 348.267 169.663 350.61 187.564 351.777C222.097 354.029 256.872 347.851 291.53 349.089C383.981 352.39 479.805 366.464 571.162 348.192" fill="none" opacity="1" stroke="#000000" stroke-linecap="round" stroke-linejoin="round" stroke-width="57.6278"/>
<path d="M426.865 474.564C413.989 468.127 446.137 481.604 451.064 483.527C467.97 490.124 484.962 496.526 502.15 502.348C537.904 514.459 571.049 526.773 604.324 544.472C639.568 563.219 679.479 571.841 717.252 583.908C781.649 604.479 840.609 635.771 900.088 667.259C915.727 675.539 934.155 679.429 948.486 689.666" fill="none" opacity="1" stroke="#000000" stroke-linecap="round" stroke-linejoin="round" stroke-width="57.6278"/>
<path d="M935.042 695.94C938.247 702.349 907.376 711.382 903.673 712.969C874.007 725.683 846.584 741.968 818.529 757.781C732.057 806.52 639.596 848.72 548.756 888.635C506.087 907.383 460.352 923.426 418.798 944.203" fill="none" opacity="1" stroke="#000000" stroke-linecap="round" stroke-linejoin="round" stroke-width="57.6278"/>
</g>
</svg>
