<?xml version="1.0" encoding="UTF-8" standalone="no"?>
<!DOCTYPE svg PUBLIC "-//W3C//DTD SVG 1.1//EN" "http://www.w3.org/Graphics/SVG/1.1/DTD/svg11.dtd">
<!-- Created with Vectornator (http://vectornator.io/) -->
<svg stroke-miterlimit="10" style="fill-rule:nonzero;clip-rule:evenodd;stroke-linecap:round;stroke-linejoin:round;" version="1.1" viewBox="0 0 1024 1024" xml:space="preserve" xmlns="http://www.w3.org/2000/svg" xmlns:xlink="http://www.w3.org/1999/xlink">
<defs/>
<g id="レイヤー-1">
<path d="M143.225 415.321C117.7 428.084 110.598 468.205 102.225 493.321C81.5819 555.252 79.182 631.502 104.225 692.321C114.734 717.842 121.626 746.022 148.225 759.321" fill="none" opacity="1" stroke="#000000" stroke-linecap="round" stroke-linejoin="round" stroke-width="57.6278"/>
<path d="M330.225 560.321C337.588 545.596 342.95 532.712 342.225 515.321C341.164 489.859 320.3 461.246 293.225 472.321C234.273 496.438 193.028 569.49 188.225 630.321C187.266 642.477 181.043 676.846 193.225 686.321C203.772 694.524 218.348 696.806 231.225 697.321C283.161 699.399 302.819 629.036 320.225 591.321C327.865 574.77 328.027 575.915 334.225 557.321C336.426 550.718 340.225 537.321 340.225 537.321C340.225 537.321 332.709 557.077 330.225 567.321C326.452 582.888 322.947 598.537 320.225 614.321C317.267 631.481 312.954 649.057 315.225 666.321C316.961 679.511 341.189 718.18 352.225 725.321C360.641 730.767 365.68 725.094 373.225 721.321" fill="none" opacity="1" stroke="#000000" stroke-linecap="round" stroke-linejoin="round" stroke-width="57.6278"/>
<path d="M442.225 595.321C469.501 595.321 497.134 593.541 524.225 597.321C537.976 599.24 550.485 608.321 563.225 608.321" fill="none" opacity="1" stroke="#000000" stroke-linecap="round" stroke-linejoin="round" stroke-width="57.6278"/>
<path d="M509.225 519.321C500.82 527.727 504.536 561.839 504.225 571.321C503.002 608.636 497.93 647.253 503.225 684.321" fill="none" opacity="1" stroke="#000000" stroke-linecap="round" stroke-linejoin="round" stroke-width="57.6278"/>
<path d="M659.225 385.321C670.635 430.961 659.378 489.659 658.225 536.321C656.56 603.789 672.051 676.846 650.225 742.321" fill="none" opacity="1" stroke="#000000" stroke-linecap="round" stroke-linejoin="round" stroke-width="57.6278"/>
<path d="M654.225 547.321C654.225 537.428 668.131 527.851 676.225 525.321C710.839 514.504 725.467 519.077 757.225 534.321C777.778 544.187 780.32 567.98 783.225 588.321C790.041 636.031 778.759 676.704 740.225 708.321C726.681 719.434 697.671 739.618 679.225 727.321" fill="none" opacity="1" stroke="#000000" stroke-linecap="round" stroke-linejoin="round" stroke-width="57.6278"/>
<path d="M835.225 384.321C837.967 389.804 857.12 398.455 860.225 401.321C869.783 410.144 878.36 425.888 883.225 437.321C915.289 512.672 918.369 597.211 895.225 675.321C887.594 701.079 875.866 734.681 856.225 754.321" fill="none" opacity="1" stroke="#000000" stroke-linecap="round" stroke-linejoin="round" stroke-width="57.6278"/>
<path d="M853.225 201.321C848.726 187.822 863.398 176.486 874.225 172.321C896.07 163.92 918.949 182.974 924.225 202.321C932.272 231.824 898.925 270.132 877.225 285.321C873.196 288.142 843.651 302.449 842.225 295.321C840.925 288.821 861.88 280.948 867.225 285.321C876.226 292.685 879.484 305.015 889.225 312.321C910.705 328.431 950.057 316.269 963.225 294.321" fill="none" opacity="1" stroke="#000000" stroke-linecap="round" stroke-linejoin="round" stroke-width="57.6278"/>
</g>
</svg>
