<?xml version="1.0" encoding="UTF-8" standalone="no"?>
<!DOCTYPE svg PUBLIC "-//W3C//DTD SVG 1.1//EN" "http://www.w3.org/Graphics/SVG/1.1/DTD/svg11.dtd">
<!-- Created with Vectornator (http://vectornator.io/) -->
<svg stroke-miterlimit="10" style="fill-rule:nonzero;clip-rule:evenodd;stroke-linecap:round;stroke-linejoin:round;" version="1.1" viewBox="0 0 1024 1024" xml:space="preserve" xmlns="http://www.w3.org/2000/svg" xmlns:xlink="http://www.w3.org/1999/xlink">
<defs/>
<g id="レイヤー-1">
<path d="M512.714 86.623C512.714 91.2195 508.512 94.8051 506.177 98.7644C501.077 107.412 496.093 116.13 491.233 124.915C473.82 156.393 458.809 189.009 440.8 220.179C400.394 290.111 350.057 352.175 302.574 417.244C279.339 449.085 259.488 483.665 237.197 516.243C208.238 558.568 176.82 598.176 146.603 639.526C134.7 655.814 123.648 671.958 112.981 689.026C112.014 690.571 98.3092 709.963 100.839 704.903" fill="none" opacity="1" stroke="#000000" stroke-linecap="round" stroke-linejoin="round" stroke-width="57.6278"/>
<path d="M524.856 93.1607C523.852 92.6587 521.923 90.7137 522.988 90.3588C526.643 89.1404 542.816 114.388 543.535 115.576C553.225 131.585 560.012 147.566 568.752 164.141C593.409 210.904 618.533 256.943 647.204 301.433C707.29 394.67 762.187 492.709 813.449 590.96C838.661 639.284 870.273 684.062 894.703 732.922" fill="none" opacity="1" stroke="#000000" stroke-linecap="round" stroke-linejoin="round" stroke-width="57.6278"/>
<path d="M100.839 726.384C88.757 726.384 98.6129 742.448 101.773 747.865C113.368 767.742 125.775 787.3 142.867 802.968C193.745 849.607 261.914 887.127 327.791 907.572C452.566 946.295 599.005 963.863 725.657 925.317C741.493 920.497 757.863 916.544 773.289 910.374C782.237 906.794 788.555 898.536 796.638 893.562C808.776 886.093 823.638 883.373 833.996 873.015C840.205 866.806 845.433 855.451 850.807 848.732C854.871 843.652 862.119 841.198 864.816 834.723C873.803 813.155 879.395 790.622 890.033 769.346" fill="none" opacity="1" stroke="#000000" stroke-linecap="round" stroke-linejoin="round" stroke-width="57.6278"/>
<path d="M421.187 300.499C427.582 313.29 434.741 329.844 450.139 334.122C459.906 336.835 470.382 335.577 480.026 338.792C503.78 346.71 523.37 345.702 548.205 344.395C579.416 342.753 617.318 334.975 617.318 295.829" fill="none" opacity="1" stroke="#000000" stroke-linecap="round" stroke-linejoin="round" stroke-width="57.6278"/>
<path d="M672.421 386.423C679.217 389.821 679.845 407.418 681.761 414.442C693.172 456.282 657.584 493.723 630.393 520.913C540.58 610.726 445.185 634.856 320.319 634.856C282.269 634.856 231.021 637.887 220.386 590.026" fill="none" opacity="1" stroke="#000000" stroke-linecap="round" stroke-linejoin="round" stroke-width="57.6278"/>
<path d="M777.958 554.536C801.901 566.507 791.713 642.415 786.364 663.809C775.286 708.122 749.438 747.004 725.657 785.223C690.979 840.955 651.729 890.483 600.506 931.855" fill="none" opacity="1" stroke="#000000" stroke-linecap="round" stroke-linejoin="round" stroke-width="57.6278"/>
<path d="M497.771 238.858C507.242 234.123 523.98 229.849 534.195 233.254" fill="none" opacity="1" stroke="#000000" stroke-linecap="round" stroke-linejoin="round" stroke-width="57.6278"/>
<path d="M338.998 463.942C348.868 459.007 357.81 452.674 367.951 448.065" fill="none" opacity="1" stroke="#000000" stroke-linecap="round" stroke-linejoin="round" stroke-width="57.6278"/>
<path d="M452.941 412.574C471.457 403.316 492.368 399.086 511.78 392.027" fill="none" opacity="1" stroke="#000000" stroke-linecap="round" stroke-linejoin="round" stroke-width="57.6278"/>
<path d="M724.723 524.649L722.855 524.649L720.053 524.649L717.251 524.649L712.581 524.649L712.581 524.649" fill="none" opacity="1" stroke="#000000" stroke-linecap="round" stroke-linejoin="round" stroke-width="57.6278"/>
<path d="M278.291 689.96C263.896 689.96 251.994 707.802 240.933 715.176" fill="none" opacity="1" stroke="#000000" stroke-linecap="round" stroke-linejoin="round" stroke-width="57.6278"/>
<path d="M191.433 772.148C181.736 772.148 176.429 783.241 170.886 789.893" fill="none" opacity="1" stroke="#000000" stroke-linecap="round" stroke-linejoin="round" stroke-width="57.6278"/>
<path d="M143.801 695.563C143.801 685.113 164.737 678.655 171.82 676.884" fill="none" opacity="1" stroke="#000000" stroke-linecap="round" stroke-linejoin="round" stroke-width="57.6278"/>
<path d="M577.157 648.865C590.829 648.865 602.658 647.746 616.384 651.667" fill="none" opacity="1" stroke="#000000" stroke-linecap="round" stroke-linejoin="round" stroke-width="57.6278"/>
<path d="M688.298 671.28L690.166 671.28L693.902 670.346L696.704 670.346L706.044 674.082L706.044 674.082" fill="none" opacity="1" stroke="#000000" stroke-linecap="round" stroke-linejoin="round" stroke-width="57.6278"/>
<path d="M831.194 717.978C831.194 715.839 855.485 728.255 860.147 730.12" fill="none" opacity="1" stroke="#000000" stroke-linecap="round" stroke-linejoin="round" stroke-width="57.6278"/>
</g>
</svg>
