<?xml version="1.0" encoding="UTF-8" standalone="no"?>
<!DOCTYPE svg PUBLIC "-//W3C//DTD SVG 1.1//EN" "http://www.w3.org/Graphics/SVG/1.1/DTD/svg11.dtd">
<!-- Created with Vectornator (http://vectornator.io/) -->
<svg stroke-miterlimit="10" style="fill-rule:nonzero;clip-rule:evenodd;stroke-linecap:round;stroke-linejoin:round;" version="1.1" viewBox="0 0 1024 1024" xml:space="preserve" xmlns="http://www.w3.org/2000/svg" xmlns:xlink="http://www.w3.org/1999/xlink">
<defs/>
<clipPath id="ArtboardFrame">
<rect height="1024" width="1024" x="0" y="0"/>
</clipPath>
<g clip-path="url(#ArtboardFrame)" id="レイヤー-1">
<path d="M42.8057 191.391C53.8057 189.191 63.1957 191.621 74.1229 192.34C108.737 194.617 137.883 195.977 171.871 195.187C186.116 194.856 200.334 193.748 214.576 193.289C220.864 193.086 231.627 191.85 238.301 195.187" fill="none" opacity="1" stroke="#000000" stroke-linecap="round" stroke-linejoin="round" stroke-width="57.6278"/>
<path d="M282.904 90.7961C279.558 77.409 268.473 65.5492 256.332 59.4789C221.362 41.9938 188.545 71.4797 178.514 104.082C154.181 183.164 201.461 265.867 189.902 345.13C184.042 385.311 137.468 424.167 110.185 377.396" fill="none" opacity="1" stroke="#000000" stroke-linecap="round" stroke-linejoin="round" stroke-width="57.6278"/>
<path d="M373.06 57.5809C373.06 53.7664 373.455 54.8395 369.264 60.4279C365.521 65.4192 362.762 71.0837 359.774 76.561C351.509 91.7134 343.696 107.155 336.998 123.062" fill="none" opacity="1" stroke="#000000" stroke-linecap="round" stroke-linejoin="round" stroke-width="57.6278"/>
<path d="M373.06 197.085C366.895 184.754 361.033 204.156 359.774 209.422C353.189 236.957 344.73 264.099 339.845 291.986C331.622 338.923 335.862 391.542 359.774 433.388" fill="none" opacity="1" stroke="#000000" stroke-linecap="round" stroke-linejoin="round" stroke-width="57.6278"/>
<path d="M430.949 263.515C444.014 243.919 462.71 277.04 464.165 288.19C468.356 320.321 454.542 345.902 441.389 375.498C437.819 383.53 433.232 391.137 428.102 398.274C422.192 406.497 422.538 405.866 416.714 405.866" fill="none" opacity="1" stroke="#000000" stroke-linecap="round" stroke-linejoin="round" stroke-width="57.6278"/>
<path d="M521.105 271.107C514.224 250.464 496.705 258.721 485.992 273.005C469.769 294.636 466.87 332.004 472.706 357.467C479.8 388.423 502.047 396.851 527.748 408.713C531.256 410.332 545.779 420.114 545.779 409.662" fill="none" opacity="1" stroke="#000000" stroke-linecap="round" stroke-linejoin="round" stroke-width="57.6278"/>
<path d="M604.618 221.759C611.784 207.426 636.501 232.837 639.731 237.892C644.149 244.808 648.315 252.007 651.119 259.719C669.362 309.886 662.706 366.363 644.476 415.356C641.243 424.046 634.026 442.878 621.7 442.878" fill="none" opacity="1" stroke="#000000" stroke-linecap="round" stroke-linejoin="round" stroke-width="57.6278"/>
<path d="M484.28 524.293C468.083 516.195 450.286 536.711 442.523 548.968C427.609 572.516 429.61 606.378 433.033 632.48C438.476 673.98 462.056 704.812 477.637 742.565C499.704 796.036 522.699 876.485 500.413 933.315C483.54 976.34 430.308 1007.23 384.634 1004.49C369.186 1003.56 351.804 998.9 342.878 985.511" fill="none" opacity="1" stroke="#000000" stroke-linecap="round" stroke-linejoin="round" stroke-width="57.6278"/>
<path d="M699.704 829.874C709.933 809.416 717.082 763.971 712.99 743.514C711.138 734.254 702.214 734.037 694.959 734.973C673.232 737.776 657.988 751.129 646.56 769.137C624.231 804.322 612.768 845.372 610.498 886.814C609.412 906.631 611.893 930.468 637.07 930.468C671.608 930.468 688.909 877.715 701.602 853.599C722.173 814.515 745.358 775.817 762.339 734.973C772.958 709.428 784.347 672.132 792.707 645.766C796.215 634.703 799.882 623.688 803.146 612.551C805.261 605.335 807.405 598.105 808.84 590.724C809.619 586.718 811.794 565.208 807.891 561.305C806.773 560.186 805.882 563.759 805.044 565.101C802.09 569.826 799.417 580.084 798.401 583.132C795.238 592.622 792 602.087 788.911 611.602C776.176 650.824 764.423 690.382 753.798 730.228C740.665 779.474 715.936 847.735 732.919 900.1C735.974 909.52 741.777 917.815 746.205 926.672" fill="none" opacity="1" stroke="#000000" stroke-linecap="round" stroke-linejoin="round" stroke-width="57.6278"/>
<path d="M813.585 772.933C807.435 769.858 817.561 759.634 839.208 760.596C846.504 760.92 853.209 764.783 860.086 767.239C862.085 767.953 864.736 768.239 865.78 770.086C873.162 783.146 882.008 796.146 884.76 810.893C886.65 821.018 882.37 831.507 879.066 841.262C869.534 869.406 848.114 893.141 823.075 908.641C815.833 913.124 804.424 921.307 798.401 915.284C794.099 910.982 797.161 908.932 799.35 906.743" fill="none" opacity="1" stroke="#000000" stroke-linecap="round" stroke-linejoin="round" stroke-width="57.6278"/>
<path d="M937.905 763.443C937.905 760.527 941.421 757.329 939.803 754.902C938.239 752.556 931.024 757.017 923.67 766.29C919.144 771.996 914.488 777.758 911.333 784.321C890.824 826.979 866.553 934.695 933.16 951.346" fill="none" opacity="1" stroke="#000000" stroke-linecap="round" stroke-linejoin="round" stroke-width="57.6278"/>
</g>
</svg>
