<?xml version="1.0" encoding="UTF-8" standalone="no"?>
<!DOCTYPE svg PUBLIC "-//W3C//DTD SVG 1.1//EN" "http://www.w3.org/Graphics/SVG/1.1/DTD/svg11.dtd">
<!-- Created with Vectornator (http://vectornator.io/) -->
<svg height="100%" stroke-miterlimit="10" style="fill-rule:nonzero;clip-rule:evenodd;stroke-linecap:round;stroke-linejoin:round;" version="1.1" viewBox="0 0 1024 1024" width="100%" xml:space="preserve" xmlns="http://www.w3.org/2000/svg" xmlns:vectornator="http://vectornator.io" xmlns:xlink="http://www.w3.org/1999/xlink">
<defs/>
<clipPath id="ArtboardFrame">
<rect height="1024" width="1024" x="0" y="0"/>
</clipPath>
<g clip-path="url(#ArtboardFrame)" id="レイヤー-1" vectornator:layerName="レイヤー 1">
<path d="M55.3442 808.668C51.7359 801.962 103.297 806.325 108.508 806.472C119.136 806.771 129.776 806.282 140.407 806.472C150.258 806.648 160.093 807.323 169.942 807.57C240.428 809.34 310.643 801.194 381.417 804.277C503.391 809.589 627.825 815.903 750.021 809.765C793.064 807.604 849.689 798.648 891.791 806.472C908.212 809.524 931.025 806.038 946.137 813.059" fill="none" opacity="1" stroke="#000000" stroke-linecap="round" stroke-linejoin="round" stroke-width="57.6278"/>
<path d="M208.327 113.15C208.327 168.029 207.313 223.223 208.327 278.07C208.771 302.088 211.664 325.544 212.107 349.535C212.995 397.584 209.829 445.617 210.847 493.566C212.16 555.416 213.939 616.693 217.147 678.277C219.469 722.83 215.011 769.056 218.408 813.511C219.697 830.38 222.755 847.159 223.448 864.087C224.921 900.063 219.3 942.423 225.968 977.332" fill="none" opacity="1" stroke="#000000" stroke-linecap="round" stroke-linejoin="round" stroke-width="57.6278"/>
<path d="M143.801 172.51C143.801 161.093 160.874 144.34 165.756 134.088C173.749 117.302 185.193 101.801 193.2 85.7869C194.062 84.0627 196.79 69.3206 199.786 69.3206C200.605 69.3206 200.58 70.7564 200.884 71.5161C206.065 84.4695 220.372 91.5896 227.23 104.449C246.196 140.01 264.566 172.559 274.434 212.029" fill="none" opacity="1" stroke="#000000" stroke-linecap="round" stroke-linejoin="round" stroke-width="57.6278"/>
<path d="M946.846 825.492C916.144 839.756 884.616 849.178 855.232 867.379" fill="none" opacity="1" stroke="#000000" stroke-linecap="round" stroke-linejoin="round" stroke-width="57.6278"/>
<path d="M964.571 808.332C918.77 787.053 864.289 752.254 822.061 724.557" fill="none" opacity="1" stroke="#000000" stroke-linecap="round" stroke-linejoin="round" stroke-width="57.6278"/>
<path d="M43.8256 536.286C66.9723 511.958 68.1747 502.941 77.1922 495.727C88.6749 486.541 101.554 474.764 112.408 465.116C135.779 444.342 173.876 441.177 202.989 439.236C242.419 436.607 287.624 447.629 322.037 467.704C341.197 478.88 355.741 497.509 373.798 510.406C385.064 518.453 400.535 518.599 412.618 524.64C423.805 530.234 434.199 539.138 446.262 542.756C493.194 556.836 547.462 562 596.367 553.109C648.496 543.631 686.515 516.177 727.062 483.232C822.709 405.519 883.651 296.121 930.221 183.022C943.636 150.445 946.397 115.087 957.396 82.0894" fill="none" opacity="1" stroke="#000000" stroke-linecap="round" stroke-linejoin="round" stroke-width="57.6278"/>
<path d="M57.6458 864.377C68.0967 857.296 82.8695 852.785 93.8376 847.212C121.504 833.153 149.42 819.58 177.079 805.526C229.504 778.886 280.163 749.57 331.496 720.927C422.851 669.954 512.011 614.603 602.934 562.766C714.311 499.267 829.923 440.91 946.756 388.665" fill="none" opacity="1" stroke="#000000" stroke-linecap="round" stroke-linejoin="round" stroke-width="57.6278"/>
<path d="M675.535 559.638C673.544 558.865 671.006 564.167 671.006 564.167C671.006 564.167 676.724 558.239 678.77 560.285C680.778 562.292 672.105 564.877 671.006 561.579C669.923 558.329 678.944 554.686 680.064 560.285C681.875 569.34 669.712 568.324 669.712 562.873C669.712 557.598 676.382 559.966 675.535 559.638Z" fill="none" opacity="1" stroke="#000000" stroke-linecap="round" stroke-linejoin="round" stroke-width="57.6278"/>
<path d="M672.3 664.452C666.494 671.595 667.482 657.156 669.712 656.041C674.991 653.402 678.52 661.592 676.182 665.099C672.005 671.365 674.75 661.438 672.3 664.452Z" fill="none" opacity="1" stroke="#000000" stroke-linecap="round" stroke-linejoin="round" stroke-width="57.6278"/>
<path d="M667.771 757.621C666.409 754.501 660.417 762.387 663.242 759.562C669.036 753.767 672.991 769.582 667.771 757.621Z" fill="none" opacity="1" stroke="#000000" stroke-linecap="round" stroke-linejoin="round" stroke-width="57.6278"/>
<path d="M999.62 147.455C995.127 147.455 968.075 166.071 962.249 169.155C912.659 195.408 865.318 225.12 817.587 254.747C769.575 284.547 723.474 316.283 676.541 347.572C617.274 387.083 553.464 419.964 490.891 453.658C446.622 477.494 404.942 505.022 359.489 527.194C282.45 564.774 209.758 608.254 135.262 650.157C110.169 664.272 85.9246 676.878 62.9307 694.762C55.8766 700.248 49.7466 706.418 42.4369 711.639C39.8397 713.494 32.9362 715.255 37.6148 715.255" fill="none" opacity="1" stroke="#000000" stroke-linecap="round" stroke-linejoin="round" stroke-width="57.6278"/>
</g>
</svg>
