<?xml version="1.0" encoding="UTF-8" standalone="no"?>
<!DOCTYPE svg PUBLIC "-//W3C//DTD SVG 1.1//EN" "http://www.w3.org/Graphics/SVG/1.1/DTD/svg11.dtd">
<!-- Created with Vectornator (http://vectornator.io/) -->
<svg stroke-miterlimit="10" style="fill-rule:nonzero;clip-rule:evenodd;stroke-linecap:round;stroke-linejoin:round;" version="1.1" viewBox="0 0 1024 1024" xml:space="preserve" xmlns="http://www.w3.org/2000/svg" xmlns:xlink="http://www.w3.org/1999/xlink">
<defs/>
<clipPath id="ArtboardFrame">
<rect height="1024" width="1024" x="0" y="0"/>
</clipPath>
<g clip-path="url(#ArtboardFrame)" id="レイヤー-1">
<path d="M79.8479 805.498C76.4952 798.792 124.405 803.155 129.247 803.302C139.122 803.601 149.008 803.112 158.886 803.302C168.04 803.478 177.178 804.153 186.33 804.4C251.825 806.17 317.067 798.024 382.829 801.107C496.164 806.419 611.786 812.733 725.329 806.595C765.324 804.434 817.939 795.478 857.059 803.302C872.317 806.354 893.514 802.868 907.556 809.889" fill="none" opacity="1" stroke="#000000" stroke-linecap="round" stroke-linejoin="round" stroke-width="57.6278"/>
<path d="M199.881 94.5693C199.881 149.364 198.114 204.472 199.881 259.233C200.655 283.213 205.695 306.633 206.467 330.587C208.015 378.561 202.499 426.519 204.272 474.393C206.559 536.147 209.66 597.328 215.25 658.816C219.294 703.3 211.527 749.454 217.445 793.84C219.691 810.683 225.02 827.435 226.227 844.337C228.793 880.256 219 922.551 230.618 957.406" fill="none" opacity="1" stroke="#000000" stroke-linecap="round" stroke-linejoin="round" stroke-width="57.6278"/>
<path d="M853.766 735.241C868.633 742.675 875.917 765.077 887.796 776.956C895.95 785.11 900.252 788.504 906.458 797.813C913.129 807.82 919.005 827.453 933.902 827.453C937.029 827.453 927.621 828.87 925.12 830.746C918.64 835.606 911.077 837.268 903.165 839.528C883.499 845.147 858.62 853.547 846.082 870.265" fill="none" opacity="1" stroke="#000000" stroke-linecap="round" stroke-linejoin="round" stroke-width="57.6278"/>
<path d="M139.504 194.465C139.504 183.048 156.578 166.295 161.459 156.044C169.453 139.257 180.896 123.756 188.903 107.742C189.765 106.018 192.494 91.276 195.49 91.276C196.308 91.276 196.284 92.7118 196.588 93.4715C201.769 106.425 216.076 113.545 222.934 126.404C241.9 161.965 260.27 194.514 270.137 233.984" fill="none" opacity="1" stroke="#000000" stroke-linecap="round" stroke-linejoin="round" stroke-width="57.6278"/>
<path d="M37.6257 590.057C192.755 590.057 372.659 504.835 493.355 386.872C535.472 345.71 578.61 309.152 610.828 256.11C618.895 242.829 629.768 231.803 638.322 218.893C653.017 196.717 664.219 172.979 675.814 148.483C688.893 120.848 704.061 98.4759 712.472 68.0134" fill="none" opacity="1" stroke="#000000" stroke-linecap="round" stroke-linejoin="round" stroke-width="57.6278"/>
<path d="M986.901 422.999C849.467 422.999 690.086 516.83 583.158 646.71C545.845 692.031 507.628 732.282 479.085 790.683C471.938 805.305 462.306 817.445 454.728 831.66C441.71 856.076 431.785 882.212 421.513 909.183C409.925 939.61 396.488 964.242 389.036 997.782" fill="none" opacity="1" stroke="#000000" stroke-linecap="round" stroke-linejoin="round" stroke-width="57.6278"/>
<path d="M42.668 935.391C60.0843 926.636 76.662 915.332 92.5897 902.752M146.241 855.292C157.406 844.768 168.322 834.37 179.073 824.66C202.143 803.825 235.748 774.526 272.509 742.841M350.909 675.648C364.241 664.272 377.327 653.124 389.838 642.477M460.466 582.426C494.349 553.601 524.082 528.269 551.579 504.909M614.878 451.334C631.915 436.987 665.634 408.847 665.634 408.847L701.022 379.698M760.977 330.611C783.293 312.528 833.818 272.023 833.818 272.023M897.72 222.343C917.093 207.584 955.955 178.226 955.955 178.226" fill="none" opacity="1" stroke="#000000" stroke-linecap="round" stroke-linejoin="round" stroke-width="57.6278"/>
</g>
</svg>
