<?xml version="1.0" encoding="UTF-8" standalone="no"?>
<!DOCTYPE svg PUBLIC "-//W3C//DTD SVG 1.1//EN" "http://www.w3.org/Graphics/SVG/1.1/DTD/svg11.dtd">
<!-- Created with Vectornator (http://vectornator.io/) -->
<svg stroke-miterlimit="10" style="fill-rule:nonzero;clip-rule:evenodd;stroke-linecap:round;stroke-linejoin:round;" version="1.1" viewBox="0 0 1024 1024" xml:space="preserve" xmlns="http://www.w3.org/2000/svg" xmlns:xlink="http://www.w3.org/1999/xlink">
<defs/>
<g id="レイヤー-1">
<path d="M82.5216 774.651C79.1688 767.946 127.079 772.309 131.921 772.456C141.796 772.755 151.682 772.266 161.56 772.456C170.714 772.632 179.852 773.306 189.004 773.553C254.498 775.324 319.741 767.178 385.502 770.26C498.838 775.573 614.46 781.886 728.002 775.749C767.998 773.587 820.612 764.631 859.733 772.456C874.991 775.507 896.188 772.021 910.23 779.042" fill="none" opacity="1" stroke="#000000" stroke-linecap="round" stroke-linejoin="round" stroke-width="57.6278"/>
<path d="M305.517 88.8282C305.517 143.622 303.751 198.73 305.517 253.492C306.291 277.472 311.331 300.892 312.104 324.846C313.651 372.819 308.135 420.778 309.908 468.652C312.195 530.406 315.296 591.587 320.886 653.075C324.93 697.559 317.163 743.713 323.081 788.099C325.327 804.942 330.656 821.694 331.863 838.596C334.429 874.515 324.636 916.81 336.254 951.665" fill="none" opacity="1" stroke="#000000" stroke-linecap="round" stroke-linejoin="round" stroke-width="57.6278"/>
<path d="M856.44 704.395C871.307 711.828 878.591 734.23 890.47 746.109C898.624 754.263 902.925 757.657 909.132 766.967C915.803 776.974 921.678 796.606 936.576 796.606C939.702 796.606 930.295 798.024 927.794 799.9C921.314 804.759 913.751 806.421 905.839 808.682C886.173 814.3 861.294 822.701 848.755 839.419" fill="none" opacity="1" stroke="#000000" stroke-linecap="round" stroke-linejoin="round" stroke-width="57.6278"/>
<path d="M245.14 188.724C245.14 177.307 262.214 160.554 267.096 150.303C275.089 133.516 286.533 118.015 294.539 102.001C295.402 100.277 298.13 85.5349 301.126 85.5349C301.944 85.5349 301.92 86.9707 302.224 87.7304C307.405 100.684 321.712 107.804 328.57 120.663C347.536 156.224 365.906 188.773 375.773 228.243" fill="none" opacity="1" stroke="#000000" stroke-linecap="round" stroke-linejoin="round" stroke-width="57.6278"/>
<path d="M88.1473 675.025C262.456 675.025 464.601 586.993 600.22 465.142C647.544 422.622 696.015 384.859 732.216 330.068C741.281 316.349 753.497 304.96 763.109 291.624C779.62 268.717 792.208 244.196 805.236 218.892C819.933 190.346 836.976 167.237 846.426 135.77" fill="none" opacity="1" stroke="#000000" stroke-linecap="round" stroke-linejoin="round" stroke-width="57.6278"/>
</g>
</svg>
