<?xml version="1.0" encoding="UTF-8" standalone="no"?>
<!DOCTYPE svg PUBLIC "-//W3C//DTD SVG 1.1//EN" "http://www.w3.org/Graphics/SVG/1.1/DTD/svg11.dtd">
<!-- Created with Vectornator (http://vectornator.io/) -->
<svg stroke-miterlimit="10" style="fill-rule:nonzero;clip-rule:evenodd;stroke-linecap:round;stroke-linejoin:round;" version="1.1" viewBox="0 0 1024 1024" xml:space="preserve" xmlns="http://www.w3.org/2000/svg" xmlns:xlink="http://www.w3.org/1999/xlink">
<defs/>
<g id="レイヤー-1">
<g opacity="1">
<path d="M93.6071 484.124C92.8834 482.677 92.3844 482.567 94.221 481.055C97.1594 478.635 100.339 476.523 103.43 474.302C106.887 471.817 110.589 469.654 113.866 466.935C125.233 457.503 135.543 446.865 146.403 436.853C161.524 422.914 176.781 409.121 191.833 395.108C209.841 378.341 228.279 361.976 245.243 344.153C261.329 327.252 276.291 309.314 291.9 291.971C316.8 264.303 343.061 238.525 370.48 213.391C380.74 203.986 390.857 194.378 401.789 185.765C411.933 177.772 422.931 170.958 433.099 163.05C436.965 160.043 441.011 157.057 444.763 153.841C446.468 152.38 447.637 150.563 449.674 149.544" fill="none" stroke="#000000" stroke-linecap="round" stroke-linejoin="round" stroke-width="57.6278"/>
<g fill="#000000" stroke="none"/>
</g>
<g opacity="1">
<path d="M113.866 122.532C114.272 120.91 113.896 119.037 116.322 120.076C118.679 121.086 121.032 122.21 123.075 123.76C127.001 126.738 130.466 130.281 134.125 133.582C149.725 147.66 164.44 162.568 179.554 177.17C206.757 203.451 234.02 229.478 259.363 257.592C276.939 277.091 293.487 297.517 310.931 317.141C337.294 346.799 364.53 375.66 391.967 404.316C407.398 420.433 423.881 435.424 438.624 452.201C440.734 454.602 442.952 456.934 444.763 459.568C447.467 463.501 449.542 467.836 452.13 471.846C455.088 476.431 458.882 480.44 461.339 485.352" fill="none" stroke="#000000" stroke-linecap="round" stroke-linejoin="round" stroke-width="57.6278"/>
<g fill="#000000" stroke="none"/>
</g>
<g opacity="1">
<path d="M284.499 589.671C275.408 592.702 269.074 583.991 267.924 575.551C267.696 573.879 267.881 571.751 269.151 570.64C271.497 568.588 274.709 567.657 277.746 566.957C280.139 566.404 282.8 566.131 285.113 566.957C288.749 568.255 292.28 570.293 294.936 573.096C298.44 576.795 294.561 583.491 292.48 585.988C288.965 590.206 282.062 591.328 277.132 590.899C274.521 590.672 272.652 587.345 272.221 584.76" fill="none" stroke="#000000" stroke-linecap="round" stroke-linejoin="round" stroke-width="57.6278"/>
<g fill="#000000" stroke="none"/>
</g>
<g opacity="1">
<path d="M102.254 751.367C106.91 751.367 110.443 749.887 115.469 749.54C121.391 749.13 127.328 749.108 133.258 748.93C172.069 747.767 211.366 747.07 250.158 748.93C282.716 750.491 315.158 754.925 347.744 756.241C374.454 757.321 401.385 755.197 428.049 756.851C444.167 757.85 460.218 762.943 476.334 762.943" fill="none" stroke="#000000" stroke-linecap="round" stroke-linejoin="round" stroke-width="57.6278"/>
<g fill="#000000" stroke="none"/>
</g>
<g opacity="1">
<path d="M261.392 933.761C258.27 930.639 254.521 924.044 255.883 919.353C256.584 916.937 258.644 915.067 260.545 913.42C266.803 907.996 278.914 903.62 286.396 909.606C288.539 911.32 290.508 917.282 291.057 918.929C295.325 931.731 292.131 939.14 278.767 941.813C276.547 942.257 274.235 942.51 271.987 942.237C269.502 941.936 266.921 941.42 264.783 940.118C260.109 937.273 260.679 929.427 263.511 925.709C265.147 923.563 266.967 921.271 269.444 920.2C274.212 918.139 278.704 914.954 283.853 914.267C285.757 914.013 286.961 916.527 288.515 917.657" fill="none" stroke="#000000" stroke-linecap="round" stroke-linejoin="round" stroke-width="57.6278"/>
<g fill="#000000" stroke="none"/>
</g>
<g opacity="1">
<path d="M523.504 280.427C559.899 280.427 596.355 278.434 632.799 279.17C652.285 279.564 671.737 280.979 691.215 281.683C721.512 282.778 751.983 282.75 782.294 282.311C807.84 281.941 833.383 280.9 858.926 280.427C870.232 280.217 881.546 279.347 892.845 279.798C903.33 280.218 914.357 282.311 924.88 282.311" fill="none" stroke="#000000" stroke-linecap="round" stroke-linejoin="round" stroke-width="57.6278"/>
<g fill="#000000" stroke="none"/>
</g>
<g opacity="1">
<path d="M717.314 491.426C717.314 472.083 720.469 452.995 721.083 433.638C721.93 406.946 719.918 379.872 722.339 353.237C724.13 333.534 728.253 314.028 728.621 294.193C729.376 253.4 727.307 212.455 726.108 171.708C725.917 165.22 726.317 158.723 726.108 152.235C725.912 146.163 724.809 140.058 725.48 134.02C727.567 115.238 734.644 97.1854 729.877 78.116" fill="none" stroke="#000000" stroke-linecap="round" stroke-linejoin="round" stroke-width="57.6278"/>
<g fill="#000000" stroke="none"/>
</g>
<g opacity="1">
<path d="M567.235 767.355C567.235 764.676 579.163 766.046 582.938 766.099C597.176 766.296 611.413 766.581 625.651 766.727C642.191 766.895 658.733 766.727 675.274 766.727C709.996 766.727 744.844 765.824 779.543 767.355C806.595 768.548 833.499 772.106 860.572 773.008C890.633 774.01 920.933 773.636 951.023 773.636" fill="none" stroke="#000000" stroke-linecap="round" stroke-linejoin="round" stroke-width="57.6278"/>
<g fill="#000000" stroke="none"/>
</g>
</g>
</svg>
