<?xml version="1.0" encoding="UTF-8" standalone="no"?>
<!DOCTYPE svg PUBLIC "-//W3C//DTD SVG 1.1//EN" "http://www.w3.org/Graphics/SVG/1.1/DTD/svg11.dtd">
<!-- Created with Vectornator (http://vectornator.io/) -->
<svg stroke-miterlimit="10" style="fill-rule:nonzero;clip-rule:evenodd;stroke-linecap:round;stroke-linejoin:round;" version="1.1" viewBox="0 0 1024 1024" xml:space="preserve" xmlns="http://www.w3.org/2000/svg" xmlns:xlink="http://www.w3.org/1999/xlink">
<defs/>
<g id="レイヤー-1">
<path d="M290.112 177.137C329.547 168.02 378.627 174.577 419.287 174.577C475.877 174.577 532.479 175.347 589.058 174.577C628.056 174.047 667.314 164.337 707.161 164.337" fill="none" opacity="1" stroke="#000000" stroke-linecap="round" stroke-linejoin="round" stroke-width="181.216"/>
<path d="M397.926 210.748C397.926 289.281 411.24 367.838 416.379 446.268C419.445 493.06 404.809 537.999 401.616 584.508C395.445 674.408 408.998 763.769 408.998 853.308" fill="none" opacity="1" stroke="#000000" stroke-linecap="round" stroke-linejoin="round" stroke-width="181.216"/>
<path d="M301.184 868.337C321.577 861.265 386.098 872.474 404.524 873.457C478.397 877.399 552.391 874.325 625.965 878.577C659.382 880.509 696.344 871.075 721.923 888.817" fill="none" opacity="1" stroke="#000000" stroke-linecap="round" stroke-linejoin="round" stroke-width="181.216"/>
<path d="M613.875 210.646C613.875 249.83 620.101 288.948 622.332 327.984C623.543 349.179 621.062 370.284 620.217 391.409C617.963 447.774 619.893 505.445 624.446 561.601C630.18 632.32 635.017 703.117 635.017 774.076C635.017 799.058 637.819 825.603 632.903 850.186" fill="none" opacity="1" stroke="#000000" stroke-linecap="round" stroke-linejoin="round" stroke-width="181.216"/>
</g>
</svg>
