<?xml version="1.0" encoding="UTF-8" standalone="no"?>
<!DOCTYPE svg PUBLIC "-//W3C//DTD SVG 1.1//EN" "http://www.w3.org/Graphics/SVG/1.1/DTD/svg11.dtd">
<!-- Created with Vectornator (http://vectornator.io/) -->
<svg stroke-miterlimit="10" style="fill-rule:nonzero;clip-rule:evenodd;stroke-linecap:round;stroke-linejoin:round;" version="1.1" viewBox="0 0 1024 1024" xml:space="preserve" xmlns="http://www.w3.org/2000/svg" xmlns:xlink="http://www.w3.org/1999/xlink">
<defs/>
<g id="レイヤー-1">
<path d="M138.004 874.244C138.004 830.812 172.813 775.376 188.969 739.188C224.409 659.801 259.657 579.974 298.543 502.202C346.804 405.679 400.317 317.098 459.081 226.993C467.377 214.274 510.867 135.689 522.787 132.709C524.63 132.248 523.755 136.752 525.335 137.805C544.886 150.839 554.954 169.701 566.107 193.866C572.323 207.335 577.751 221.158 583.945 234.638C592.193 252.591 601.095 270.237 609.427 288.151C646.284 367.393 701.72 435.13 736.838 514.943C773.176 597.53 800.011 689.172 828.575 774.863C840.251 809.892 849.204 847.559 851.509 884.437C852.104 893.955 854.534 900.762 846.412 904.823" fill="none" opacity="1" stroke="#000000" stroke-linecap="round" stroke-linejoin="round" stroke-width="181.216"/>
<path d="M265.416 660.193C280.288 645.321 332.481 657.144 349.507 657.644C367.337 658.169 385.182 657.644 403.02 657.644C498.715 657.644 591.198 662.251 685.874 678.03" fill="none" opacity="1" stroke="#000000" stroke-linecap="round" stroke-linejoin="round" stroke-width="181.216"/>
</g>
</svg>
