<?xml version="1.0" encoding="UTF-8" standalone="no"?>
<!DOCTYPE svg PUBLIC "-//W3C//DTD SVG 1.1//EN" "http://www.w3.org/Graphics/SVG/1.1/DTD/svg11.dtd">
<!-- Created with Vectornator (http://vectornator.io/) -->
<svg stroke-miterlimit="10" style="fill-rule:nonzero;clip-rule:evenodd;stroke-linecap:round;stroke-linejoin:round;" version="1.1" viewBox="0 0 1024 1024" xml:space="preserve" xmlns="http://www.w3.org/2000/svg" xmlns:xlink="http://www.w3.org/1999/xlink">
<defs/>
<g id="レイヤー-1">
<path d="M172.05 172.986C232.764 163.868 308.327 170.426 370.926 170.426C458.053 170.426 545.197 171.195 632.307 170.426C692.347 169.895 752.789 160.186 814.137 160.186" fill="none" opacity="1" stroke="#000000" stroke-linecap="round" stroke-linejoin="round" stroke-width="181.216"/>
<path d="M280.433 191.198C280.433 269.17 293.804 347.166 298.966 425.036C302.046 471.493 287.346 516.111 284.139 562.288C277.941 651.546 291.553 740.268 291.553 829.168" fill="none" opacity="1" stroke="#000000" stroke-linecap="round" stroke-linejoin="round" stroke-width="181.216"/>
<path d="M189.097 864.186C220.492 857.113 319.83 868.322 348.198 869.306C461.933 873.247 575.854 870.173 689.129 874.426C740.577 876.357 797.484 866.923 836.866 884.666" fill="none" opacity="1" stroke="#000000" stroke-linecap="round" stroke-linejoin="round" stroke-width="181.216"/>
<path d="M725.948 198.795C725.948 237.979 735.534 277.097 738.968 316.133C740.832 337.328 737.014 358.433 735.713 379.558C732.242 435.923 735.213 493.594 742.223 549.75C751.051 620.469 758.498 691.266 758.498 762.225C758.498 787.207 762.813 813.752 755.243 838.335" fill="none" opacity="1" stroke="#000000" stroke-linecap="round" stroke-linejoin="round" stroke-width="181.216"/>
<path d="M506.392 209.555C506.392 257.446 512.894 304.875 514.091 352.758C515.343 402.825 509.817 450.919 506.392 500.58C503.925 536.357 507.932 572.592 507.932 608.367C507.932 683.781 507.932 759.599 507.932 834.721" fill="none" opacity="1" stroke="#000000" stroke-linecap="round" stroke-linejoin="round" stroke-width="181.216"/>
</g>
</svg>
