<?xml version="1.0" encoding="UTF-8" standalone="no"?>
<!DOCTYPE svg PUBLIC "-//W3C//DTD SVG 1.1//EN" "http://www.w3.org/Graphics/SVG/1.1/DTD/svg11.dtd">
<!-- Created with Vectornator (http://vectornator.io/) -->
<svg stroke-miterlimit="10" style="fill-rule:nonzero;clip-rule:evenodd;stroke-linecap:round;stroke-linejoin:round;" version="1.1" viewBox="0 0 1024 1024" xml:space="preserve" xmlns="http://www.w3.org/2000/svg" xmlns:xlink="http://www.w3.org/1999/xlink">
<defs/>
<g id="レイヤー-1">
<path d="M218.701 181.797C218.701 255.148 207.782 328.347 203.894 401.589C199.003 493.75 201.427 586.215 201.427 678.443C201.427 722.697 199.514 767.356 201.427 811.586C201.763 819.362 203.482 827.061 203.894 834.834C204.641 848.908 206.221 863.154 203.894 877.101C203.634 878.661 202.249 874.284 201.427 872.875" fill="none" opacity="1" stroke="#000000" stroke-linecap="round" stroke-linejoin="round" stroke-width="181.216"/>
<path d="M253.249 196.591C331.64 169.737 408.755 162.895 492.621 164.89C550.669 166.271 607.951 180.906 662.896 196.591C710.737 210.248 775.101 238.594 788.751 285.353C803.929 337.348 758.055 403.616 709.783 431.177C627.116 478.374 524.924 472.423 430.927 486.125C399.389 490.722 323.719 519.002 297.669 496.692" fill="none" opacity="1" stroke="#000000" stroke-linecap="round" stroke-linejoin="round" stroke-width="181.216"/>
<path d="M290.265 492.465C297.449 480.161 323.466 484.011 334.685 484.011C381.393 484.011 428.712 485.748 475.347 484.011C538.326 481.666 598.21 471.64 657.96 494.578C685.848 505.285 706.473 525.784 734.46 536.846C759.506 546.746 792.588 548.521 810.961 568.547C829.816 589.099 817.306 618.562 823.299 642.515C828.883 664.831 836.03 686.879 833.17 710.144C819.903 818.086 652.74 850.802 549.379 853.854C515.583 854.852 481.993 848.606 448.201 847.514C396.711 845.85 348.87 856.777 297.669 853.854" fill="none" opacity="1" stroke="#000000" stroke-linecap="round" stroke-linejoin="round" stroke-width="181.216"/>
</g>
</svg>
