<?xml version="1.0" encoding="UTF-8" standalone="no"?>
<!DOCTYPE svg PUBLIC "-//W3C//DTD SVG 1.1//EN" "http://www.w3.org/Graphics/SVG/1.1/DTD/svg11.dtd">
<!-- Created with Vectornator (http://vectornator.io/) -->
<svg stroke-miterlimit="10" style="fill-rule:nonzero;clip-rule:evenodd;stroke-linecap:round;stroke-linejoin:round;" version="1.1" viewBox="0 0 1024 1024" xml:space="preserve" xmlns="http://www.w3.org/2000/svg" xmlns:xlink="http://www.w3.org/1999/xlink">
<defs/>
<g id="レイヤー-1">
<path d="M348.054 168.271C375.407 159.153 409.451 165.711 437.654 165.711C476.907 165.711 516.168 166.48 555.414 165.711C582.464 165.18 609.694 155.471 637.334 155.471" fill="none" opacity="1" stroke="#000000" stroke-linecap="round" stroke-linejoin="round" stroke-width="181.216"/>
<path d="M499.094 191.311C499.094 269.843 508.329 348.401 511.894 426.831C514.021 473.622 503.868 518.561 501.654 565.071C497.373 654.97 506.774 744.331 506.774 833.871" fill="none" opacity="1" stroke="#000000" stroke-linecap="round" stroke-linejoin="round" stroke-width="181.216"/>
<path d="M355.734 859.471C369.878 852.398 414.633 863.608 427.414 864.591C478.655 868.532 529.98 865.458 581.014 869.711C604.193 871.642 629.831 862.208 647.574 879.951" fill="none" opacity="1" stroke="#000000" stroke-linecap="round" stroke-linejoin="round" stroke-width="181.216"/>
</g>
</svg>
