<?xml version="1.0" encoding="UTF-8" standalone="no"?>
<!DOCTYPE svg PUBLIC "-//W3C//DTD SVG 1.1//EN" "http://www.w3.org/Graphics/SVG/1.1/DTD/svg11.dtd">
<!-- Created with Vectornator (http://vectornator.io/) -->
<svg stroke-miterlimit="10" style="fill-rule:nonzero;clip-rule:evenodd;stroke-linecap:round;stroke-linejoin:round;" version="1.1" viewBox="0 0 1024 1024" xml:space="preserve" xmlns="http://www.w3.org/2000/svg" xmlns:xlink="http://www.w3.org/1999/xlink">
<defs/>
<g id="レイヤー-1">
<path d="M804.654 179.404C811.247 199.184 813.705 225.339 818.547 245.398C820.525 253.591 829.263 262.172 825.494 269.711C821.831 277.036 798.519 253.04 797.707 252.344C784.454 240.985 761.624 235.923 745.607 231.504C695.115 217.576 641.426 215.35 589.307 214.138C543.266 213.067 490.096 211.588 445.163 222.821C355.671 245.194 233.995 319.565 195.083 405.171C178.895 440.784 173.716 481.086 172.506 519.791C170.139 595.551 200.261 650.864 241.973 710.825C290.182 780.125 370.252 833.427 452.11 854.969C477.071 861.537 503.015 860.026 528.523 861.915C593.1 866.699 646.703 861.872 705.664 832.392C727.171 821.638 738.695 798.924 754.29 782.029C783.654 750.218 823.478 720.347 837.651 677.828" fill="none" opacity="1" stroke="#000000" stroke-linecap="round" stroke-linejoin="round" stroke-width="181.216"/>
</g>
</svg>
