<?xml version="1.0" encoding="UTF-8" standalone="no"?>
<!DOCTYPE svg PUBLIC "-//W3C//DTD SVG 1.1//EN" "http://www.w3.org/Graphics/SVG/1.1/DTD/svg11.dtd">
<!-- Created with Vectornator (http://vectornator.io/) -->
<svg stroke-miterlimit="10" style="fill-rule:nonzero;clip-rule:evenodd;stroke-linecap:round;stroke-linejoin:round;" version="1.1" viewBox="0 0 1024 1024" xml:space="preserve" xmlns="http://www.w3.org/2000/svg" xmlns:xlink="http://www.w3.org/1999/xlink">
<defs/>
<g id="レイヤー-1">
<path d="M514.051 378.968C514.051 363.634 518.099 348.782 519.743 333.435C521.967 312.679 522.899 291.629 521.166 270.826C520.401 261.649 518.74 252.402 515.474 243.791C513.421 238.378 508.904 234.255 505.514 229.562C502.737 225.717 500.04 221.799 496.976 218.178C489.373 209.193 479.164 197.825 467.095 195.412C463.374 194.667 459.506 195.412 455.712 195.412C443.28 195.412 438.788 194.28 427.253 198.257C417.594 201.588 408.071 205.359 398.795 209.641C369.021 223.382 340.812 243.18 319.111 267.981C310.178 278.19 302.617 289.536 294.922 300.708C263.673 346.069 240.751 397.486 220.93 448.691C211.07 474.163 197.369 505.773 193.894 534.067C191.104 556.786 188.791 579.566 186.78 602.367C185.612 615.604 183.98 628.991 185.357 642.209C187.338 661.226 188.848 680.352 192.471 699.125C195.739 716.058 205.134 731.613 213.815 746.082C221.237 758.452 233.776 767.051 245.119 775.963C250.626 780.29 256.903 783.934 263.617 785.924C274.427 789.126 285.103 793.596 296.344 794.461C304.043 795.053 311.855 792.831 319.111 790.192C325.108 788.012 329.692 782.621 333.34 777.386C372.295 721.494 400.429 660.51 430.099 599.521C451.129 556.292 472.155 514.836 495.553 472.881C510.354 446.342 522.916 424.944 532.549 396.043C534.404 390.478 535.737 384.735 536.818 378.968C537.495 375.356 536.611 368.801 533.972 366.162C525.912 358.102 521.374 379.324 519.743 383.237C517.946 387.549 515.728 391.683 514.051 396.043C510.982 404.024 508.13 412.093 505.514 420.233C496 449.832 490.576 483.179 485.593 512.723C480.648 542.039 477.055 570.037 477.055 599.521C477.055 620.39 475.141 641.348 477.055 662.129C478.48 677.601 483.645 692.496 487.016 707.663C492.687 733.184 499.886 760.142 512.628 783.078C515.787 788.764 524.282 796.778 528.28 801.576" fill="none" opacity="1" stroke="#000000" stroke-linecap="round" stroke-linejoin="round" stroke-width="57.6278"/>
<path d="M633.577 555.41C630.429 549.116 632.417 555.89 632.154 558.256C631.309 565.857 630.365 573.448 629.308 581.023C627.519 593.845 625.646 606.656 623.616 619.442C616.895 661.788 607.076 704.68 603.695 747.505C603.098 755.07 603.695 762.683 603.695 770.271C603.695 778.349 603.501 786.478 602.272 794.461C602.156 795.218 601.751 802.512 598.004 801.576C594.014 800.578 594.585 794.48 595.158 791.615C595.925 787.78 596.996 784.011 598.004 780.232C598.893 776.895 599.757 773.547 600.849 770.271C606.503 753.309 613.674 736.88 620.77 720.469C629.811 699.564 644.052 681.305 656.343 662.129C665.951 647.141 679.327 634.877 691.916 622.288C701.901 612.303 719.966 607.415 733.181 605.213C735.52 604.823 738.128 604.249 740.296 605.213C743.79 606.766 746.977 608.937 750.256 610.904C751.722 611.784 753.76 612.221 754.525 613.75C765.631 635.962 757.025 653.449 751.679 676.359C743.152 712.902 733.521 751.059 741.719 788.769C742.397 791.889 746.108 796.424 748.833 798.73C753.979 803.084 758.769 807.963 764.485 811.536C775.702 818.547 788.258 808.183 797.212 802.999C798.954 801.99 800.058 800.153 801.481 798.73" fill="none" opacity="1" stroke="#000000" stroke-linecap="round" stroke-linejoin="round" stroke-width="57.6278"/>
</g>
</svg>
