<?xml version="1.0" encoding="UTF-8" standalone="no"?>
<!DOCTYPE svg PUBLIC "-//W3C//DTD SVG 1.1//EN" "http://www.w3.org/Graphics/SVG/1.1/DTD/svg11.dtd">
<!-- Created with Vectornator (http://vectornator.io/) -->
<svg stroke-miterlimit="10" style="fill-rule:nonzero;clip-rule:evenodd;stroke-linecap:round;stroke-linejoin:round;" version="1.1" viewBox="0 0 1024 1024" xml:space="preserve" xmlns="http://www.w3.org/2000/svg" xmlns:xlink="http://www.w3.org/1999/xlink">
<defs/>
<g id="レイヤー-1">
<path d="M78.8612 509.022C60.5062 473.742 85.8605 443.299 123.103 435.579C157.18 428.515 196.561 448.709 208.141 480.86C215.504 501.302 209.474 524.418 203.544 544.363C199.616 557.575 196.406 572.536 188.605 584.122C174.138 605.61 154.971 622.521 136.319 640.446C122.847 653.394 111.246 666.413 91.5018 669.713C87.2287 670.427 74.5304 668.394 74.8391 667.504C75.2591 666.293 79.6325 664.801 80.5849 664.191C92.6134 656.484 101.975 649.948 114.485 660.878C148.709 690.779 175.993 720.078 220.781 682.414C224.698 679.12 226.572 676.279 229.4 672.474" fill="none" opacity="1" stroke="#000000" stroke-linecap="round" stroke-linejoin="round" stroke-width="57.6278"/>
<path d="M339.431 572.525C339.416 571.003 331.212 570.745 329.376 568.66C320.524 558.605 327.303 538.049 342.591 540.498C355.439 542.556 361.734 569.909 351.21 577.495C346.397 580.965 339.493 578.644 339.431 572.525Z" fill="none" opacity="1" stroke="#000000" stroke-linecap="round" stroke-linejoin="round" stroke-width="57.6278"/>
<path d="M433.374 439.997C440.585 433.066 455.585 429.653 464.976 427.848C498.931 421.322 534.79 432.261 558.632 456.563C566.346 464.426 574.145 473.823 574.145 485.277C574.145 518.278 529.292 529.281 502.898 534.976C492.99 537.113 483.3 539.455 473.595 535.528C471.598 534.72 467.195 532.265 468.998 531.11C478.555 524.987 512.825 531.273 520.71 533.871C554.851 545.121 605.236 592.137 587.935 630.507C566.209 678.692 538.883 694.91 484.512 695.667C466.335 695.92 435.295 694.325 424.756 677.444C421.745 672.622 423.032 665.895 423.032 660.326" fill="none" opacity="1" stroke="#000000" stroke-linecap="round" stroke-linejoin="round" stroke-width="57.6278"/>
<path d="M692.325 560.38C691.97 560.202 691.881 559.539 691.484 559.539C684.574 559.539 689.43 550.225 694.847 549.451C705.057 547.992 711.649 566.27 702.413 571.308C685.842 580.347 672.178 557.36 688.962 547.769C708.574 536.562 718.409 568.936 713.342 572.99C701.855 582.18 683.32 572.619 686.44 557.017C688.7 545.717 710.82 550.671 710.82 562.061" fill="none" opacity="1" stroke="#000000" stroke-linecap="round" stroke-linejoin="round" stroke-width="57.6278"/>
<path d="M767.986 394.766C767.986 389.652 770.045 404.805 770.508 409.898C771.915 425.374 772.771 440.836 775.552 456.135" fill="none" opacity="1" stroke="#000000" stroke-linecap="round" stroke-linejoin="round" stroke-width="57.6278"/>
<path d="M774.712 400.65C774.712 392.257 809.439 394.766 814.224 394.766C849.634 394.766 884.016 393.979 919.309 397.288C923.052 397.639 951.254 399.632 951.254 403.172C951.254 404.742 949.853 405.246 948.732 405.694C938.137 409.932 931.169 414.451 924.353 424.189C906.054 450.331 891.928 479.586 874.752 506.576C830.821 575.612 827.674 654.521 827.674 733.56" fill="none" opacity="1" stroke="#000000" stroke-linecap="round" stroke-linejoin="round" stroke-width="57.6278"/>
<path d="M228.27 299.769C227.149 299.208 224.907 299.341 224.907 298.087C224.907 297.461 225.98 297.399 226.588 297.247C231.342 296.058 238.676 295.565 243.402 295.565C256.836 295.565 277.706 299.628 280.392 315.742C281.549 322.685 281.341 333.033 277.87 339.281C276.998 340.849 275.411 341.934 274.507 343.484C272.613 346.732 271.603 350.481 269.463 353.572C262.882 363.078 254.626 369.748 245.924 377.111C243.014 379.574 239.715 382.867 235.836 383.837C235.05 384.033 226.588 383.085 226.588 384.677C226.588 385.577 230.896 385.413 234.995 386.359C239.988 387.511 246.291 389.398 250.968 391.403C270.511 399.778 283.104 416.433 302.249 397.288" fill="none" opacity="1" stroke="#000000" stroke-linecap="round" stroke-linejoin="round" stroke-width="57.6278"/>
</g>
</svg>
