<?xml version="1.0" encoding="UTF-8" standalone="no"?>
<!DOCTYPE svg PUBLIC "-//W3C//DTD SVG 1.1//EN" "http://www.w3.org/Graphics/SVG/1.1/DTD/svg11.dtd">
<!-- Created with Vectornator (http://vectornator.io/) -->
<svg stroke-miterlimit="10" style="fill-rule:nonzero;clip-rule:evenodd;stroke-linecap:round;stroke-linejoin:round;" version="1.1" viewBox="0 0 1024 1024" xml:space="preserve" xmlns="http://www.w3.org/2000/svg" xmlns:xlink="http://www.w3.org/1999/xlink">
<defs/>
<g id="レイヤー-1">
<path d="M141.14 79.146C141.14 120.235 143.469 161.611 142.856 202.791C142.186 247.826 138.566 292.744 138.566 337.814C138.566 372.017 142.703 405.96 141.998 440.219C141.41 468.834 137.86 497.356 136.849 525.936C135.526 563.381 146.179 601.946 138.566 638.961" fill="none" opacity="1" stroke="#000000" stroke-linecap="round" stroke-linejoin="round" stroke-width="57.6278"/>
<path d="M281.02 293.059C289.219 293.059 283.916 309.332 283.595 314.299C283.203 320.363 283.048 326.437 282.736 332.504C282.19 343.125 281.528 353.741 281.02 364.364C278.506 416.965 278.487 471.042 281.02 523.661C282.139 546.903 281.486 570.242 282.736 593.448C282.892 596.332 288.001 616.314 283.595 616.963C279.836 617.517 280.499 617.558 279.304 615.446" fill="none" opacity="1" stroke="#000000" stroke-linecap="round" stroke-linejoin="round" stroke-width="57.6278"/>
<path d="M279.733 206.963C281.517 208.54 269.203 182.193 276.729 177.758C280.691 175.424 284.263 184.173 284.453 188.378C284.677 193.328 279.558 206.808 279.733 206.963Z" fill="none" opacity="1" stroke="#000000" stroke-linecap="round" stroke-linejoin="round" stroke-width="57.6278"/>
<path d="M415.751 286.232C419.718 275.713 418.326 297.445 418.326 298.369C418.326 302.668 418.326 306.966 418.326 311.265C418.326 317.839 418.551 324.416 418.326 330.987C417.571 352.988 416.028 374.972 415.751 396.982C415.04 453.521 414.069 510.465 418.326 566.899C419.859 587.223 420.399 589.442 420.9 609.378C421.015 613.928 420.9 618.48 420.9 623.032C420.9 624.802 420.9 630.112 420.9 628.342C420.9 597.858 417.352 566.936 421.758 536.556C426.483 503.982 439.771 480.269 453.51 450.081C466.195 422.21 476.57 396.343 493.844 370.432C513.936 340.294 556.979 300.341 601.114 311.265C644.282 321.949 643.992 353.908 645.738 389.396C648.2 439.455 642.48 491.657 641.447 541.866C640.989 564.126 638.873 586.296 638.873 608.619C638.873 613.918 637.191 622.14 643.163 625.307C644.39 625.958 645.956 628.714 646.596 627.583C648.405 624.385 645.104 620.534 644.88 616.963C644.035 603.53 644.306 589.33 646.596 576.001C649.598 558.534 652.208 541.001 656.036 523.661C660.581 503.07 666.897 482.722 674.915 462.976C682.938 443.222 692.035 423.809 701.518 404.567C712.342 382.606 735.295 332.747 761.589 321.126C769.376 317.684 777.315 319.156 785.618 318.85C791.045 318.65 799.633 316.887 805.356 318.092C844.907 326.416 857.573 362.883 861.994 394.706C871.074 460.064 856.323 525.1 854.271 590.414C853.534 613.843 861.146 634.876 870.576 656.408C871.894 659.418 873.862 668.001 880.016 668.545C883.818 668.881 901.104 645.515 904.902 640.479" fill="none" opacity="1" stroke="#000000" stroke-linecap="round" stroke-linejoin="round" stroke-width="57.6278"/>
<path d="M75.4465 742.668C70.6392 745.072 73.217 774.888 73.6002 784.212C74.7133 811.297 76.598 838.353 77.2929 865.452C77.7195 882.089 78.4064 898.743 80.0624 915.303C80.4116 918.795 81.4499 928.683 82.832 925.458C86.1139 917.801 83.8884 908.826 84.6783 900.532C86.9357 876.83 89.1841 851.898 97.6029 829.448C104.184 811.898 112.506 797.186 126.221 784.212C131.399 779.314 149.829 768.117 157.61 764.825C181.395 754.762 183.642 781.397 186.228 798.983C190.397 827.331 179.748 909.298 218.54 918.996" fill="none" opacity="1" stroke="#000000" stroke-linecap="round" stroke-linejoin="round" stroke-width="57.6278"/>
<path d="M304.395 828.524C321.63 828.524 339.01 824.832 356.094 824.832C389.725 824.832 423.141 826.968 456.72 827.601C475.829 827.962 494.839 828.524 513.958 828.524C514.219 828.524 531.498 831.757 531.498 831.294C531.498 829.781 516.037 837.082 514.881 837.756C501.66 845.468 488.271 852.898 475.184 860.836C462.993 868.23 454.488 875.069 444.719 884.838" fill="none" opacity="1" stroke="#000000" stroke-linecap="round" stroke-linejoin="round" stroke-width="57.6278"/>
<path d="M438.257 759.286C436.516 762.767 439.545 767.303 441.949 770.364C446.657 776.355 451.78 782.116 457.644 786.981C477.848 803.746 492.863 810.472 515.804 822.985" fill="none" opacity="1" stroke="#000000" stroke-linecap="round" stroke-linejoin="round" stroke-width="57.6278"/>
<path d="M873.42 751.978C867.402 763.834 847.8 785.67 839.344 796.662C802.794 844.177 758.3 876.602 701.754 897.604C670.83 909.09 622.726 917.544 609.814 876.387C604.475 859.369 606.528 839.917 613.028 823.666C643.382 747.781 737.145 780.034 776.979 828.167C795.091 850.052 809.127 886.246 834.843 900.819C862.384 916.426 894.498 924.31 924.855 913.035C965.487 897.943 995.339 801.062 961.503 770.302C946.828 756.961 883.262 732.587 873.42 751.978Z" fill="none" opacity="1" stroke="#000000" stroke-linecap="round" stroke-linejoin="round" stroke-width="57.6278"/>
</g>
</svg>
