<?xml version="1.0" encoding="UTF-8" standalone="no"?>
<!DOCTYPE svg PUBLIC "-//W3C//DTD SVG 1.1//EN" "http://www.w3.org/Graphics/SVG/1.1/DTD/svg11.dtd">
<!-- Created with Vectornator (http://vectornator.io/) -->
<svg stroke-miterlimit="10" style="fill-rule:nonzero;clip-rule:evenodd;stroke-linecap:round;stroke-linejoin:round;" version="1.1" viewBox="0 0 1024 1024" xml:space="preserve" xmlns="http://www.w3.org/2000/svg" xmlns:xlink="http://www.w3.org/1999/xlink">
<defs/>
<g id="レイヤー-1">
<path d="M208.327 113.15C208.327 168.029 207.313 223.223 208.327 278.07C208.771 302.088 211.664 325.544 212.107 349.535C212.995 397.584 209.829 445.617 210.847 493.566C212.16 555.416 213.939 616.693 217.147 678.277C219.469 722.83 215.011 769.056 218.408 813.511C219.697 830.38 222.755 847.159 223.448 864.087C224.921 900.063 219.3 942.423 225.968 977.332" fill="none" opacity="1" stroke="#000000" stroke-linecap="round" stroke-linejoin="round" stroke-width="57.6278"/>
<g opacity="0">
<path d="M888.247 738.411C904.248 745.845 912.087 768.247 924.871 780.126C933.647 788.28 938.276 791.674 944.956 800.983C952.135 810.99 958.458 830.623 974.491 830.623C977.856 830.623 967.731 832.04 965.04 833.916C958.066 838.776 949.926 840.438 941.411 842.698C920.247 848.317 893.471 856.717 879.977 873.435" fill="none" opacity="1" stroke="#000000" stroke-linecap="round" stroke-linejoin="round" stroke-width="57.6278"/>
</g>
<path d="M55.3442 808.668C51.7359 801.962 103.297 806.325 108.508 806.472C119.136 806.771 129.776 806.282 140.407 806.472C150.258 806.648 160.093 807.323 169.942 807.57C240.428 809.34 310.643 801.194 381.417 804.277C503.391 809.589 627.825 815.903 750.021 809.765C793.064 807.604 849.689 798.648 891.791 806.472C908.212 809.524 931.025 806.038 946.137 813.059" fill="none" opacity="1" stroke="#000000" stroke-linecap="round" stroke-linejoin="round" stroke-width="57.6278"/>
<path d="M143.801 172.51C143.801 161.093 160.874 144.34 165.756 134.088C173.749 117.302 185.193 101.801 193.2 85.7869C194.062 84.0627 196.79 69.3206 199.786 69.3206C200.605 69.3206 200.58 70.7564 200.884 71.5161C206.065 84.4695 220.372 91.5896 227.23 104.449C246.196 140.01 264.566 172.559 274.434 212.029" fill="none" opacity="1" stroke="#000000" stroke-linecap="round" stroke-linejoin="round" stroke-width="57.6278"/>
<path d="M946.846 825.492C916.144 839.756 884.616 849.178 855.232 867.379" fill="none" opacity="1" stroke="#000000" stroke-linecap="round" stroke-linejoin="round" stroke-width="57.6278"/>
<path d="M955.571 813.332C909.77 792.053 855.289 757.254 813.061 729.557" fill="none" opacity="1" stroke="#000000" stroke-linecap="round" stroke-linejoin="round" stroke-width="57.6278"/>
<path d="M43.8256 536.286C66.9723 511.958 68.1747 502.941 77.1922 495.727C88.6749 486.541 101.554 474.764 112.408 465.116C135.779 444.342 173.876 441.177 202.989 439.236C242.419 436.607 287.624 447.629 322.037 467.704C341.197 478.88 355.741 497.509 373.798 510.406C385.064 518.453 400.535 518.599 412.618 524.64C423.805 530.234 434.199 539.138 446.262 542.756C493.194 556.836 547.462 562 596.367 553.109C648.496 543.631 686.515 516.177 727.062 483.232C822.709 405.519 883.651 296.121 930.221 183.022C943.636 150.445 946.397 115.087 957.396 82.0894" fill="none" opacity="1" stroke="#000000" stroke-linecap="round" stroke-linejoin="round" stroke-width="57.6278"/>
<path d="M736.077 517.525C731.998 533.839 735.751 552.402 734.849 569.094C730.889 642.357 739.146 715.039 739.146 788.259" fill="none" opacity="1" stroke="#000000" stroke-linecap="round" stroke-linejoin="round" stroke-width="57.6278"/>
<path d="M325.372 490.513C300.686 510.262 280.36 539.897 262.753 565.41C255.339 576.152 247.674 589.698 238.197 599.175" fill="none" opacity="1" stroke="#000000" stroke-linecap="round" stroke-linejoin="round" stroke-width="57.6278"/>
<path d="M387.99 547.607C377.526 558.071 370.389 572.972 360.978 584.441C319.334 635.196 280.583 686.37 244.95 741.602" fill="none" opacity="1" stroke="#000000" stroke-linecap="round" stroke-linejoin="round" stroke-width="57.6278"/>
<path d="M486.83 571.549C463.609 594.77 445.945 632.047 430.35 659.338C418.649 679.815 406.687 700.152 394.129 720.115C381.183 740.696 364.578 759.307 355.453 782.12" fill="none" opacity="1" stroke="#000000" stroke-linecap="round" stroke-linejoin="round" stroke-width="57.6278"/>
<path d="M610.225 568.48C591.913 595.948 579.116 626.858 561.727 655.041C538.73 692.312 512.137 729.164 496.652 770.456" fill="none" opacity="1" stroke="#000000" stroke-linecap="round" stroke-linejoin="round" stroke-width="57.6278"/>
<path d="M720.729 569.094C713.881 575.941 707.124 594.085 704.153 601.017C693.991 624.73 686.117 649.406 675.3 672.844C660.201 705.558 634.569 734.154 621.276 767.386" fill="none" opacity="1" stroke="#000000" stroke-linecap="round" stroke-linejoin="round" stroke-width="57.6278"/>
</g>
</svg>
