<?xml version="1.0" encoding="UTF-8" standalone="no"?>
<!DOCTYPE svg PUBLIC "-//W3C//DTD SVG 1.1//EN" "http://www.w3.org/Graphics/SVG/1.1/DTD/svg11.dtd">
<!-- Created with Vectornator (http://vectornator.io/) -->
<svg height="100%" stroke-miterlimit="10" style="fill-rule:nonzero;clip-rule:evenodd;stroke-linecap:round;stroke-linejoin:round;" version="1.1" viewBox="0 0 1024 1024" width="100%" xml:space="preserve" xmlns="http://www.w3.org/2000/svg" xmlns:vectornator="http://vectornator.io" xmlns:xlink="http://www.w3.org/1999/xlink">
<defs/>
<g id="レイヤー-1" vectornator:layerName="レイヤー 1">
<path d="M438.001 111.62C438.001 166.499 437.219 221.693 438.001 276.54C438.343 300.558 440.574 324.014 440.916 348.005C441.601 396.054 439.159 444.087 439.944 492.036C440.956 553.886 442.328 615.163 444.802 676.746C446.592 721.3 443.155 767.526 445.774 811.981C446.768 828.85 449.126 845.629 449.661 862.557C450.796 898.532 446.462 940.893 451.604 975.802" fill="none" opacity="1" stroke="#000000" stroke-linecap="round" stroke-linejoin="round" stroke-width="57.6278"/>
<path d="M67.3427 549.937C63.7344 543.231 115.296 547.594 120.507 547.741C131.135 548.04 141.774 547.551 152.405 547.741C162.256 547.917 172.091 548.591 181.941 548.839C252.427 550.609 322.642 542.463 393.415 545.546C515.389 550.858 639.823 557.172 762.019 551.034C805.063 548.872 861.688 539.917 903.79 547.741C920.211 550.793 943.023 547.307 958.135 554.328" fill="none" opacity="1" stroke="#000000" stroke-linecap="round" stroke-linejoin="round" stroke-width="57.6278"/>
<path d="M388.244 170.979C388.244 159.563 401.41 142.809 405.174 132.558C411.338 115.771 420.162 100.271 426.336 84.2568C427.001 82.5326 429.105 67.7904 431.415 67.7904C432.046 67.7904 432.027 69.2262 432.262 69.9859C436.257 82.9393 447.289 90.0595 452.577 102.919C467.202 138.479 481.367 171.029 488.976 210.499" fill="none" opacity="1" stroke="#000000" stroke-linecap="round" stroke-linejoin="round" stroke-width="57.6278"/>
<path d="M948.844 561.761C918.142 576.025 886.614 585.447 857.231 603.648" fill="none" opacity="1" stroke="#000000" stroke-linecap="round" stroke-linejoin="round" stroke-width="57.6278"/>
<path d="M977.837 548.733C932.036 527.455 877.554 492.656 835.327 464.959" fill="none" opacity="1" stroke="#000000" stroke-linecap="round" stroke-linejoin="round" stroke-width="57.6278"/>
<path d="M48.5597 294.9C71.7065 284.476 72.9088 280.613 81.9264 277.522C93.4091 273.586 106.288 268.54 117.142 264.406C140.513 255.505 178.61 254.149 207.723 253.317C247.153 252.191 292.358 256.914 326.772 265.515C345.931 270.304 360.475 278.285 378.532 283.811C389.798 287.259 405.269 287.322 417.352 289.91C428.539 292.307 438.934 296.122 450.996 297.672C497.928 303.705 552.196 305.918 601.101 302.108C653.23 298.047 691.249 286.284 731.796 272.168C827.443 238.871 888.386 191.997 934.956 143.538C948.37 129.58 951.131 114.43 962.13 100.292" fill="none" opacity="1" stroke="#000000" stroke-linecap="round" stroke-linejoin="round" stroke-width="57.6278"/>
<path d="M63.1876 804.422C76.9577 808.342 87.1733 812.045 99.4849 817.052C117.04 824.192 145.368 827.161 166.03 829.682C223.389 836.681 283.294 825.629 338.443 819.349C372.177 815.507 406.497 811.646 440.277 808.44C454.339 807.106 467.156 803.154 481.616 802.125C512.269 799.944 542.704 800.419 573.367 799.255C600.69 798.218 634.074 796.533 661.086 799.829C698.618 804.408 731.187 813.56 765.945 822.219C775.592 824.622 786.135 825.255 795.185 828.534C803.755 831.64 810.591 835.865 819.383 838.868C842.036 846.607 866.369 856.919 881.895 869.296C889.248 875.157 894.58 881.859 902.06 887.667C937.083 914.86 970.622 949.438 970.622 984.117" fill="none" opacity="1" stroke="#000000" stroke-linecap="round" stroke-linejoin="round" stroke-width="57.6278"/>
<path d="M212.25 268.427C224.397 268.427 223.607 291.469 228.25 303.263C233.289 316.064 240.44 328.628 244.25 342.454C249.408 361.172 249.697 382.626 253.25 401.966C271.667 502.213 267.035 607.987 259.25 709.687C256.413 746.754 241.28 805.476 213.25 815.648C155.961 836.437 133.071 749.41 124.25 683.56C110.555 581.332 115.638 464.716 141.25 367.13C148.37 340.001 166.08 293.376 185.25 282.942" fill="none" opacity="1" stroke="#000000" stroke-linecap="round" stroke-linejoin="round" stroke-width="57.6278"/>
<path d="M753.047 265.978C750.098 260.081 792.647 270.343 800.047 278.974C804.237 283.861 804.657 290.993 807.047 296.969C818.531 325.67 827.535 352.904 835.047 382.944C853.252 455.741 851.875 532.34 843.047 605.88C839.451 635.839 841.995 665.123 836.047 694.854C828.975 730.206 816.786 784.828 770.047 784.828" fill="none" opacity="1" stroke="#000000" stroke-linecap="round" stroke-linejoin="round" stroke-width="57.6278"/>
<path d="M689.513 328.556C679.058 333.783 677.913 367.954 675.513 377.556" fill="none" opacity="1" stroke="#000000" stroke-linecap="round" stroke-linejoin="round" stroke-width="57.6278"/>
<path d="M653.446 464.024C647.903 472.339 650.446 484.379 650.446 494.024" fill="none" opacity="1" stroke="#000000" stroke-linecap="round" stroke-linejoin="round" stroke-width="57.6278"/>
<path d="M654.513 620.091C649.179 630.757 657.681 645.428 662.513 655.091" fill="none" opacity="1" stroke="#000000" stroke-linecap="round" stroke-linejoin="round" stroke-width="57.6278"/>
<path d="M691.33 728.118C685.917 725.412 693.776 736.347 695.73 741.319C702.286 758.008 709.801 774.451 719.198 789.722" fill="none" opacity="1" stroke="#000000" stroke-linecap="round" stroke-linejoin="round" stroke-width="57.6278"/>
</g>
</svg>
