<?xml version="1.0" encoding="UTF-8" standalone="no"?>
<!DOCTYPE svg PUBLIC "-//W3C//DTD SVG 1.1//EN" "http://www.w3.org/Graphics/SVG/1.1/DTD/svg11.dtd">
<!-- Created with Vectornator (http://vectornator.io/) -->
<svg stroke-miterlimit="10" style="fill-rule:nonzero;clip-rule:evenodd;stroke-linecap:round;stroke-linejoin:round;" version="1.1" viewBox="0 0 1024 1024" xml:space="preserve" xmlns="http://www.w3.org/2000/svg" xmlns:xlink="http://www.w3.org/1999/xlink">
<defs/>
<g id="レイヤー-1">
<path d="M541.729 145.828C541.729 144.658 543.408 141.595 542.581 142.422C535.915 149.088 531.683 161.749 526.403 169.67C516.513 184.504 509.422 201.06 499.156 215.649C469.363 257.986 437.37 297.077 402.939 335.707C330.854 416.583 268.358 502.898 207.1 592C182.63 627.594 151.895 660.936 130.468 698.434" fill="none" opacity="1" stroke="#000000" stroke-linecap="round" stroke-linejoin="round" stroke-width="57.6278"/>
<path d="M544.284 155.194C544.284 164.981 554.283 172.035 558.759 180.739C561.788 186.629 566.487 202.612 568.125 208.837C583.72 268.098 602.204 324.994 623.471 382.538C644.658 439.867 650.575 501.74 666.896 560.496C682.477 616.59 697.045 672.578 711.172 729.087C720.179 765.112 732.459 803.375 732.459 840.63" fill="none" opacity="1" stroke="#000000" stroke-linecap="round" stroke-linejoin="round" stroke-width="57.6278"/>
<path d="M568.125 143.274C561.878 140.15 579.826 151.923 584.303 156.897C591.898 165.336 597.955 175.041 604.738 184.145C632.553 221.475 663.631 256.392 689.885 294.836C741.154 369.908 794.251 444.597 852.517 514.516C878.731 545.973 920.268 592.72 928.298 632.871" fill="none" opacity="1" stroke="#000000" stroke-linecap="round" stroke-linejoin="round" stroke-width="57.6278"/>
<path d="M140.822 702.727C150.777 706.799 162.245 705.254 172.423 708.954C196.419 717.679 220.183 716.884 244.606 722.705C266.219 727.857 287.547 731.668 309.323 736.213C373.105 749.524 437.242 764.904 500.319 781.278C562.646 797.458 623.432 815.713 687.351 824.939" fill="none" opacity="1" stroke="#000000" stroke-linecap="round" stroke-linejoin="round" stroke-width="57.6278"/>
<path d="M752.485 828.571C760.304 821.125 765.136 811.039 771.976 802.737C787.266 784.181 803.927 767.123 817.801 747.279C827.058 734.038 835.11 719.868 844.862 706.963C857.291 690.515 874.009 677.183 888.326 662.39C898.682 651.688 905.405 638.109 914.581 626.477" fill="none" opacity="1" stroke="#000000" stroke-linecap="round" stroke-linejoin="round" stroke-width="57.6278"/>
<path d="M156.949 557.056C156.6 557.562 160.223 596.912 159.522 602.734C156.099 631.165 143.892 654.663 132.014 680.386" fill="none" opacity="1" stroke="#000000" stroke-linecap="round" stroke-linejoin="round" stroke-width="57.6278"/>
<path d="M147.238 677.606C148.638 667.751 178.264 648.171 185.047 643.433C211.418 625.008 237.081 612.581 267.491 602.419" fill="none" opacity="1" stroke="#000000" stroke-linecap="round" stroke-linejoin="round" stroke-width="57.6278"/>
<path d="M633.778 662.692C637.476 657.342 644.902 674.891 647.286 677.792C659.902 693.149 673.605 706.881 687.231 721.364C703.411 738.56 713.801 760.41 729.494 777.622C737.714 786.639 749.317 793.915 750.049 806.905" fill="none" opacity="1" stroke="#000000" stroke-linecap="round" stroke-linejoin="round" stroke-width="57.6278"/>
<path d="M736.431 798.38C737.069 800.287 737.327 802.307 738.276 796.994C739.424 790.571 740.111 784.074 741.029 777.613C742.482 767.384 744.269 757.197 745.388 746.926C748.316 720.058 749.246 692.973 749.478 665.947" fill="none" opacity="1" stroke="#000000" stroke-linecap="round" stroke-linejoin="round" stroke-width="57.6278"/>
<path d="M788.829 539.722C810.017 550.295 831.466 561.227 851.492 574.163C869.465 585.773 885.819 599.635 907.575 602.726" fill="none" opacity="1" stroke="#000000" stroke-linecap="round" stroke-linejoin="round" stroke-width="57.6278"/>
<path d="M907.465 609.301C908.589 601.386 901.214 593.917 899.142 586.699C896.982 579.175 895.57 571.449 894.164 563.748C886.658 522.646 883.673 483.175 885.994 441.482" fill="none" opacity="1" stroke="#000000" stroke-linecap="round" stroke-linejoin="round" stroke-width="57.6278"/>
<path d="M557.61 648.403C544.83 648.863 531.879 650.094 519.048 650.128" fill="none" opacity="1" stroke="#000000" stroke-linecap="round" stroke-linejoin="round" stroke-width="57.6278"/>
<path d="M438.495 656.738C424.813 654.21 407.723 656.535 394.205 658.669" fill="none" opacity="1" stroke="#000000" stroke-linecap="round" stroke-linejoin="round" stroke-width="57.6278"/>
<path d="M306.294 662.339C288.048 661.594 267.958 662.719 250.075 665.543" fill="none" opacity="1" stroke="#000000" stroke-linecap="round" stroke-linejoin="round" stroke-width="57.6278"/>
<path d="M837.653 631.24C823.113 628.554 796.364 630.135 784.772 633.481" fill="none" opacity="1" stroke="#000000" stroke-linecap="round" stroke-linejoin="round" stroke-width="57.6278"/>
</g>
</svg>
