<?xml version="1.0" encoding="UTF-8" standalone="no"?>
<!DOCTYPE svg PUBLIC "-//W3C//DTD SVG 1.1//EN" "http://www.w3.org/Graphics/SVG/1.1/DTD/svg11.dtd">
<!-- Created with Vectornator (http://vectornator.io/) -->
<svg stroke-miterlimit="10" style="fill-rule:nonzero;clip-rule:evenodd;stroke-linecap:round;stroke-linejoin:round;" version="1.1" viewBox="0 0 1024 1024" xml:space="preserve" xmlns="http://www.w3.org/2000/svg" xmlns:xlink="http://www.w3.org/1999/xlink">
<defs/>
<g id="レイヤー-1">
<path d="M181.868 212.025C180.738 209.767 179.666 202.541 179.054 204.991C176.866 213.742 176.205 222.806 174.833 231.722C172.029 249.947 170.692 268.38 167.799 286.592C162.197 321.847 155.341 356.892 149.509 392.11C139.139 454.727 127.221 517.321 122.778 580.636C118.998 634.498 124.184 681.698 124.184 733.989" fill="none" opacity="1" stroke="#000000" stroke-linecap="round" stroke-linejoin="round" stroke-width="57.6278"/>
<path d="M180.461 220.467C172.08 203.706 208.885 206.196 238.144 203.584C248.431 202.665 258.811 201.242 269.096 202.177C335.496 208.213 425.051 227.444 470.284 282.371C500.509 319.073 497.603 376.789 459.029 406.179C447.321 415.099 434.121 421.939 421.042 428.689C387.754 445.871 359.379 457.996 322.559 465.269C286.14 472.463 248.519 473.428 211.413 472.304" fill="none" opacity="1" stroke="#000000" stroke-linecap="round" stroke-linejoin="round" stroke-width="57.6278"/>
<path d="M519.526 455.421C493.59 470.982 479.864 510.802 473.098 537.021C465.928 564.807 459.683 592.951 456.215 621.436C453.096 647.057 449.158 673.357 453.401 698.816C455.955 714.137 466.339 727.384 475.912 739.616C483.498 749.31 494.671 755.561 504.05 763.534" fill="none" opacity="1" stroke="#000000" stroke-linecap="round" stroke-linejoin="round" stroke-width="57.6278"/>
<path d="M578.616 552.497C586.116 537.498 603.893 553.88 615.196 559.532C631.12 567.494 647.279 597.517 648.962 612.994C653.015 650.285 619.963 682.248 592.685 701.63C589.093 704.182 561.733 723.03 561.733 704.444" fill="none" opacity="1" stroke="#000000" stroke-linecap="round" stroke-linejoin="round" stroke-width="57.6278"/>
<path d="M705.238 549.684C685.897 543.237 670.554 569.687 664.438 583.449C659.074 595.517 654.88 608.339 653.182 621.436C645.657 679.488 682.39 713.195 736.19 719.92" fill="none" opacity="1" stroke="#000000" stroke-linecap="round" stroke-linejoin="round" stroke-width="57.6278"/>
<path d="M824.825 492C855.192 537.551 867.41 599.91 868.439 652.388C869.028 682.425 851.052 729.559 837.487 755.092C828.687 771.659 818.37 788.395 803.722 800.113" fill="none" opacity="1" stroke="#000000" stroke-linecap="round" stroke-linejoin="round" stroke-width="57.6278"/>
</g>
</svg>
