<?xml version="1.0" encoding="UTF-8" standalone="no"?>
<!DOCTYPE svg PUBLIC "-//W3C//DTD SVG 1.1//EN" "http://www.w3.org/Graphics/SVG/1.1/DTD/svg11.dtd">
<!-- Created with Vectornator (http://vectornator.io/) -->
<svg height="100%" stroke-miterlimit="10" style="fill-rule:nonzero;clip-rule:evenodd;stroke-linecap:round;stroke-linejoin:round;" version="1.1" viewBox="0 0 1024 1024" width="100%" xml:space="preserve" xmlns="http://www.w3.org/2000/svg" xmlns:vectornator="http://vectornator.io" xmlns:xlink="http://www.w3.org/1999/xlink">
<defs/>
<clipPath id="ArtboardFrame">
<rect height="1024" width="1024" x="0" y="0"/>
</clipPath>
<g clip-path="url(#ArtboardFrame)" id="レイヤー-1" vectornator:layerName="レイヤー 1">
<path d="M177.244 103.731C177.244 158.61 176.23 213.804 177.244 268.651C177.688 292.669 180.581 316.125 181.024 340.116C181.912 388.165 178.746 436.198 179.764 484.147C181.077 545.997 182.856 607.274 186.065 668.858C188.386 713.411 183.928 759.637 187.325 804.092C188.614 820.961 191.672 837.74 192.365 854.668C193.838 890.644 188.217 933.004 194.885 967.913" fill="none" opacity="1" stroke="#000000" stroke-linecap="round" stroke-linejoin="round" stroke-width="57.6278"/>
<path d="M112.718 163.091C112.718 151.674 129.791 134.921 134.673 124.669C142.667 107.883 154.11 92.3817 162.117 76.3679C162.979 74.6437 165.707 59.9015 168.703 59.9015C169.522 59.9015 169.497 61.3374 169.801 62.0971C174.983 75.0504 189.289 82.1706 196.147 95.0297C215.113 130.591 233.483 163.14 243.351 202.61" fill="none" opacity="1" stroke="#000000" stroke-linecap="round" stroke-linejoin="round" stroke-width="57.6278"/>
<path d="M97.7299 875.543C94.1216 868.837 145.683 873.201 150.894 873.347C161.522 873.647 172.162 873.157 182.792 873.347C192.644 873.523 202.478 874.198 212.328 874.445C282.814 876.215 353.029 868.069 423.803 871.152C545.776 876.464 670.21 882.778 792.406 876.641C835.45 874.479 892.075 865.523 934.177 873.347C950.598 876.399 973.41 872.913 988.523 879.934" fill="none" opacity="1" stroke="#000000" stroke-linecap="round" stroke-linejoin="round" stroke-width="57.6278"/>
<path d="M989.231 892.368C958.53 906.631 927.002 916.053 897.618 934.255" fill="none" opacity="1" stroke="#000000" stroke-linecap="round" stroke-linejoin="round" stroke-width="57.6278"/>
<path d="M997.956 880.207C952.156 858.928 897.674 824.129 855.447 796.433" fill="none" opacity="1" stroke="#000000" stroke-linecap="round" stroke-linejoin="round" stroke-width="57.6278"/>
<path d="M307.901 61.1779C317.369 51.7105 334.025 54.8744 347.359 53.6622C366.723 51.9019 384.429 50.8848 403.727 52.7227C414.154 53.7158 428.52 60.9729 425.335 54.6017" fill="none" opacity="1" stroke="#000000" stroke-linecap="round" stroke-linejoin="round" stroke-width="57.6278"/>
<path d="M375.543 59.299C369.309 59.299 373.664 107.092 373.664 112.849C373.664 145.73 372.531 178.631 373.664 211.493C374.55 237.177 376.878 261.186 371.785 286.65" fill="none" opacity="1" stroke="#000000" stroke-linecap="round" stroke-linejoin="round" stroke-width="57.6278"/>
<path d="M296.342 290.761C307.423 285.221 336.105 290.498 345.58 290.761C360.818 291.185 376.058 291.641 391.301 291.641C402.382 291.641 416.143 283.441 426.472 289.003C431.337 291.622 432.564 296.445 437.023 298.675" fill="none" opacity="1" stroke="#000000" stroke-linecap="round" stroke-linejoin="round" stroke-width="57.6278"/>
<path d="M504.725 166.786C506.069 164.099 505.941 163.455 506.484 169.424C507.201 177.31 505.744 185.246 505.605 193.164C505.255 213.091 506.003 233.028 505.605 252.953C505.499 258.236 505.116 263.511 504.725 268.78C504.486 272.008 502.05 281.145 503.846 278.452C509.63 269.776 510.63 252.195 512.639 242.402C517.098 220.662 519.681 190.602 537.258 174.7C549.282 163.821 572.864 172.744 575.945 188.768C580.14 210.583 573.945 237.109 572.428 259.108C572.043 264.694 568.165 270.806 570.67 275.814C571.256 276.986 572.11 273.569 572.428 272.297C573.293 268.838 573.715 265.28 574.187 261.746C575.204 254.117 576.807 242.447 579.462 235.368C584.956 220.717 616.192 176.157 639.251 187.009C673.863 203.297 618.341 292.826 677.059 285.486" fill="none" opacity="1" stroke="#000000" stroke-linecap="round" stroke-linejoin="round" stroke-width="57.6278"/>
<path d="M635.788 551.436C635.788 604.583 631.768 656.752 627.875 709.702C626.768 724.752 624.09 746.567 634.03 759.819" fill="none" opacity="1" stroke="#000000" stroke-linecap="round" stroke-linejoin="round" stroke-width="57.6278"/>
<path d="M633.15 556.711C633.15 540.785 663.362 536.993 674.475 536.488C683.264 536.089 692.061 537.053 700.853 537.367C715.51 537.891 730.23 537.591 744.816 539.126C769.289 541.702 778.08 550.049 782.624 573.417C793.185 627.73 745.377 676.327 692.06 678.928C689.029 679.075 662.794 681.471 658.649 676.29C656.593 673.72 670.501 666.618 672.717 666.618" fill="none" opacity="1" stroke="#000000" stroke-linecap="round" stroke-linejoin="round" stroke-width="57.6278"/>
<path d="M732.506 684.203C753.956 694.928 761.072 763.779 794.054 752.785" fill="none" opacity="1" stroke="#000000" stroke-linecap="round" stroke-linejoin="round" stroke-width="57.6278"/>
<path d="M847.689 682.445C861.896 685.996 878.199 685.749 892.531 685.082C905.044 684.5 904.704 683.579 915.391 679.807C934.347 673.117 931.659 650.322 919.788 637.603C902.31 618.877 877.161 628.261 866.153 647.274C858.644 660.244 856.303 675.631 855.602 690.358C853.317 738.349 916.681 749.741 953.199 748.389C961.044 748.098 978.657 751.947 984.853 745.751" fill="none" opacity="1" stroke="#000000" stroke-linecap="round" stroke-linejoin="round" stroke-width="57.6278"/>
</g>
</svg>
