<?xml version="1.0" encoding="UTF-8" standalone="no"?>
<!DOCTYPE svg PUBLIC "-//W3C//DTD SVG 1.1//EN" "http://www.w3.org/Graphics/SVG/1.1/DTD/svg11.dtd">
<!-- Created with Vectornator (http://vectornator.io/) -->
<svg stroke-miterlimit="10" style="fill-rule:nonzero;clip-rule:evenodd;stroke-linecap:round;stroke-linejoin:round;" version="1.1" viewBox="0 0 1024 1024" xml:space="preserve" xmlns="http://www.w3.org/2000/svg" xmlns:xlink="http://www.w3.org/1999/xlink">
<defs/>
<g id="レイヤー-1">
<path d="M116.07 411.708C113.503 410.424 135.908 411.805 138.233 411.708C159.49 410.822 180.731 409.53 201.952 408.014C243.173 405.069 284.358 400.867 325.696 399.703C338.931 399.33 352.345 398.45 365.405 400.626C370.656 401.501 374.083 404.32 379.257 404.32" fill="none" opacity="1" stroke="#000000" stroke-linecap="round" stroke-linejoin="round" stroke-width="57.6278"/>
<path d="M422.66 238.097C421.582 229.48 421.738 212.038 417.119 204.852C372.974 136.183 310.15 167.694 295.222 239.02C282.623 299.214 301.657 359.787 309.997 419.095C316.777 467.305 308.658 513.784 302.609 561.309C301.712 568.358 302.893 575.769 300.763 582.548C289.294 619.039 245.211 686.046 200.105 649.961C188.721 640.853 184.085 629.002 177.942 616.716" fill="none" opacity="1" stroke="#000000" stroke-linecap="round" stroke-linejoin="round" stroke-width="57.6278"/>
<path d="M520.547 446.799C508.428 446.799 506.329 443.48 492.843 450.493C477.65 458.393 471.097 485.694 467.909 500.36C459.861 537.379 474.458 565.582 515.006 566.849C569.949 568.566 589.922 500.288 563.026 460.651C557.916 453.121 549.493 438.737 539.016 436.641" fill="none" opacity="1" stroke="#000000" stroke-linecap="round" stroke-linejoin="round" stroke-width="57.6278"/>
<path d="M823.442 494.819C827.152 487.4 832.306 477.054 833.6 468.962C838.324 439.438 809.537 418.418 781.886 426.483C736.566 439.702 699.325 488.97 704.315 536.375C709.054 581.389 791.894 549.354 808.667 528.987C809.95 527.429 821.591 514.777 823.442 509.595C825.229 504.59 831.368 495.185 826.212 493.896C821.666 492.759 814.378 516.333 813.284 519.753C811.118 526.521 808.881 533.268 806.82 540.069C796.649 573.631 789.821 608.218 782.81 642.573C768.875 710.855 746.605 779.628 720.014 843.888C709.204 870.013 691.689 895.491 662.76 902.066C639.089 907.446 610.274 889.833 588.883 880.826C568.86 872.396 556.568 869.196 539.939 855.893C525.577 844.403 520.944 822.318 519.623 806.026C516.04 761.839 539.672 731.96 573.184 705.369C643.261 649.764 738.687 638.557 821.595 614.869" fill="none" opacity="1" stroke="#000000" stroke-linecap="round" stroke-linejoin="round" stroke-width="57.6278"/>
</g>
</svg>
