<?xml version="1.0" encoding="UTF-8" standalone="no"?>
<!DOCTYPE svg PUBLIC "-//W3C//DTD SVG 1.1//EN" "http://www.w3.org/Graphics/SVG/1.1/DTD/svg11.dtd">
<!-- Created with Vectornator (http://vectornator.io/) -->
<svg stroke-miterlimit="10" style="fill-rule:nonzero;clip-rule:evenodd;stroke-linecap:round;stroke-linejoin:round;" version="1.1" viewBox="0 0 1024 1024" xml:space="preserve" xmlns="http://www.w3.org/2000/svg" xmlns:xlink="http://www.w3.org/1999/xlink">
<defs/>
<g id="レイヤー-1">
<path d="M72.111 77.3629C65.9494 95.8478 75.1361 126.665 75.1361 146.939C75.1361 190.093 74.7128 230.997 79.6736 273.991C85.1852 321.757 100.08 384.807 128.074 425.243C134.614 434.69 145.062 440.951 153.787 447.931C195.685 481.449 245.325 509.291 300.502 512.97C312.037 513.739 323.764 512.083 335.29 512.97C369.629 515.611 401.788 511.489 432.092 493.307C453.572 480.419 477.62 474.587 494.105 453.981C511.515 432.219 513.533 404.604 518.305 378.355C527.147 329.725 533.431 281.274 533.431 231.64C533.431 196.482 532.474 162.436 530.406 127.276C529.349 109.309 533.71 88.2299 519.818 74.3379" fill="none" opacity="1" stroke="#000000" stroke-linecap="round" stroke-linejoin="round" stroke-width="57.6278"/>
<path d="M385.203 947.064C381.217 943.078 382.026 936.061 382.178 930.426C382.56 916.305 382.935 902.181 383.691 888.075C387.037 825.604 402.048 766.797 423.016 708.085C430.989 685.762 448.866 662.232 454.779 641.534C456.438 635.73 456.729 628.305 460.829 623.384C515.369 557.936 610.871 498.55 699.808 508.432C718.845 510.547 739.636 521.232 757.284 528.095C778.209 536.232 801.843 541.56 819.297 556.833C832.159 568.086 840.732 582.006 854.085 593.133C867.934 604.673 866.58 599.858 878.286 615.821C898.614 643.541 907.678 681.147 919.124 712.623C928.382 738.083 934.793 751.61 937.274 777.661C941.016 816.954 940.299 856.09 940.299 895.638C940.299 918.581 942.878 942.797 937.274 965.214" fill="none" opacity="1" stroke="#000000" stroke-linecap="round" stroke-linejoin="round" stroke-width="57.6278"/>
</g>
</svg>
