<?xml version="1.0" encoding="UTF-8" standalone="no"?>
<!DOCTYPE svg PUBLIC "-//W3C//DTD SVG 1.1//EN" "http://www.w3.org/Graphics/SVG/1.1/DTD/svg11.dtd">
<!-- Created with Vectornator (http://vectornator.io/) -->
<svg stroke-miterlimit="10" style="fill-rule:nonzero;clip-rule:evenodd;stroke-linecap:round;stroke-linejoin:round;" version="1.1" viewBox="0 0 1024 1024" xml:space="preserve" xmlns="http://www.w3.org/2000/svg" xmlns:xlink="http://www.w3.org/1999/xlink">
<defs/>
<g id="レイヤー-1">
<path d="M51.0248 78.6055C68.3653 69.9352 99.2358 75.6583 117.94 75.9984C163.401 76.8249 208.871 74.3019 254.378 75.1293C303.323 76.0193 350.737 73.5447 399.506 70.7842C467.214 66.9517 536.89 69.9152 604.597 69.9152" fill="none" opacity="1" stroke="#000000" stroke-linecap="round" stroke-linejoin="round" stroke-width="57.6278"/>
<path d="M326.507 85.5577C337.54 78.2025 334.021 106.364 333.46 122.926C331.811 171.557 326.991 220.264 330.852 268.923C340.474 390.151 339.543 512.43 339.543 633.916" fill="none" opacity="1" stroke="#000000" stroke-linecap="round" stroke-linejoin="round" stroke-width="57.6278"/>
<path d="M501.182 374.945C519.56 374.945 542.209 370.21 559.407 368.861C583.693 366.957 608.049 371.921 632.406 372.338C646.335 372.576 660.188 369.731 674.119 369.731C696.137 369.731 718.172 369.581 740.166 370.6C770.363 371.998 799.175 378.654 829.676 379.29C866.262 380.052 902.745 379.199 939.174 381.897C947.56 382.518 954.693 381.326 962.637 384.504" fill="none" opacity="1" stroke="#000000" stroke-linecap="round" stroke-linejoin="round" stroke-width="57.6278"/>
<path d="M508.135 382.766C508.135 416.851 510.995 452.024 512.48 486.181C513.427 507.963 510.455 530.525 513.349 552.227C517.62 584.261 524.086 615.307 524.646 647.82C525.831 716.518 523.424 785.939 520.301 854.649C518.48 894.714 513.349 934.451 513.349 974.575" fill="none" opacity="1" stroke="#000000" stroke-linecap="round" stroke-linejoin="round" stroke-width="57.6278"/>
<path d="M535.075 622.618C531.769 622.618 558.486 622.841 564.622 622.618C587.163 621.799 612.268 617.879 635.013 619.142C667.778 620.962 700.432 624.604 733.213 626.094C752.26 626.96 770.06 624.356 788.831 624.356C808.008 624.356 826.693 629.571 846.187 629.571" fill="none" opacity="1" stroke="#000000" stroke-linecap="round" stroke-linejoin="round" stroke-width="57.6278"/>
</g>
</svg>
