<?xml version="1.0" encoding="UTF-8" standalone="no"?>
<!DOCTYPE svg PUBLIC "-//W3C//DTD SVG 1.1//EN" "http://www.w3.org/Graphics/SVG/1.1/DTD/svg11.dtd">
<!-- Created with Vectornator (http://vectornator.io/) -->
<svg stroke-miterlimit="10" style="fill-rule:nonzero;clip-rule:evenodd;stroke-linecap:round;stroke-linejoin:round;" version="1.1" viewBox="0 0 1024 1024" xml:space="preserve" xmlns="http://www.w3.org/2000/svg" xmlns:xlink="http://www.w3.org/1999/xlink">
<defs/>
<g id="レイヤー-1">
<path d="M74.5653 645.041C100.937 638.448 128.373 642.535 155.105 641.175C184.373 639.687 213.482 637.038 242.731 635.377C383.821 627.36 524.485 637.74 665.401 644.397C744.954 648.155 823.358 655.231 903.153 653.417C920.598 653.021 937.967 655.799 955.343 654.062" fill="none" opacity="1" stroke="#000000" stroke-linecap="round" stroke-linejoin="round" stroke-width="57.6278"/>
<path d="M241.431 62.8851C241.431 90.6383 238.318 115.407 235.002 142.889C230.307 181.792 232.996 223.701 232.144 262.895C231.439 295.348 234.266 327.659 235.002 360.043C237.278 460.191 235.002 560.591 235.002 660.772C235.002 730.775 235.002 800.778 235.002 870.782C235.002 900.779 239.259 937.387 234.287 967.215" fill="none" opacity="1" stroke="#000000" stroke-linecap="round" stroke-linejoin="round" stroke-width="57.6278"/>
<path d="M81.5489 147.039C81.5489 177.319 78.8378 209.04 83.2851 239.06C86.4327 260.306 93.8384 280.432 97.1751 301.565C99.8219 318.327 99.1903 335.483 104.12 351.916C110.282 372.454 119.905 392.324 126.691 412.685C143.149 462.058 147.351 512.498 170.098 560.266C179.613 580.247 197.605 600.208 208.295 619.298C224.039 647.413 239.793 672.457 258.646 699.166C285.325 736.961 311.336 784.982 350.668 812.022C384.184 835.065 442.211 852.332 482.623 848.483C514.696 845.429 563.052 806.439 588.534 789.451C641.337 754.249 678.229 704.683 710.071 650.551C727.648 620.671 748.287 592.356 765.631 562.002C790.788 517.979 805.24 462.277 821.191 414.421C838.94 361.176 857.921 307.437 871.543 252.95C874.984 239.185 876.783 225.044 880.224 211.28C881.556 205.953 887.888 190.743 885.433 195.654" fill="none" opacity="1" stroke="#000000" stroke-linecap="round" stroke-linejoin="round" stroke-width="57.6278"/>
<path d="M185.724 167.874C184.43 170.462 178.469 176.865 180.515 174.819C193.953 161.381 199.386 148.305 210.031 129.676C220.501 111.354 228.834 86.7626 239.548 68.9073C240.213 67.7976 242.105 71.5586 243.02 70.6435C245.476 68.1881 243.02 60.226 243.02 60.226C243.02 60.226 242.599 70.6605 243.02 75.8523C244.477 93.8184 244.925 111.956 248.229 129.676C252.742 153.881 262.153 178.333 277.745 197.39" fill="none" opacity="1" stroke="#000000" stroke-linecap="round" stroke-linejoin="round" stroke-width="57.6278"/>
<path d="M892.378 589.782C888.045 598.447 896.409 606.548 902.795 612.353C919.496 627.536 955.736 650.522 967.036 673.122" fill="none" opacity="1" stroke="#000000" stroke-linecap="round" stroke-linejoin="round" stroke-width="57.6278"/>
<path d="M956.619 669.65C951.886 672.016 949.195 669.809 944.465 671.386C936.574 674.016 930.746 682.808 923.63 687.012C898.582 701.813 874.202 717.737 848.971 732.155" fill="none" opacity="1" stroke="#000000" stroke-linecap="round" stroke-linejoin="round" stroke-width="57.6278"/>
</g>
</svg>
